Merriweather-Bold.ufo
<glyph name="dollar" format="1">
  <advance width="1370"/>
  <unicode hex="0024"/>
  <outline>
    <contour>
      <point x="1229" y="422" type="curve" smooth="yes"/>
      <point x="1229" y="656"/>
      <point x="1051" y="768"/>
      <point x="834" y="888" type="curve"/>
      <point x="672" y="975"/>
      <point x="499" y="1059"/>
      <point x="499" y="1215" type="curve" smooth="yes"/>
      <point x="499" y="1328"/>
      <point x="590" y="1405"/>
      <point x="726" y="1406" type="curve" smooth="yes"/>
      <point x="802" y="1407"/>
      <point x="859" y="1385"/>
      <point x="890" y="1353" type="curve"/>
      <point x="939" y="1128" type="line"/>
      <point x="1123" y="1128" type="line"/>
      <point x="1136" y="1465" type="line"/>
      <point x="1084" y="1483"/>
      <point x="945" y="1526"/>
      <point x="789" y="1538" type="curve"/>
      <point x="789" y="1762" type="line"/>
      <point x="606" y="1762" type="line"/>
      <point x="606" y="1534" type="line"/>
      <point x="340" y="1499"/>
      <point x="183" y="1333"/>
      <point x="183" y="1138" type="curve" smooth="yes"/>
      <point x="183" y="883"/>
      <point x="342" y="765"/>
      <point x="548" y="659" type="curve" smooth="yes"/>
      <point x="753" y="555"/>
      <point x="897" y="470"/>
      <point x="897" y="332" type="curve" smooth="yes"/>
      <point x="897" y="200"/>
      <point x="828" y="117"/>
      <point x="657" y="117" type="curve" smooth="yes"/>
      <point x="546" y="117"/>
      <point x="478" y="145"/>
      <point x="437" y="189" type="curve"/>
      <point x="383" y="431" type="line"/>
      <point x="195" y="431" type="line"/>
      <point x="178" y="67" type="line"/>
      <point x="235" y="50"/>
      <point x="401" y="-8"/>
      <point x="594" y="-20" type="curve"/>
      <point x="592" y="-258" type="line"/>
      <point x="775" y="-258" type="line"/>
      <point x="777" y="-17" type="line"/>
      <point x="1104" y="19"/>
      <point x="1229" y="218"/>
    </contour>
  </outline>
</glyph>
<glyph name="three" format="1">
  <advance width="1154"/>
  <unicode hex="0033"/>
  <outline>
    <contour>
      <point x="87" y="-124" type="curve"/>
      <point x="87" y="-290" type="line"/>
      <point x="145" y="-308"/>
      <point x="262" y="-327"/>
      <point x="350" y="-327" type="curve" smooth="yes"/>
      <point x="807" y="-327"/>
      <point x="1082" y="-102"/>
      <point x="1081" y="191" type="curve" smooth="yes"/>
      <point x="1080" y="413"/>
      <point x="882" y="548"/>
      <point x="609" y="525" type="curve"/>
      <point x="817" y="597"/>
      <point x="1002" y="746"/>
      <point x="1002" y="957" type="curve" smooth="yes"/>
      <point x="1002" y="1193"/>
      <point x="807" y="1290"/>
      <point x="557" y="1290" type="curve" smooth="yes"/>
      <point x="350" y="1290"/>
      <point x="143" y="1185"/>
      <point x="77" y="1120" type="curve"/>
      <point x="155" y="984" type="line"/>
      <point x="217" y="1030"/>
      <point x="320" y="1082"/>
      <point x="454" y="1082" type="curve" smooth="yes"/>
      <point x="559" y="1082"/>
      <point x="658" y="1039"/>
      <point x="657" y="905" type="curve" smooth="yes"/>
      <point x="657" y="791"/>
      <point x="580" y="678"/>
      <point x="425" y="607" type="curve" smooth="yes"/>
      <point x="375" y="587"/>
      <point x="319" y="567"/>
      <point x="260" y="559" type="curve"/>
      <point x="307" y="420" type="line"/>
      <point x="428" y="448" type="line"/>
      <point x="623" y="437"/>
      <point x="715" y="344"/>
      <point x="715" y="175" type="curve" smooth="yes"/>
      <point x="715" y="-12"/>
      <point x="548" y="-151"/>
      <point x="281" y="-151" type="curve" smooth="yes"/>
      <point x="206" y="-151"/>
      <point x="141" y="-141"/>
    </contour>
  </outline>
</glyph>
<glyph name="six" format="1">
  <advance width="1370"/>
  <unicode hex="0036"/>
  <outline>
    <contour>
      <point x="693" y="-23" type="curve" smooth="yes"/>
      <point x="1056" y="-23"/>
      <point x="1249" y="254"/>
      <point x="1249" y="553" type="curve" smooth="yes"/>
      <point x="1249" y="842"/>
      <point x="1083" y="1017"/>
      <point x="818" y="1017" type="curve" smooth="yes"/>
      <point x="677" y="1017"/>
      <point x="582" y="971"/>
      <point x="521" y="922" type="curve"/>
      <point x="597" y="1178"/>
      <point x="775" y="1402"/>
      <point x="1066" y="1489" type="curve"/>
      <point x="1002" y="1610" type="line"/>
      <point x="608" y="1564"/>
      <point x="135" y="1176"/>
      <point x="135" y="619" type="curve" smooth="yes"/>
      <point x="135" y="259"/>
      <point x="331" y="-23"/>
    </contour>
    <contour>
      <point x="704" y="847" type="curve" smooth="yes"/>
      <point x="827" y="847"/>
      <point x="918" y="749"/>
      <point x="918" y="487" type="curve" smooth="yes"/>
      <point x="918" y="295"/>
      <point x="848" y="113"/>
      <point x="704" y="113" type="curve" smooth="yes"/>
      <point x="531" y="113"/>
      <point x="471" y="329"/>
      <point x="477" y="633" type="curve"/>
      <point x="477" y="677"/>
      <point x="481" y="722"/>
      <point x="487" y="766" type="curve"/>
      <point x="526" y="805"/>
      <point x="608" y="847"/>
    </contour>
  </outline>
</glyph>
<glyph name="eight" format="1">
  <advance width="1327"/>
  <unicode hex="0038"/>
  <outline>
    <contour>
      <point x="111" y="361" type="curve" smooth="yes"/>
      <point x="111" y="82"/>
      <point x="393" y="-23"/>
      <point x="658" y="-23" type="curve" smooth="yes"/>
      <point x="974" y="-23"/>
      <point x="1227" y="135"/>
      <point x="1227" y="391" type="curve" smooth="yes"/>
      <point x="1227" y="615"/>
      <point x="1060" y="741"/>
      <point x="881" y="844" type="curve"/>
      <point x="1049" y="931"/>
      <point x="1140" y="1066"/>
      <point x="1140" y="1207" type="curve" smooth="yes"/>
      <point x="1140" y="1405"/>
      <point x="958" y="1544"/>
      <point x="667" y="1544" type="curve" smooth="yes"/>
      <point x="405" y="1544"/>
      <point x="173" y="1400"/>
      <point x="173" y="1148" type="curve" smooth="yes"/>
      <point x="173" y="951"/>
      <point x="280" y="833"/>
      <point x="412" y="744" type="curve"/>
      <point x="211" y="657"/>
      <point x="111" y="514"/>
    </contour>
    <contour>
      <point x="900" y="331" type="curve" smooth="yes"/>
      <point x="900" y="197"/>
      <point x="794" y="114"/>
      <point x="663" y="114" type="curve" smooth="yes"/>
      <point x="478" y="114"/>
      <point x="384" y="243"/>
      <point x="384" y="417" type="curve" smooth="yes"/>
      <point x="384" y="530"/>
      <point x="439" y="621"/>
      <point x="517" y="681" type="curve"/>
      <point x="705" y="577"/>
      <point x="900" y="502"/>
    </contour>
    <contour>
      <point x="455" y="1226" type="curve" smooth="yes"/>
      <point x="455" y="1348"/>
      <point x="545" y="1414"/>
      <point x="665" y="1414" type="curve" smooth="yes"/>
      <point x="807" y="1414"/>
      <point x="892" y="1323"/>
      <point x="892" y="1152" type="curve" smooth="yes"/>
      <point x="892" y="1068"/>
      <point x="845" y="972"/>
      <point x="765" y="908" type="curve"/>
      <point x="600" y="998"/>
      <point x="455" y="1084"/>
    </contour>
  </outline>
</glyph>
<glyph name="question" format="1">
  <advance width="1040"/>
  <unicode hex="003F"/>
  <outline>
    <contour>
      <point x="337" y="504" type="curve"/>
      <point x="520" y="541" type="line"/>
      <point x="509" y="607"/>
      <point x="496" y="710"/>
      <point x="496" y="791" type="curve" smooth="yes"/>
      <point x="496" y="808"/>
      <point x="501" y="832"/>
      <point x="505" y="843" type="curve"/>
      <point x="607" y="995"/>
      <point x="999" y="1042"/>
      <point x="999" y="1351" type="curve" smooth="yes"/>
      <point x="999" y="1590"/>
      <point x="831" y="1853"/>
      <point x="403" y="1853" type="curve" smooth="yes"/>
      <point x="247" y="1853"/>
      <point x="126" y="1830"/>
      <point x="99" y="1813" type="curve"/>
      <point x="144" y="1638" type="line"/>
      <point x="175" y="1645"/>
      <point x="207" y="1653"/>
      <point x="271" y="1653" type="curve" smooth="yes"/>
      <point x="556" y="1653"/>
      <point x="674" y="1429"/>
      <point x="675" y="1233" type="curve" smooth="yes"/>
      <point x="675" y="1206" type="line"/>
      <point x="413" y="1022"/>
      <point x="228" y="985"/>
      <point x="228" y="821" type="curve"/>
      <point x="233" y="722"/>
      <point x="297" y="548"/>
    </contour>
    <contour>
      <point x="326" y="134" type="curve"/>
      <point x="340" y="44"/>
      <point x="425" y="-9"/>
      <point x="505" y="4" type="curve"/>
      <point x="611" y="14"/>
      <point x="685" y="81"/>
      <point x="671" y="185" type="curve"/>
      <point x="657" y="264"/>
      <point x="589" y="327"/>
      <point x="489" y="317" type="curve"/>
      <point x="391" y="306"/>
      <point x="316" y="230"/>
    </contour>
  </outline>
</glyph>
<glyph name="B" format="1">
  <advance width="1455"/>
  <unicode hex="0042"/>
  <outline>
    <contour>
      <point x="77" y="0" type="line"/>
      <point x="399" y="0" type="line" smooth="yes"/>
      <point x="538" y="0"/>
      <point x="599" y="-12"/>
      <point x="740" y="-12" type="curve" smooth="yes"/>
      <point x="1248" y="-12"/>
      <point x="1395" y="200"/>
      <point x="1395" y="459" type="curve" smooth="yes"/>
      <point x="1395" y="687"/>
      <point x="1221" y="817"/>
      <point x="962" y="815" type="curve"/>
      <point x="1151" y="845"/>
      <point x="1289" y="982"/>
      <point x="1289" y="1189" type="curve" smooth="yes"/>
      <point x="1289" y="1405"/>
      <point x="1160" y="1535"/>
      <point x="717" y="1535" type="curve" smooth="yes"/>
      <point x="613" y="1535"/>
      <point x="521" y="1522"/>
      <point x="393" y="1522" type="curve" smooth="yes"/>
      <point x="79" y="1522" type="line"/>
      <point x="79" y="1381" type="line"/>
      <point x="233" y="1353" type="line"/>
      <point x="233" y="160" type="line"/>
      <point x="77" y="134" type="line"/>
    </contour>
    <contour>
      <point x="567" y="708" type="line"/>
      <point x="605" y="710"/>
      <point x="684" y="711"/>
      <point x="745" y="711" type="curve" smooth="yes"/>
      <point x="939" y="711"/>
      <point x="1026" y="637"/>
      <point x="1026" y="433" type="curve" smooth="yes"/>
      <point x="1026" y="244"/>
      <point x="944" y="128"/>
      <point x="729" y="128" type="curve" smooth="yes"/>
      <point x="670" y="128"/>
      <point x="594" y="131"/>
      <point x="567" y="146" type="curve"/>
    </contour>
    <contour>
      <point x="568" y="1389" type="line"/>
      <point x="591" y="1393"/>
      <point x="663" y="1399"/>
      <point x="707" y="1399" type="curve" smooth="yes"/>
      <point x="886" y="1399"/>
      <point x="955" y="1320"/>
      <point x="955" y="1149" type="curve" smooth="yes"/>
      <point x="955" y="969"/>
      <point x="891" y="864"/>
      <point x="728" y="864" type="curve" smooth="yes"/>
      <point x="680" y="864"/>
      <point x="606" y="864"/>
      <point x="568" y="868" type="curve"/>
    </contour>
    <contour>
      <point x="751" y="-170" type="move" name="btm"/>
    </contour>
    <contour>
      <point x="751" y="1700" type="move" name="top"/>
    </contour>
  </outline>
</glyph>
<glyph name="G" format="1">
  <advance width="1531"/>
  <unicode hex="0047"/>
  <outline>
    <contour>
      <point x="800" y="-23" type="curve" smooth="yes"/>
      <point x="1073" y="-23"/>
      <point x="1281" y="77"/>
      <point x="1387" y="82" type="curve"/>
      <point x="1387" y="614" type="line"/>
      <point x="1491" y="633" type="line"/>
      <point x="1491" y="783" type="line"/>
      <point x="863" y="783" type="line"/>
      <point x="863" y="633" type="line"/>
      <point x="1056" y="610" type="line"/>
      <point x="1056" y="189" type="line"/>
      <point x="1014" y="143"/>
      <point x="923" y="120"/>
      <point x="831" y="120" type="curve" smooth="yes"/>
      <point x="564" y="120"/>
      <point x="456" y="410"/>
      <point x="456" y="783" type="curve" smooth="yes"/>
      <point x="456" y="1191"/>
      <point x="604" y="1403"/>
      <point x="851" y="1403" type="curve" smooth="yes"/>
      <point x="983" y="1403"/>
      <point x="1035" y="1369"/>
      <point x="1053" y="1349" type="curve"/>
      <point x="1114" y="1088" type="line"/>
      <point x="1348" y="1088" type="line"/>
      <point x="1372" y="1477" type="line"/>
      <point x="1299" y="1494"/>
      <point x="1077" y="1541"/>
      <point x="860" y="1541" type="curve" smooth="yes"/>
      <point x="383" y="1541"/>
      <point x="66" y="1252"/>
      <point x="66" y="745" type="curve" smooth="yes"/>
      <point x="66" y="310"/>
      <point x="327" y="-23"/>
    </contour>
    <contour>
      <point x="777" y="-170" type="move" name="btm"/>
    </contour>
    <contour>
      <point x="856" y="1700" type="move" name="top"/>
    </contour>
  </outline>
</glyph>
<glyph name="I" format="1">
  <advance width="850"/>
  <unicode hex="0049"/>
  <outline>
    <contour>
      <point x="91" y="0" type="line"/>
      <point x="765" y="0" type="line"/>
      <point x="765" y="132" type="line"/>
      <point x="595" y="160" type="line"/>
      <point x="595" y="1353" type="line"/>
      <point x="763" y="1381" type="line"/>
      <point x="763" y="1522" type="line"/>
      <point x="89" y="1522" type="line"/>
      <point x="89" y="1381" type="line"/>
      <point x="256" y="1352" type="line"/>
      <point x="256" y="160" type="line"/>
      <point x="91" y="134" type="line"/>
    </contour>
    <contour>
      <point x="447" y="-170" type="move" name="btm"/>
    </contour>
    <contour>
      <point x="425" y="1700" type="move" name="top"/>
    </contour>
  </outline>
</glyph>
<glyph name="M" format="1">
  <advance width="2108"/>
  <unicode hex="004D"/>
  <outline>
    <contour>
      <point x="-5" y="0" type="line"/>
      <point x="584" y="0" type="line"/>
      <point x="584" y="134" type="line"/>
      <point x="381" y="160" type="line"/>
      <point x="446" y="1041" type="line"/>
      <point x="470" y="1412" type="line"/>
      <point x="558" y="1049" type="line"/>
      <point x="881" y="58" type="line"/>
      <point x="1126" y="58" type="line"/>
      <point x="1401" y="1123" type="line"/>
      <point x="1460" y="1406" type="line"/>
      <point x="1499" y="1040" type="line"/>
      <point x="1602" y="159" type="line"/>
      <point x="1433" y="134" type="line"/>
      <point x="1433" y="0" type="line"/>
      <point x="2118" y="0" type="line"/>
      <point x="2118" y="134" type="line"/>
      <point x="1948" y="160" type="line"/>
      <point x="1770" y="1352" type="line"/>
      <point x="1987" y="1381" type="line"/>
      <point x="1987" y="1522" type="line"/>
      <point x="1318" y="1522" type="line"/>
      <point x="1099" y="637" type="line"/>
      <point x="1066" y="443" type="line"/>
      <point x="1029" y="637" type="line"/>
      <point x="768" y="1522" type="line"/>
      <point x="106" y="1522" type="line"/>
      <point x="106" y="1381" type="line"/>
      <point x="307" y="1353" type="line"/>
      <point x="168" y="159" type="line"/>
      <point x="-5" y="134" type="line"/>
    </contour>
    <contour>
      <point x="942" y="-170" type="move" name="btm"/>
    </contour>
    <contour>
      <point x="1049" y="1700" type="move" name="top"/>
    </contour>
  </outline>
</glyph>
<glyph name="R" format="1">
  <advance width="1486"/>
  <unicode hex="0052"/>
  <outline>
    <contour>
      <point x="77" y="0" type="line"/>
      <point x="753" y="0" type="line"/>
      <point x="753" y="134" type="line"/>
      <point x="571" y="158" type="line"/>
      <point x="571" y="651" type="line"/>
      <point x="587" y="650"/>
      <point x="684" y="649"/>
      <point x="757" y="649" type="curve"/>
      <point x="906" y="574"/>
      <point x="1003" y="0"/>
      <point x="1101" y="0" type="curve" smooth="yes"/>
      <point x="1490" y="0" type="line"/>
      <point x="1490" y="134" type="line"/>
      <point x="1427" y="156" type="line"/>
      <point x="1326" y="182"/>
      <point x="1252" y="614"/>
      <point x="1030" y="705" type="curve"/>
      <point x="1230" y="768"/>
      <point x="1323" y="959"/>
      <point x="1323" y="1128" type="curve" smooth="yes"/>
      <point x="1323" y="1412"/>
      <point x="1170" y="1535"/>
      <point x="737" y="1535" type="curve" smooth="yes"/>
      <point x="599" y="1535"/>
      <point x="512" y="1522"/>
      <point x="395" y="1522" type="curve" smooth="yes"/>
      <point x="84" y="1522" type="line"/>
      <point x="84" y="1381" type="line"/>
      <point x="233" y="1353" type="line"/>
      <point x="233" y="159" type="line"/>
      <point x="77" y="134" type="line"/>
    </contour>
    <contour>
      <point x="571" y="789" type="curve"/>
      <point x="571" y="1389" type="line"/>
      <point x="590" y="1393"/>
      <point x="625" y="1399"/>
      <point x="701" y="1399" type="curve" smooth="yes"/>
      <point x="894" y="1399"/>
      <point x="964" y="1299"/>
      <point x="964" y="1115" type="curve" smooth="yes"/>
      <point x="964" y="888"/>
      <point x="875" y="785"/>
      <point x="731" y="785" type="curve" smooth="yes"/>
      <point x="696" y="785"/>
      <point x="596" y="782"/>
    </contour>
    <contour>
      <point x="774" y="-170" type="move" name="btm"/>
    </contour>
    <contour>
      <point x="731" y="1700" type="move" name="top"/>
    </contour>
  </outline>
</glyph>
<glyph name="V" format="1">
  <advance width="1424"/>
  <unicode hex="0056"/>
  <outline>
    <contour>
      <point x="588" y="-15" type="line"/>
      <point x="861" y="-15" type="line"/>
      <point x="1331" y="1353" type="line"/>
      <point x="1463" y="1381" type="line"/>
      <point x="1463" y="1522" type="line"/>
      <point x="949" y="1522" type="line"/>
      <point x="949" y="1381" type="line"/>
      <point x="1104" y="1352" type="line"/>
      <point x="824" y="454" type="line"/>
      <point x="784" y="272" type="line"/>
      <point x="736" y="453" type="line"/>
      <point x="452" y="1353" type="line"/>
      <point x="624" y="1381" type="line"/>
      <point x="624" y="1522" type="line"/>
      <point x="-36" y="1522" type="line"/>
      <point x="-36" y="1381" type="line"/>
      <point x="86" y="1353" type="line"/>
    </contour>
    <contour>
      <point x="689" y="-170" type="move" name="btm"/>
    </contour>
    <contour>
      <point x="658" y="1700" type="move" name="top"/>
    </contour>
  </outline>
</glyph>
<glyph name="W" format="1">
  <advance width="2095"/>
  <unicode hex="0057"/>
  <outline>
    <contour>
      <point x="499" y="-10" type="line"/>
      <point x="796" y="-10" type="line"/>
      <point x="1049" y="900" type="line"/>
      <point x="1314" y="-10" type="line"/>
      <point x="1617" y="-10" type="line"/>
      <point x="2004" y="1351" type="line"/>
      <point x="2133" y="1381" type="line"/>
      <point x="2133" y="1522" type="line"/>
      <point x="1630" y="1522" type="line"/>
      <point x="1630" y="1381" type="line"/>
      <point x="1808" y="1352" type="line"/>
      <point x="1580" y="444" type="line"/>
      <point x="1545" y="231" type="line"/>
      <point x="1502" y="444" type="line"/>
      <point x="1254" y="1352" type="line"/>
      <point x="1444" y="1381" type="line"/>
      <point x="1444" y="1522" type="line"/>
      <point x="777" y="1522" type="line"/>
      <point x="777" y="1381" type="line"/>
      <point x="905" y="1352" type="line"/>
      <point x="963" y="1176" type="line"/>
      <point x="754" y="444" type="line"/>
      <point x="719" y="246" type="line"/>
      <point x="682" y="444" type="line"/>
      <point x="435" y="1351" type="line"/>
      <point x="603" y="1381" type="line"/>
      <point x="603" y="1522" type="line"/>
      <point x="-39" y="1522" type="line"/>
      <point x="-39" y="1381" type="line"/>
      <point x="81" y="1351" type="line"/>
    </contour>
    <contour>
      <point x="955" y="-170" type="move" name="btm"/>
    </contour>
    <contour>
      <point x="1070" y="1700" type="move" name="top"/>
    </contour>
  </outline>
</glyph>
<glyph name="Y" format="1">
  <advance width="1351"/>
  <unicode hex="0059"/>
  <outline>
    <contour>
      <point x="300" y="0" type="line"/>
      <point x="1083" y="0" type="line"/>
      <point x="1083" y="134" type="line"/>
      <point x="866" y="160" type="line"/>
      <point x="866" y="609" type="line"/>
      <point x="1260" y="1355" type="line"/>
      <point x="1387" y="1381" type="line"/>
      <point x="1387" y="1522" type="line"/>
      <point x="870" y="1522" type="line"/>
      <point x="870" y="1381" type="line"/>
      <point x="1023" y="1353" type="line"/>
      <point x="804" y="869" type="line"/>
      <point x="753" y="742" type="line"/>
      <point x="707" y="871" type="line"/>
      <point x="468" y="1352" type="line"/>
      <point x="603" y="1381" type="line"/>
      <point x="603" y="1522" type="line"/>
      <point x="-35" y="1522" type="line"/>
      <point x="-35" y="1381" type="line"/>
      <point x="85" y="1352" type="line"/>
      <point x="509" y="609" type="line"/>
      <point x="509" y="159" type="line"/>
      <point x="300" y="134" type="line"/>
    </contour>
    <contour>
      <point x="578" y="-170" type="move" name="btm"/>
    </contour>
    <contour>
      <point x="701" y="1700" type="move" name="top"/>
    </contour>
  </outline>
</glyph>
<glyph name="m" format="1">
  <advance width="2102"/>
  <unicode hex="006D"/>
  <outline>
    <contour>
      <point x="109" y="0" type="line"/>
      <point x="664" y="0" type="line"/>
      <point x="664" y="133" type="line"/>
      <point x="549" y="153" type="line"/>
      <point x="549" y="891" type="line"/>
      <point x="597" y="930"/>
      <point x="680" y="971"/>
      <point x="762" y="971" type="curve" smooth="yes"/>
      <point x="890" y="971"/>
      <point x="920" y="898"/>
      <point x="920" y="709" type="curve" smooth="yes"/>
      <point x="920" y="153" type="line"/>
      <point x="814" y="133" type="line"/>
      <point x="814" y="0" type="line"/>
      <point x="1372" y="0" type="line"/>
      <point x="1372" y="133" type="line"/>
      <point x="1250" y="153" type="line"/>
      <point x="1250" y="709" type="line" smooth="yes"/>
      <point x="1250" y="779"/>
      <point x="1246" y="841"/>
      <point x="1237" y="895" type="curve"/>
      <point x="1286" y="931"/>
      <point x="1364" y="971"/>
      <point x="1436" y="971" type="curve" smooth="yes"/>
      <point x="1566" y="971"/>
      <point x="1601" y="898"/>
      <point x="1601" y="702" type="curve" smooth="yes"/>
      <point x="1601" y="153" type="line"/>
      <point x="1508" y="133" type="line"/>
      <point x="1508" y="0" type="line"/>
      <point x="2055" y="0" type="line"/>
      <point x="2055" y="133" type="line"/>
      <point x="1930" y="152" type="line"/>
      <point x="1930" y="710" type="line" smooth="yes"/>
      <point x="1930" y="1023"/>
      <point x="1844" y="1162"/>
      <point x="1596" y="1162" type="curve" smooth="yes"/>
      <point x="1446" y="1162"/>
      <point x="1290" y="1089"/>
      <point x="1205" y="1008" type="curve"/>
      <point x="1158" y="1113"/>
      <point x="1071" y="1162"/>
      <point x="922" y="1162" type="curve" smooth="yes"/>
      <point x="805" y="1162"/>
      <point x="607" y="1092"/>
      <point x="516" y="1002" type="curve"/>
      <point x="517" y="1049" type="line"/>
      <point x="517" y="1122" type="line"/>
      <point x="463" y="1166" type="line"/>
      <point x="458" y="1166" type="line"/>
      <point x="97" y="1120" type="line"/>
      <point x="97" y="962" type="line"/>
      <point x="220" y="922" type="line"/>
      <point x="220" y="152" type="line"/>
      <point x="109" y="133" type="line"/>
    </contour>
    <contour>
      <point x="1061" y="-170" type="move" name="btm"/>
    </contour>
    <contour>
      <point x="1061" y="1700" type="move" name="top"/>
    </contour>
  </outline>
</glyph>
<glyph name="q" format="1">
  <advance width="1263"/>
  <unicode hex="0071"/>
  <outline>
    <contour>
      <point x="513" y="-23" type="curve" smooth="yes"/>
      <point x="636" y="-23"/>
      <point x="746" y="32"/>
      <point x="816" y="104" type="curve"/>
      <point x="809" y="-48" type="line"/>
      <point x="809" y="-342" type="line"/>
      <point x="595" y="-368" type="line"/>
      <point x="595" y="-496" type="line"/>
      <point x="1265" y="-496" type="line"/>
      <point x="1265" y="-368" type="line"/>
      <point x="1129" y="-342" type="line"/>
      <point x="1129" y="1122" type="line"/>
      <point x="1082" y="1159" type="line"/>
      <point x="1078" y="1159" type="line"/>
      <point x="922" y="1129" type="line"/>
      <point x="867" y="1145"/>
      <point x="766" y="1168"/>
      <point x="680" y="1168" type="curve" smooth="yes"/>
      <point x="281" y="1168"/>
      <point x="69" y="880"/>
      <point x="69" y="545" type="curve" smooth="yes"/>
      <point x="69" y="145"/>
      <point x="271" y="-23"/>
    </contour>
    <contour>
      <point x="638" y="161" type="curve" smooth="yes"/>
      <point x="508" y="161"/>
      <point x="412" y="289"/>
      <point x="414" y="581" type="curve" smooth="yes"/>
      <point x="417" y="919"/>
      <point x="531" y="1029"/>
      <point x="668" y="1029" type="curve" smooth="yes"/>
      <point x="733" y="1029"/>
      <point x="793" y="1007"/>
      <point x="809" y="982" type="curve"/>
      <point x="809" y="238" type="line"/>
      <point x="777" y="201"/>
      <point x="714" y="161"/>
    </contour>
    <contour>
      <point x="622" y="-170" type="move" name="btm"/>
    </contour>
    <contour>
      <point x="599" y="1700" type="move" name="top"/>
    </contour>
  </outline>
</glyph>
<glyph name="s" format="1">
  <advance width="1080"/>
  <unicode hex="0073"/>
  <outline>
    <contour>
      <point x="106" y="60" type="line"/>
      <point x="181" y="41"/>
      <point x="337" y="-23"/>
      <point x="544" y="-23" type="curve" smooth="yes"/>
      <point x="866" y="-23"/>
      <point x="1012" y="132"/>
      <point x="1012" y="322" type="curve" smooth="yes"/>
      <point x="1012" y="534"/>
      <point x="839" y="623"/>
      <point x="664" y="700" type="curve" smooth="yes"/>
      <point x="531" y="759"/>
      <point x="403" y="799"/>
      <point x="403" y="909" type="curve" smooth="yes"/>
      <point x="403" y="979"/>
      <point x="458" y="1032"/>
      <point x="569" y="1032" type="curve" smooth="yes"/>
      <point x="644" y="1032"/>
      <point x="697" y="1002"/>
      <point x="710" y="976" type="curve"/>
      <point x="762" y="829" type="line"/>
      <point x="942" y="829" type="line"/>
      <point x="942" y="1102" type="line"/>
      <point x="873" y="1112"/>
      <point x="762" y="1164"/>
      <point x="559" y="1164" type="curve" smooth="yes"/>
      <point x="275" y="1164"/>
      <point x="105" y="1024"/>
      <point x="105" y="837" type="curve" smooth="yes"/>
      <point x="105" y="658"/>
      <point x="201" y="555"/>
      <point x="380" y="476" type="curve" smooth="yes"/>
      <point x="565" y="391"/>
      <point x="697" y="342"/>
      <point x="697" y="241" type="curve" smooth="yes"/>
      <point x="697" y="171"/>
      <point x="652" y="110"/>
      <point x="528" y="110" type="curve" smooth="yes"/>
      <point x="450" y="110"/>
      <point x="368" y="143"/>
      <point x="349" y="176" type="curve"/>
      <point x="298" y="332" type="line"/>
      <point x="106" y="332" type="line"/>
    </contour>
    <contour>
      <point x="511" y="-170" type="move" name="btm"/>
    </contour>
    <contour>
      <point x="560" y="1700" type="move" name="top"/>
    </contour>
  </outline>
</glyph>
<glyph name="w" format="1">
  <advance width="1754"/>
  <unicode hex="0077"/>
  <outline>
    <contour>
      <point x="393" y="-16" type="line"/>
      <point x="656" y="-16" type="line"/>
      <point x="849" y="636" type="line"/>
      <point x="879" y="868" type="line"/>
      <point x="919" y="636" type="line"/>
      <point x="1124" y="-16" type="line"/>
      <point x="1386" y="-16" type="line"/>
      <point x="1693" y="983" type="line"/>
      <point x="1793" y="1007" type="line"/>
      <point x="1793" y="1137" type="line"/>
      <point x="1340" y="1137" type="line"/>
      <point x="1340" y="1007" type="line"/>
      <point x="1488" y="981" type="line"/>
      <point x="1358" y="463" type="line"/>
      <point x="1316" y="258" type="line"/>
      <point x="1274" y="465" type="line"/>
      <point x="1068" y="1137" type="line"/>
      <point x="796" y="1137" type="line"/>
      <point x="610" y="464" type="line"/>
      <point x="573" y="256" type="line"/>
      <point x="531" y="465" type="line"/>
      <point x="394" y="982" type="line"/>
      <point x="532" y="1007" type="line"/>
      <point x="532" y="1137" type="line"/>
      <point x="-22" y="1137" type="line"/>
      <point x="-22" y="1007" type="line"/>
      <point x="72" y="983" type="line"/>
    </contour>
    <contour>
      <point x="841" y="-170" type="move" name="btm"/>
    </contour>
    <contour>
      <point x="915" y="1700" type="move" name="top"/>
    </contour>
  </outline>
</glyph>
<glyph name="cent" format="1">
  <advance width="1188"/>
  <unicode hex="00A2"/>
  <outline>
    <contour>
      <point x="112" y="557" type="curve"/>
      <point x="113" y="267"/>
      <point x="233" y="42"/>
      <point x="509" y="-11" type="curve"/>
      <point x="497" y="-243" type="line"/>
      <point x="675" y="-243" type="line"/>
      <point x="686" y="-21" type="line"/>
      <point x="859" y="-8"/>
      <point x="999" y="79"/>
      <point x="1049" y="136" type="curve"/>
      <point x="994" y="257" type="line"/>
      <point x="932" y="217"/>
      <point x="846" y="176"/>
      <point x="720" y="176" type="curve" smooth="yes"/>
      <point x="568" y="176"/>
      <point x="457" y="317"/>
      <point x="459" y="626" type="curve" smooth="yes"/>
      <point x="460" y="923"/>
      <point x="548" y="1022"/>
      <point x="667" y="1022" type="curve" smooth="yes"/>
      <point x="717" y="1022"/>
      <point x="761" y="1005"/>
      <point x="775" y="965" type="curve"/>
      <point x="827" y="751" type="line"/>
      <point x="1028" y="751" type="line"/>
      <point x="1042" y="1106" type="line"/>
      <point x="983" y="1113"/>
      <point x="903" y="1154"/>
      <point x="769" y="1165" type="curve"/>
      <point x="780" y="1375" type="line"/>
      <point x="603" y="1375" type="line"/>
      <point x="592" y="1160" type="line"/>
      <point x="297" y="1115"/>
      <point x="113" y="881"/>
    </contour>
  </outline>
</glyph>
<glyph name="currency" format="1">
  <advance width="1547"/>
  <unicode hex="00A4"/>
  <outline>
    <contour>
      <point x="174" y="286" type="line"/>
      <point x="308" y="151" type="line"/>
      <point x="536" y="380" type="line"/>
      <point x="603" y="340"/>
      <point x="683" y="317"/>
      <point x="770" y="317" type="curve" smooth="yes"/>
      <point x="857" y="317"/>
      <point x="937" y="341"/>
      <point x="1005" y="384" type="curve"/>
      <point x="1234" y="155" type="line"/>
      <point x="1368" y="290" type="line"/>
      <point x="1141" y="515" type="line"/>
      <point x="1193" y="591"/>
      <point x="1224" y="684"/>
      <point x="1224" y="784" type="curve" smooth="yes"/>
      <point x="1224" y="879"/>
      <point x="1195" y="966"/>
      <point x="1146" y="1037" type="curve"/>
      <point x="1372" y="1261" type="line"/>
      <point x="1238" y="1395" type="line"/>
      <point x="1008" y="1166" type="line"/>
      <point x="939" y="1207"/>
      <point x="858" y="1230"/>
      <point x="770" y="1230" type="curve" smooth="yes"/>
      <point x="683" y="1230"/>
      <point x="604" y="1204"/>
      <point x="536" y="1161" type="curve"/>
      <point x="306" y="1393" type="line"/>
      <point x="174" y="1258" type="line"/>
      <point x="403" y="1030" type="line"/>
      <point x="353" y="953"/>
      <point x="324" y="861"/>
      <point x="324" y="762" type="curve" smooth="yes"/>
      <point x="324" y="666"/>
      <point x="351" y="580"/>
      <point x="399" y="509" type="curve"/>
    </contour>
    <contour>
      <point x="772" y="545" type="curve" smooth="yes"/>
      <point x="657" y="545"/>
      <point x="562" y="645"/>
      <point x="562" y="768" type="curve" smooth="yes"/>
      <point x="562" y="890"/>
      <point x="628" y="1002"/>
      <point x="766" y="1002" type="curve" smooth="yes"/>
      <point x="879" y="1002"/>
      <point x="980" y="902"/>
      <point x="980" y="768" type="curve" smooth="yes"/>
      <point x="980" y="645"/>
      <point x="917" y="545"/>
    </contour>
  </outline>
</glyph>
<glyph name="section" format="1">
  <advance width="1400"/>
  <unicode hex="00A7"/>
  <outline>
    <contour>
      <point x="194" y="-109" type="line"/>
      <point x="259" y="-115"/>
      <point x="444" y="-203"/>
      <point x="682" y="-203" type="curve" smooth="yes"/>
      <point x="1044" y="-203"/>
      <point x="1195" y="-21"/>
      <point x="1195" y="150" type="curve" smooth="yes"/>
      <point x="1195" y="251"/>
      <point x="1152" y="329"/>
      <point x="1089" y="391" type="curve"/>
      <point x="1173" y="464"/>
      <point x="1235" y="564"/>
      <point x="1235" y="713" type="curve" smooth="yes"/>
      <point x="1235" y="984"/>
      <point x="905" y="1107"/>
      <point x="767" y="1170" type="curve"/>
      <point x="608" y="1240"/>
      <point x="504" y="1282"/>
      <point x="504" y="1403" type="curve" smooth="yes"/>
      <point x="504" y="1485"/>
      <point x="569" y="1536"/>
      <point x="703" y="1536" type="curve" smooth="yes"/>
      <point x="802" y="1536"/>
      <point x="875" y="1499"/>
      <point x="888" y="1478" type="curve"/>
      <point x="948" y="1296" type="line"/>
      <point x="1122" y="1296" type="line"/>
      <point x="1135" y="1610" type="line"/>
      <point x="1072" y="1620"/>
      <point x="910" y="1683"/>
      <point x="721" y="1683" type="curve" smooth="yes"/>
      <point x="416" y="1683"/>
      <point x="227" y="1545"/>
      <point x="227" y="1348" type="curve" smooth="yes"/>
      <point x="227" y="1242"/>
      <point x="269" y="1161"/>
      <point x="331" y="1098" type="curve"/>
      <point x="235" y="1025"/>
      <point x="177" y="937"/>
      <point x="177" y="823" type="curve" smooth="yes"/>
      <point x="177" y="583"/>
      <point x="331" y="432"/>
      <point x="618" y="312" type="curve"/>
      <point x="800" y="242"/>
      <point x="917" y="197"/>
      <point x="917" y="81" type="curve" smooth="yes"/>
      <point x="917" y="-4"/>
      <point x="844" y="-63"/>
      <point x="692" y="-63" type="curve" smooth="yes"/>
      <point x="583" y="-63"/>
      <point x="480" y="-18"/>
      <point x="451" y="23" type="curve"/>
      <point x="406" y="230" type="line"/>
      <point x="212" y="230" type="line"/>
    </contour>
    <contour>
      <point x="763" y="581" type="curve" smooth="yes"/>
      <point x="546" y="676"/>
      <point x="387" y="759"/>
      <point x="387" y="896" type="curve" smooth="yes"/>
      <point x="387" y="944"/>
      <point x="400" y="983"/>
      <point x="430" y="1017" type="curve"/>
      <point x="505" y="968"/>
      <point x="588" y="932"/>
      <point x="657" y="900" type="curve" smooth="yes"/>
      <point x="868" y="805"/>
      <point x="1006" y="733"/>
      <point x="1006" y="594" type="curve" smooth="yes"/>
      <point x="1006" y="549"/>
      <point x="995" y="513"/>
      <point x="972" y="480" type="curve"/>
      <point x="903" y="522"/>
      <point x="828" y="553"/>
    </contour>
  </outline>
</glyph>
<glyph name="dieresis" format="1">
  <advance width="1021"/>
  <unicode hex="00A8"/>
  <outline>
    <contour>
      <point x="239" y="1336" type="curve"/>
      <point x="240" y="1336" type="line"/>
      <point x="372" y="1336"/>
      <point x="431" y="1419"/>
      <point x="431" y="1526" type="curve" smooth="yes"/>
      <point x="431" y="1612"/>
      <point x="378" y="1688"/>
      <point x="268" y="1688" type="curve"/>
      <point x="267" y="1688" type="line"/>
      <point x="147" y="1688"/>
      <point x="90" y="1603"/>
      <point x="90" y="1498" type="curve" smooth="yes"/>
      <point x="90" y="1409"/>
      <point x="150" y="1336"/>
    </contour>
    <contour>
      <point x="742" y="1336" type="curve"/>
      <point x="743" y="1336" type="line"/>
      <point x="876" y="1336"/>
      <point x="934" y="1419"/>
      <point x="934" y="1526" type="curve" smooth="yes"/>
      <point x="934" y="1612"/>
      <point x="883" y="1688"/>
      <point x="772" y="1688" type="curve"/>
      <point x="771" y="1688" type="line"/>
      <point x="651" y="1688"/>
      <point x="594" y="1603"/>
      <point x="594" y="1498" type="curve" smooth="yes"/>
      <point x="594" y="1417"/>
      <point x="653" y="1336"/>
    </contour>
    <contour>
      <point x="510" y="1700" type="move" name="_top"/>
    </contour>
  </outline>
</glyph>
<glyph name="copyright" format="1">
  <advance width="2130"/>
  <unicode hex="00A9"/>
  <outline>
    <contour>
      <point x="1074" y="511" type="curve" smooth="yes"/>
      <point x="1218" y="511"/>
      <point x="1346" y="594"/>
      <point x="1403" y="665" type="curve"/>
      <point x="1341" y="770" type="line"/>
      <point x="1293" y="726"/>
      <point x="1222" y="695"/>
      <point x="1144" y="695" type="curve" smooth="yes"/>
      <point x="973" y="695"/>
      <point x="844" y="835"/>
      <point x="844" y="1036" type="curve" smooth="yes"/>
      <point x="844" y="1219"/>
      <point x="919" y="1358"/>
      <point x="1068" y="1358" type="curve" smooth="yes"/>
      <point x="1158" y="1358"/>
      <point x="1183" y="1342"/>
      <point x="1205" y="1327" type="curve"/>
      <point x="1253" y="1191" type="line"/>
      <point x="1388" y="1191" type="line"/>
      <point x="1393" y="1443" type="line"/>
      <point x="1353" y="1483"/>
      <point x="1223" y="1505"/>
      <point x="1134" y="1505" type="curve" smooth="yes"/>
      <point x="840" y="1505"/>
      <point x="621" y="1279"/>
      <point x="621" y="997" type="curve" smooth="yes"/>
      <point x="621" y="716"/>
      <point x="776" y="511"/>
    </contour>
    <contour>
      <point x="354" y="1002" type="curve" smooth="yes"/>
      <point x="354" y="1403"/>
      <point x="660" y="1737"/>
      <point x="1066" y="1737" type="curve" smooth="yes"/>
      <point x="1469" y="1737"/>
      <point x="1776" y="1408"/>
      <point x="1776" y="1002" type="curve" smooth="yes"/>
      <point x="1776" y="599"/>
      <point x="1469" y="266"/>
      <point x="1066" y="266" type="curve" smooth="yes"/>
      <point x="663" y="266"/>
      <point x="354" y="595"/>
    </contour>
    <contour>
      <point x="196" y="1002" type="curve" smooth="yes"/>
      <point x="196" y="515"/>
      <point x="583" y="130"/>
      <point x="1066" y="130" type="curve" smooth="yes"/>
      <point x="1550" y="130"/>
      <point x="1933" y="515"/>
      <point x="1933" y="1002" type="curve" smooth="yes"/>
      <point x="1933" y="1487"/>
      <point x="1550" y="1871"/>
      <point x="1066" y="1871" type="curve" smooth="yes"/>
      <point x="583" y="1871"/>
      <point x="196" y="1487"/>
    </contour>
  </outline>
</glyph>
<glyph name="softhyphen" format="1">
  <advance width="1345"/>
  <unicode hex="00AD"/>
  <outline>
    <contour>
      <point x="230" y="513" type="line"/>
      <point x="1115" y="513" type="line"/>
      <point x="1115" y="719" type="line"/>
      <point x="230" y="719" type="line"/>
    </contour>
  </outline>
</glyph>
<glyph name="degree" format="1">
  <advance width="1022"/>
  <unicode hex="00B0"/>
  <outline>
    <contour>
      <point x="510" y="930" type="curve" smooth="yes"/>
      <point x="715" y="930"/>
      <point x="879" y="1083"/>
      <point x="879" y="1293" type="curve" smooth="yes"/>
      <point x="879" y="1491"/>
      <point x="726" y="1656"/>
      <point x="510" y="1656" type="curve" smooth="yes"/>
      <point x="311" y="1656"/>
      <point x="143" y="1502"/>
      <point x="143" y="1293" type="curve" smooth="yes"/>
      <point x="143" y="1094"/>
      <point x="311" y="930"/>
    </contour>
    <contour>
      <point x="513" y="1111" type="curve" smooth="yes"/>
      <point x="417" y="1111"/>
      <point x="341" y="1196"/>
      <point x="341" y="1293" type="curve" smooth="yes"/>
      <point x="341" y="1396"/>
      <point x="409" y="1476"/>
      <point x="509" y="1476" type="curve" smooth="yes"/>
      <point x="606" y="1476"/>
      <point x="681" y="1391"/>
      <point x="681" y="1293" type="curve" smooth="yes"/>
      <point x="681" y="1187"/>
      <point x="614" y="1111"/>
    </contour>
  </outline>
</glyph>
<glyph name="acute" format="1">
  <advance width="681"/>
  <unicode hex="00B4"/>
  <outline>
    <contour>
      <point x="278" y="1307" type="line"/>
      <point x="280" y="1307" type="line"/>
      <point x="392" y="1347"/>
      <point x="642" y="1546"/>
      <point x="710" y="1662" type="curve"/>
      <point x="516" y="1837" type="line"/>
      <point x="515" y="1837" type="line"/>
      <point x="157" y="1407" type="line"/>
    </contour>
    <contour>
      <point x="340" y="1700" type="move" name="_top"/>
    </contour>
  </outline>
</glyph>
<glyph name="mu" format="1">
  <advance width="1398"/>
  <unicode hex="00B5"/>
  <outline>
    <contour>
      <point x="202" y="-373" type="line"/>
      <point x="503" y="-373" type="line"/>
      <point x="503" y="47" type="line"/>
      <point x="550" y="6"/>
      <point x="619" y="-21"/>
      <point x="706" y="-21" type="curve" smooth="yes"/>
      <point x="818" y="-21"/>
      <point x="914" y="53"/>
      <point x="949" y="142" type="curve"/>
      <point x="949" y="92" type="line" smooth="yes"/>
      <point x="949" y="23"/>
      <point x="984" y="-29"/>
      <point x="1079" y="-29" type="curve" smooth="yes"/>
      <point x="1173" y="-29"/>
      <point x="1265" y="-8"/>
      <point x="1313" y="10" type="curve"/>
      <point x="1313" y="141" type="line"/>
      <point x="1204" y="141" type="line"/>
      <point x="1204" y="1135" type="line"/>
      <point x="1164" y="1162" type="line"/>
      <point x="765" y="1134" type="line"/>
      <point x="766" y="1019" type="line"/>
      <point x="883" y="974" type="line"/>
      <point x="883" y="265" type="line"/>
      <point x="863" y="217"/>
      <point x="810" y="165"/>
      <point x="709" y="165" type="curve" smooth="yes"/>
      <point x="591" y="165"/>
      <point x="524" y="275"/>
      <point x="524" y="365" type="curve" smooth="yes"/>
      <point x="524" y="1134" type="line"/>
      <point x="478" y="1162" type="line"/>
      <point x="96" y="1134" type="line"/>
      <point x="96" y="1018" type="line"/>
      <point x="200" y="974" type="line"/>
      <point x="200" y="461" type="line" smooth="yes"/>
      <point x="200" y="459"/>
      <point x="201" y="456"/>
      <point x="202" y="453" type="curve"/>
    </contour>
  </outline>
</glyph>
<glyph name="ordmasculine" format="1">
  <advance width="1086"/>
  <unicode hex="00BA"/>
  <outline>
    <contour>
      <point x="544" y="673" type="curve" smooth="yes"/>
      <point x="765" y="674"/>
      <point x="1009" y="809"/>
      <point x="1012" y="1148" type="curve" smooth="yes"/>
      <point x="1015" y="1454"/>
      <point x="850" y="1623"/>
      <point x="555" y="1623" type="curve" smooth="yes"/>
      <point x="324" y="1623"/>
      <point x="79" y="1484"/>
      <point x="75" y="1158" type="curve" smooth="yes"/>
      <point x="71" y="828"/>
      <point x="273" y="672"/>
    </contour>
    <contour>
      <point x="541" y="795" type="curve" smooth="yes"/>
      <point x="451" y="794"/>
      <point x="383" y="927"/>
      <point x="383" y="1164" type="curve" smooth="yes"/>
      <point x="383" y="1407"/>
      <point x="434" y="1499"/>
      <point x="544" y="1501" type="curve" smooth="yes"/>
      <point x="653" y="1503"/>
      <point x="704" y="1367"/>
      <point x="704" y="1132" type="curve" smooth="yes"/>
      <point x="704" y="842"/>
      <point x="659" y="796"/>
    </contour>
  </outline>
</glyph>
<glyph name="Eth" format="1">
  <advance width="1568"/>
  <unicode hex="00D0"/>
  <outline>
    <contour>
      <point x="91" y="718" type="line"/>
      <point x="233" y="718" type="line"/>
      <point x="233" y="159" type="line"/>
      <point x="77" y="134" type="line"/>
      <point x="77" y="0" type="line"/>
      <point x="403" y="0" type="line" smooth="yes"/>
      <point x="483" y="0"/>
      <point x="620" y="-13"/>
      <point x="727" y="-16" type="curve" smooth="yes"/>
      <point x="1207" y="-27"/>
      <point x="1506" y="326"/>
      <point x="1506" y="813" type="curve" smooth="yes"/>
      <point x="1506" y="1269"/>
      <point x="1264" y="1535"/>
      <point x="752" y="1535" type="curve" smooth="yes"/>
      <point x="622" y="1535"/>
      <point x="523" y="1522"/>
      <point x="395" y="1522" type="curve" smooth="yes"/>
      <point x="84" y="1522" type="line"/>
      <point x="84" y="1381" type="line"/>
      <point x="233" y="1353" type="line"/>
      <point x="233" y="860" type="line"/>
      <point x="91" y="860" type="line"/>
    </contour>
    <contour>
      <point x="568" y="1378" type="line"/>
      <point x="589" y="1382"/>
      <point x="632" y="1394"/>
      <point x="705" y="1394" type="curve" smooth="yes"/>
      <point x="1012" y="1394"/>
      <point x="1137" y="1147"/>
      <point x="1137" y="762" type="curve" smooth="yes"/>
      <point x="1137" y="326"/>
      <point x="980" y="135"/>
      <point x="740" y="132" type="curve" smooth="yes"/>
      <point x="674" y="131"/>
      <point x="615" y="134"/>
      <point x="568" y="151" type="curve"/>
      <point x="568" y="718" type="line"/>
      <point x="855" y="718" type="line"/>
      <point x="855" y="860" type="line"/>
      <point x="568" y="860" type="line"/>
    </contour>
  </outline>
</glyph>
<glyph name="Oslash" format="1">
  <advance width="1494"/>
  <unicode hex="00D8"/>
  <outline>
    <contour>
      <point x="454" y="-240" type="line"/>
      <point x="547" y="-5" type="line"/>
      <point x="605" y="-17"/>
      <point x="668" y="-23"/>
      <point x="737" y="-23" type="curve"/>
      <point x="1158" y="-18"/>
      <point x="1439" y="304"/>
      <point x="1439" y="784" type="curve" smooth="yes"/>
      <point x="1439" y="1118"/>
      <point x="1332" y="1364"/>
      <point x="1092" y="1475" type="curve"/>
      <point x="1179" y="1698" type="line"/>
      <point x="1036" y="1743" type="line"/>
      <point x="951" y="1522" type="line"/>
      <point x="893" y="1534"/>
      <point x="829" y="1541"/>
      <point x="760" y="1541" type="curve" smooth="yes"/>
      <point x="337" y="1542"/>
      <point x="55" y="1234"/>
      <point x="55" y="755" type="curve" smooth="yes"/>
      <point x="55" y="420"/>
      <point x="162" y="162"/>
      <point x="398" y="45" type="curve"/>
      <point x="302" y="-197" type="line"/>
    </contour>
    <contour>
      <point x="747" y="1403" type="curve" smooth="yes"/>
      <point x="804" y="1403"/>
      <point x="855" y="1388"/>
      <point x="898" y="1356" type="curve"/>
      <point x="521" y="255" type="line"/>
      <point x="460" y="360"/>
      <point x="427" y="526"/>
      <point x="427" y="757" type="curve" smooth="yes"/>
      <point x="427" y="1198"/>
      <point x="547" y="1403"/>
    </contour>
    <contour>
      <point x="1067" y="783" type="curve" smooth="yes"/>
      <point x="1067" y="341"/>
      <point x="946" y="116"/>
      <point x="746" y="116" type="curve" smooth="yes"/>
      <point x="692" y="116"/>
      <point x="644" y="131"/>
      <point x="603" y="161" type="curve"/>
      <point x="979" y="1260" type="line"/>
      <point x="1036" y="1160"/>
      <point x="1067" y="1003"/>
    </contour>
  </outline>
</glyph>
<glyph name="Thorn" format="1">
  <advance width="1367"/>
  <unicode hex="00DE"/>
  <outline>
    <contour>
      <point x="73" y="0" type="line"/>
      <point x="780" y="0" type="line"/>
      <point x="780" y="132" type="line"/>
      <point x="571" y="158" type="line"/>
      <point x="571" y="337" type="line"/>
      <point x="619" y="332"/>
      <point x="704" y="325"/>
      <point x="805" y="325" type="curve" smooth="yes"/>
      <point x="1127" y="325"/>
      <point x="1321" y="470"/>
      <point x="1321" y="788" type="curve" smooth="yes"/>
      <point x="1321" y="1061"/>
      <point x="1164" y="1193"/>
      <point x="866" y="1193" type="curve" smooth="yes"/>
      <point x="745" y="1193"/>
      <point x="669" y="1181"/>
      <point x="571" y="1173" type="curve"/>
      <point x="571" y="1354" type="line"/>
      <point x="739" y="1384" type="line"/>
      <point x="737" y="1522" type="line"/>
      <point x="73" y="1522" type="line"/>
      <point x="73" y="1384" type="line"/>
      <point x="232" y="1354" type="line"/>
      <point x="232" y="158" type="line"/>
      <point x="73" y="132" type="line"/>
    </contour>
    <contour>
      <point x="746" y="462" type="curve" smooth="yes"/>
      <point x="695" y="462"/>
      <point x="636" y="461"/>
      <point x="571" y="471" type="curve"/>
      <point x="571" y="1032" type="line"/>
      <point x="605" y="1039"/>
      <point x="660" y="1047"/>
      <point x="716" y="1047" type="curve"/>
      <point x="902" y="1051"/>
      <point x="964" y="924"/>
      <point x="964" y="774" type="curve" smooth="yes"/>
      <point x="964" y="564"/>
      <point x="871" y="462"/>
    </contour>
  </outline>
</glyph>
<glyph name="eth" format="1">
  <advance width="1229"/>
  <unicode hex="00F0"/>
  <outline>
    <contour>
      <point x="383" y="1321" type="line"/>
      <point x="509" y="1487" type="line"/>
      <point x="637" y="1399"/>
      <point x="734" y="1275"/>
      <point x="777" y="1136" type="curve"/>
      <point x="735" y="1153"/>
      <point x="675" y="1168"/>
      <point x="598" y="1168" type="curve" smooth="yes"/>
      <point x="332" y="1168"/>
      <point x="69" y="969"/>
      <point x="69" y="545" type="curve" smooth="yes"/>
      <point x="69" y="209"/>
      <point x="254" y="-23"/>
      <point x="610" y="-23" type="curve" smooth="yes"/>
      <point x="1034" y="-23"/>
      <point x="1168" y="354"/>
      <point x="1168" y="676" type="curve" smooth="yes"/>
      <point x="1168" y="1111"/>
      <point x="920" y="1444"/>
      <point x="631" y="1642" type="curve"/>
      <point x="687" y="1710"/>
      <point x="745" y="1785"/>
      <point x="745" y="1785" type="curve"/>
      <point x="618" y="1885" type="line"/>
      <point x="618" y="1885"/>
      <point x="553" y="1797"/>
      <point x="494" y="1721" type="curve"/>
      <point x="394" y="1770"/>
      <point x="315" y="1795"/>
      <point x="232" y="1816" type="curve"/>
      <point x="175" y="1677" type="line"/>
      <point x="222" y="1665"/>
      <point x="305" y="1626"/>
      <point x="382" y="1577" type="curve"/>
      <point x="249" y="1413" type="line"/>
    </contour>
    <contour>
      <point x="625" y="124" type="curve" smooth="yes"/>
      <point x="475" y="124"/>
      <point x="421" y="349"/>
      <point x="421" y="580" type="curve" smooth="yes"/>
      <point x="421" y="891"/>
      <point x="495" y="1030"/>
      <point x="628" y="1030" type="curve" smooth="yes"/>
      <point x="719" y="1030"/>
      <point x="772" y="988"/>
      <point x="792" y="963" type="curve"/>
      <point x="807" y="913"/>
      <point x="829" y="784"/>
      <point x="829" y="633" type="curve" smooth="yes"/>
      <point x="829" y="267"/>
      <point x="758" y="124"/>
    </contour>
  </outline>
</glyph>
<glyph name="oslash" format="1">
  <advance width="1243"/>
  <unicode hex="00F8"/>
  <outline>
    <contour>
      <point x="63" y="565" type="curve" smooth="yes"/>
      <point x="63" y="296"/>
      <point x="172" y="105"/>
      <point x="366" y="22" type="curve"/>
      <point x="282" y="-218" type="line"/>
      <point x="422" y="-257" type="line"/>
      <point x="507" y="-16" type="line"/>
      <point x="539" y="-21"/>
      <point x="572" y="-23"/>
      <point x="607" y="-23" type="curve" smooth="yes"/>
      <point x="909" y="-23"/>
      <point x="1180" y="165"/>
      <point x="1180" y="580" type="curve" smooth="yes"/>
      <point x="1180" y="843"/>
      <point x="1075" y="1033"/>
      <point x="888" y="1118" type="curve"/>
      <point x="957" y="1339" type="line"/>
      <point x="822" y="1378" type="line"/>
      <point x="750" y="1159" type="line"/>
      <point x="714" y="1165"/>
      <point x="676" y="1168"/>
      <point x="636" y="1168" type="curve" smooth="yes"/>
      <point x="335" y="1168"/>
      <point x="63" y="969"/>
    </contour>
    <contour>
      <point x="414" y="590" type="curve" smooth="yes"/>
      <point x="414" y="890"/>
      <point x="482" y="1025"/>
      <point x="620" y="1025" type="curve" smooth="yes"/>
      <point x="657" y="1025"/>
      <point x="688" y="1014"/>
      <point x="715" y="994" type="curve"/>
      <point x="469" y="229" type="line"/>
      <point x="431" y="308"/>
      <point x="414" y="430"/>
    </contour>
    <contour>
      <point x="625" y="120" type="curve" smooth="yes"/>
      <point x="590" y="120"/>
      <point x="560" y="129"/>
      <point x="535" y="146" type="curve"/>
      <point x="780" y="902" type="line"/>
      <point x="813" y="822"/>
      <point x="827" y="705"/>
      <point x="827" y="555" type="curve" smooth="yes"/>
      <point x="827" y="255"/>
      <point x="762" y="120"/>
    </contour>
  </outline>
</glyph>
<glyph name="Aogonek" format="1">
  <advance width="1443"/>
  <unicode hex="0104"/>
  <outline>
    <contour>
      <point x="-40" y="0" type="line"/>
      <point x="499" y="0" type="line"/>
      <point x="499" y="134" type="line"/>
      <point x="340" y="156" type="line"/>
      <point x="410" y="407" type="line"/>
      <point x="913" y="407" type="line"/>
      <point x="985" y="160" type="line"/>
      <point x="841" y="134" type="line"/>
      <point x="841" y="0" type="line"/>
      <point x="1159" y="0" type="line"/>
      <point x="992" y="-56"/>
      <point x="863" y="-192"/>
      <point x="863" y="-309" type="curve" smooth="yes"/>
      <point x="863" y="-442"/>
      <point x="985" y="-513"/>
      <point x="1144" y="-513" type="curve" smooth="yes"/>
      <point x="1228" y="-513"/>
      <point x="1339" y="-488"/>
      <point x="1396" y="-445" type="curve"/>
      <point x="1396" y="-304" type="line"/>
      <point x="1351" y="-322"/>
      <point x="1318" y="-330"/>
      <point x="1271" y="-330" type="curve" smooth="yes"/>
      <point x="1185" y="-330"/>
      <point x="1126" y="-294"/>
      <point x="1126" y="-225" type="curve" smooth="yes"/>
      <point x="1126" y="-150"/>
      <point x="1216" y="-50"/>
      <point x="1345" y="0" type="curve"/>
      <point x="1474" y="0" type="line"/>
      <point x="1474" y="134" type="line"/>
      <point x="1358" y="159" type="line"/>
      <point x="893" y="1529" type="line"/>
      <point x="540" y="1529" type="line"/>
      <point x="78" y="160" type="line"/>
      <point x="-42" y="134" type="line"/>
    </contour>
    <contour>
      <point x="625" y="1180" type="line"/>
      <point x="656" y="1321" type="line"/>
      <point x="687" y="1180" type="line"/>
      <point x="868" y="561" type="line"/>
      <point x="453" y="561" type="line"/>
    </contour>
  </outline>
</glyph>
<glyph name="aogonek" format="1">
  <advance width="1166"/>
  <unicode hex="0105"/>
  <outline>
    <contour>
      <point x="58" y="319" type="curve" smooth="yes"/>
      <point x="58" y="94"/>
      <point x="220" y="-23"/>
      <point x="407" y="-23" type="curve" smooth="yes"/>
      <point x="569" y="-23"/>
      <point x="681" y="61"/>
      <point x="733" y="121" type="curve"/>
      <point x="733" y="90" type="line" smooth="yes"/>
      <point x="733" y="-2"/>
      <point x="763" y="-24"/>
      <point x="860" y="-25" type="curve"/>
      <point x="707" y="-94"/>
      <point x="597" y="-206"/>
      <point x="597" y="-309" type="curve" smooth="yes"/>
      <point x="597" y="-442"/>
      <point x="710" y="-513"/>
      <point x="870" y="-513" type="curve" smooth="yes"/>
      <point x="954" y="-513"/>
      <point x="1061" y="-488"/>
      <point x="1118" y="-445" type="curve"/>
      <point x="1118" y="-304" type="line"/>
      <point x="1073" y="-322"/>
      <point x="1044" y="-330"/>
      <point x="997" y="-330" type="curve" smooth="yes"/>
      <point x="915" y="-330"/>
      <point x="864" y="-291"/>
      <point x="864" y="-220" type="curve" smooth="yes"/>
      <point x="864" y="-148"/>
      <point x="973" y="-37"/>
      <point x="1125" y="7" type="curve"/>
      <point x="1126" y="7"/>
      <point x="1128" y="7"/>
      <point x="1130" y="8" type="curve"/>
      <point x="1130" y="135" type="line"/>
      <point x="1021" y="135" type="line"/>
      <point x="1021" y="748" type="line" smooth="yes"/>
      <point x="1021" y="1047"/>
      <point x="920" y="1164"/>
      <point x="600" y="1164" type="curve" smooth="yes"/>
      <point x="367" y="1164"/>
      <point x="156" y="1049"/>
      <point x="102" y="1004" type="curve"/>
      <point x="167" y="869" type="line"/>
      <point x="168" y="869" type="line"/>
      <point x="247" y="903"/>
      <point x="364" y="950"/>
      <point x="518" y="950" type="curve" smooth="yes"/>
      <point x="686" y="950"/>
      <point x="721" y="883"/>
      <point x="721" y="743" type="curve" smooth="yes"/>
      <point x="721" y="701" type="line"/>
      <point x="321" y="697"/>
      <point x="58" y="577"/>
    </contour>
    <contour>
      <point x="562" y="165" type="curve" smooth="yes"/>
      <point x="469" y="165"/>
      <point x="405" y="231"/>
      <point x="405" y="356" type="curve" smooth="yes"/>
      <point x="405" y="463"/>
      <point x="480" y="565"/>
      <point x="721" y="566" type="curve"/>
      <point x="721" y="230" type="line"/>
      <point x="678" y="191"/>
      <point x="607" y="165"/>
    </contour>
  </outline>
</glyph>
<glyph name="idotless" format="1">
  <advance width="721"/>
  <unicode hex="0131"/>
  <outline>
    <contour>
      <point x="77" y="0" type="line"/>
      <point x="665" y="0" type="line"/>
      <point x="665" y="134" type="line"/>
      <point x="537" y="153" type="line"/>
      <point x="537" y="1122" type="line"/>
      <point x="475" y="1166" type="line"/>
      <point x="470" y="1166" type="line"/>
      <point x="76" y="1116" type="line"/>
      <point x="76" y="963" type="line"/>
      <point x="211" y="922" type="line"/>
      <point x="211" y="154" type="line"/>
      <point x="77" y="134" type="line"/>
    </contour>
    <contour>
      <point x="355" y="-170" type="move" name="btm"/>
    </contour>
    <contour>
      <point x="352" y="1700" type="move" name="top"/>
    </contour>
  </outline>
</glyph>
<glyph name="Lslash" format="1">
  <advance width="1307"/>
  <unicode hex="0141"/>
  <outline>
    <contour>
      <point x="44" y="517" type="line"/>
      <point x="233" y="592" type="line"/>
      <point x="233" y="160" type="line"/>
      <point x="77" y="134" type="line"/>
      <point x="77" y="0" type="line"/>
      <point x="1227" y="0" type="line"/>
      <point x="1286" y="542" type="line"/>
      <point x="1099" y="570" type="line"/>
      <point x="967" y="183" type="line"/>
      <point x="573" y="161" type="line"/>
      <point x="573" y="725" type="line"/>
      <point x="915" y="863" type="line"/>
      <point x="915" y="1019" type="line"/>
      <point x="573" y="875" type="line"/>
      <point x="573" y="1352" type="line"/>
      <point x="763" y="1381" type="line"/>
      <point x="763" y="1522" type="line"/>
      <point x="79" y="1522" type="line"/>
      <point x="79" y="1381" type="line"/>
      <point x="233" y="1352" type="line"/>
      <point x="233" y="741" type="line"/>
      <point x="44" y="664" type="line"/>
    </contour>
  </outline>
</glyph>
<glyph name="OE" format="1">
  <advance width="2128"/>
  <unicode hex="0152"/>
  <outline>
    <contour>
      <point x="2036" y="0" type="line"/>
      <point x="2106" y="377" type="line"/>
      <point x="1942" y="426" type="line"/>
      <point x="1799" y="172" type="line"/>
      <point x="1335" y="145" type="line"/>
      <point x="1335" y="697" type="line"/>
      <point x="1593" y="691" type="line"/>
      <point x="1626" y="519" type="line"/>
      <point x="1781" y="519" type="line"/>
      <point x="1781" y="1024" type="line"/>
      <point x="1626" y="1024" type="line"/>
      <point x="1592" y="861" type="line"/>
      <point x="1335" y="854" type="line"/>
      <point x="1335" y="1387" type="line"/>
      <point x="1742" y="1367" type="line"/>
      <point x="1811" y="1169" type="line"/>
      <point x="1974" y="1169" type="line"/>
      <point x="1946" y="1522" type="line"/>
      <point x="992" y="1522" type="line"/>
      <point x="992" y="1504" type="line"/>
      <point x="924" y="1531"/>
      <point x="849" y="1542"/>
      <point x="768" y="1542" type="curve" smooth="yes"/>
      <point x="336" y="1541"/>
      <point x="62" y="1235"/>
      <point x="62" y="756" type="curve" smooth="yes"/>
      <point x="62" y="298"/>
      <point x="281" y="-20"/>
      <point x="745" y="-16" type="curve" smooth="yes"/>
      <point x="834" y="-15"/>
      <point x="918" y="5"/>
      <point x="992" y="47" type="curve"/>
      <point x="992" y="0" type="line"/>
    </contour>
    <contour>
      <point x="756" y="118" type="curve" smooth="yes"/>
      <point x="554" y="119"/>
      <point x="431" y="344"/>
      <point x="431" y="757" type="curve" smooth="yes"/>
      <point x="431" y="1191"/>
      <point x="545" y="1408"/>
      <point x="750" y="1408" type="curve" smooth="yes"/>
      <point x="863" y="1408"/>
      <point x="941" y="1366"/>
      <point x="992" y="1257" type="curve"/>
      <point x="992" y="309" type="line"/>
      <point x="941" y="189"/>
      <point x="863" y="118"/>
    </contour>
    <contour>
      <point x="1031" y="-170" type="move" name="btm"/>
    </contour>
    <contour>
      <point x="1031" y="1700" type="move" name="top"/>
    </contour>
  </outline>
</glyph>
<glyph name="Tbar" format="1">
  <advance width="1492"/>
  <unicode hex="0166"/>
  <outline>
    <contour>
      <point x="358" y="598" type="line"/>
      <point x="577" y="598" type="line"/>
      <point x="577" y="160" type="line"/>
      <point x="320" y="134" type="line"/>
      <point x="320" y="0" type="line"/>
      <point x="1199" y="0" type="line"/>
      <point x="1199" y="134" type="line"/>
      <point x="919" y="161" type="line"/>
      <point x="919" y="598" type="line"/>
      <point x="1133" y="598" type="line"/>
      <point x="1133" y="749" type="line"/>
      <point x="919" y="749" type="line"/>
      <point x="919" y="1371" type="line"/>
      <point x="1161" y="1361" type="line"/>
      <point x="1249" y="917" type="line"/>
      <point x="1432" y="917" type="line"/>
      <point x="1403" y="1522" type="line"/>
      <point x="76" y="1522" type="line"/>
      <point x="46" y="917" type="line"/>
      <point x="236" y="917" type="line"/>
      <point x="319" y="1361" type="line"/>
      <point x="577" y="1371" type="line"/>
      <point x="577" y="749" type="line"/>
      <point x="358" y="749" type="line"/>
    </contour>
  </outline>
</glyph>
<glyph name="Uogonek" format="1">
  <advance width="1519"/>
  <unicode hex="0172"/>
  <outline>
    <contour>
      <point x="787" y="-16" type="curve" smooth="yes"/>
      <point x="803" y="-16"/>
      <point x="819" y="-15"/>
      <point x="835" y="-14" type="curve"/>
      <point x="715" y="-73"/>
      <point x="589" y="-193"/>
      <point x="589" y="-309" type="curve" smooth="yes"/>
      <point x="589" y="-456"/>
      <point x="719" y="-513"/>
      <point x="859" y="-513" type="curve" smooth="yes"/>
      <point x="944" y="-513"/>
      <point x="1052" y="-487"/>
      <point x="1110" y="-444" type="curve"/>
      <point x="1110" y="-304" type="line"/>
      <point x="1063" y="-322"/>
      <point x="1034" y="-330"/>
      <point x="986" y="-330" type="curve" smooth="yes"/>
      <point x="906" y="-330"/>
      <point x="856" y="-280"/>
      <point x="856" y="-211" type="curve" smooth="yes"/>
      <point x="856" y="-135"/>
      <point x="930" y="-52"/>
      <point x="1035" y="25" type="curve"/>
      <point x="1233" y="100"/>
      <point x="1364" y="281"/>
      <point x="1364" y="607" type="curve" smooth="yes"/>
      <point x="1364" y="1352" type="line"/>
      <point x="1499" y="1381" type="line"/>
      <point x="1499" y="1522" type="line"/>
      <point x="975" y="1522" type="line"/>
      <point x="975" y="1381" type="line"/>
      <point x="1147" y="1352" type="line"/>
      <point x="1147" y="590" type="line" smooth="yes"/>
      <point x="1147" y="308"/>
      <point x="1053" y="126"/>
      <point x="833" y="126" type="curve" smooth="yes"/>
      <point x="618" y="126"/>
      <point x="511" y="275"/>
      <point x="511" y="595" type="curve" smooth="yes"/>
      <point x="511" y="1351" type="line"/>
      <point x="680" y="1381" type="line"/>
      <point x="680" y="1522" type="line"/>
      <point x="30" y="1522" type="line"/>
      <point x="30" y="1381" type="line"/>
      <point x="160" y="1352" type="line"/>
      <point x="160" y="624" type="line" smooth="yes"/>
      <point x="160" y="170"/>
      <point x="363" y="-16"/>
    </contour>
  </outline>
</glyph>
<glyph name="uogonek" format="1">
  <advance width="1324"/>
  <unicode hex="0173"/>
  <outline>
    <contour>
      <point x="730" y="-305" type="curve" smooth="yes"/>
      <point x="730" y="-438"/>
      <point x="844" y="-513"/>
      <point x="1003" y="-513" type="curve" smooth="yes"/>
      <point x="1087" y="-513"/>
      <point x="1194" y="-488"/>
      <point x="1251" y="-445" type="curve"/>
      <point x="1251" y="-304" type="line"/>
      <point x="1206" y="-322"/>
      <point x="1177" y="-330"/>
      <point x="1130" y="-330" type="curve" smooth="yes"/>
      <point x="1048" y="-330"/>
      <point x="996" y="-286"/>
      <point x="996" y="-216" type="curve" smooth="yes"/>
      <point x="996" y="-151"/>
      <point x="1069" y="-58"/>
      <point x="1202" y="-4" type="curve"/>
      <point x="1230" y="1"/>
      <point x="1254" y="7"/>
      <point x="1272" y="12" type="curve"/>
      <point x="1272" y="141" type="line"/>
      <point x="1163" y="141" type="line"/>
      <point x="1163" y="1135" type="line"/>
      <point x="1109" y="1163" type="line"/>
      <point x="1105" y="1163" type="line"/>
      <point x="712" y="1135" type="line"/>
      <point x="712" y="1010" type="line"/>
      <point x="839" y="976" type="line"/>
      <point x="839" y="234" type="line"/>
      <point x="807" y="208"/>
      <point x="743" y="162"/>
      <point x="645" y="162" type="curve" smooth="yes"/>
      <point x="528" y="162"/>
      <point x="489" y="222"/>
      <point x="489" y="404" type="curve" smooth="yes"/>
      <point x="489" y="1135" type="line"/>
      <point x="443" y="1163" type="line"/>
      <point x="441" y="1163" type="line"/>
      <point x="67" y="1134" type="line"/>
      <point x="67" y="1008" type="line"/>
      <point x="165" y="976" type="line"/>
      <point x="165" y="411" type="line" smooth="yes"/>
      <point x="165" y="96"/>
      <point x="275" y="-23"/>
      <point x="535" y="-23" type="curve" smooth="yes"/>
      <point x="674" y="-23"/>
      <point x="814" y="62"/>
      <point x="876" y="140" type="curve"/>
      <point x="876" y="103" type="line" smooth="yes"/>
      <point x="876" y="29"/>
      <point x="911" y="-14"/>
      <point x="991" y="-22" type="curve"/>
      <point x="837" y="-87"/>
      <point x="730" y="-202"/>
    </contour>
  </outline>
</glyph>
<glyph name="Schwa" format="1">
  <advance width="1413"/>
  <unicode hex="018F"/>
  <outline>
    <contour>
      <point x="661" y="-23" type="curve" smooth="yes"/>
      <point x="1062" y="-23"/>
      <point x="1362" y="272"/>
      <point x="1362" y="774" type="curve" smooth="yes"/>
      <point x="1362" y="1261"/>
      <point x="1090" y="1538"/>
      <point x="700" y="1538" type="curve" smooth="yes"/>
      <point x="414" y="1538"/>
      <point x="266" y="1464"/>
      <point x="151" y="1459" type="curve"/>
      <point x="148" y="1131" type="line"/>
      <point x="371" y="1122" type="line"/>
      <point x="411" y="1259" type="line"/>
      <point x="454" y="1332"/>
      <point x="500" y="1399"/>
      <point x="664" y="1399" type="curve" smooth="yes"/>
      <point x="864" y="1399"/>
      <point x="1002" y="1177"/>
      <point x="1015" y="819" type="curve"/>
      <point x="106" y="820" type="line"/>
      <point x="94" y="770"/>
      <point x="88" y="663"/>
      <point x="88" y="573" type="curve"/>
      <point x="96" y="162"/>
      <point x="354" y="-23"/>
    </contour>
    <contour>
      <point x="711" y="140" type="curve" smooth="yes"/>
      <point x="492" y="140"/>
      <point x="428" y="375"/>
      <point x="428" y="554" type="curve" smooth="yes"/>
      <point x="428" y="595"/>
      <point x="428" y="624"/>
      <point x="431" y="661" type="curve"/>
      <point x="1019" y="660" type="line"/>
      <point x="1014" y="293"/>
      <point x="902" y="140"/>
    </contour>
  </outline>
</glyph>
<glyph name="schwa" format="1">
  <advance width="1119"/>
  <unicode hex="0259"/>
  <outline>
    <contour>
      <point x="511" y="1167" type="curve" smooth="yes"/>
      <point x="323" y="1167"/>
      <point x="141" y="1072"/>
      <point x="78" y="1003" type="curve"/>
      <point x="131" y="881" type="line"/>
      <point x="191" y="918"/>
      <point x="316" y="964"/>
      <point x="424" y="964" type="curve" smooth="yes"/>
      <point x="594" y="964"/>
      <point x="704" y="866"/>
      <point x="716" y="601" type="curve"/>
      <point x="77" y="601" type="line"/>
      <point x="69" y="550"/>
      <point x="61" y="483"/>
      <point x="63" y="390" type="curve" smooth="yes"/>
      <point x="69" y="128"/>
      <point x="217" y="-23"/>
      <point x="498" y="-23" type="curve" smooth="yes"/>
      <point x="829" y="-23"/>
      <point x="1050" y="200"/>
      <point x="1050" y="574" type="curve" smooth="yes"/>
      <point x="1050" y="922"/>
      <point x="890" y="1167"/>
    </contour>
    <contour>
      <point x="538" y="117" type="curve" smooth="yes"/>
      <point x="416" y="117"/>
      <point x="384" y="234"/>
      <point x="384" y="385" type="curve" smooth="yes"/>
      <point x="384" y="404"/>
      <point x="385" y="445"/>
      <point x="387" y="464" type="curve"/>
      <point x="716" y="464" type="line"/>
      <point x="708" y="175"/>
      <point x="639" y="117"/>
    </contour>
    <contour>
      <point x="561" y="-170" type="move" name="btm"/>
    </contour>
    <contour>
      <point x="568" y="1700" type="move" name="top"/>
    </contour>
  </outline>
</glyph>
<glyph name="uni02C9" format="1">
  <advance width="1345"/>
  <unicode hex="02C9"/>
  <outline>
    <contour>
      <point x="230" y="1800" type="line"/>
      <point x="1115" y="1800" type="line"/>
      <point x="1115" y="2006" type="line"/>
      <point x="230" y="2006" type="line"/>
    </contour>
  </outline>
</glyph>
<glyph name="afii10051" format="1">
  <advance width="1808"/>
  <unicode hex="0402"/>
  <outline>
    <contour>
      <point x="1018" y="-238" type="curve"/>
      <point x="1031" y="-389" type="line"/>
      <point x="1060" y="-400"/>
      <point x="1126" y="-418"/>
      <point x="1207" y="-418" type="curve" smooth="yes"/>
      <point x="1541" y="-418"/>
      <point x="1755" y="-114"/>
      <point x="1755" y="354" type="curve" smooth="yes"/>
      <point x="1755" y="716"/>
      <point x="1586" y="881"/>
      <point x="1241" y="881" type="curve" smooth="yes"/>
      <point x="1119" y="881"/>
      <point x="969" y="828"/>
      <point x="915" y="794" type="curve" smooth="yes"/>
      <point x="914" y="793" type="line"/>
      <point x="914" y="1376" type="line"/>
      <point x="1245" y="1357" type="line"/>
      <point x="1307" y="1030" type="line"/>
      <point x="1496" y="1030" type="line"/>
      <point x="1474" y="1522" type="line"/>
      <point x="79" y="1522" type="line"/>
      <point x="52" y="1030" type="line"/>
      <point x="239" y="1030" type="line"/>
      <point x="304" y="1357" type="line"/>
      <point x="575" y="1376" type="line"/>
      <point x="575" y="167" type="line"/>
      <point x="304" y="138" type="line"/>
      <point x="304" y="0" type="line"/>
      <point x="1155" y="0" type="line"/>
      <point x="1155" y="138" type="line"/>
      <point x="914" y="167" type="line"/>
      <point x="914" y="640" type="line"/>
      <point x="915" y="640" type="line"/>
      <point x="970" y="674"/>
      <point x="1048" y="707"/>
      <point x="1162" y="707" type="curve" smooth="yes"/>
      <point x="1341" y="707"/>
      <point x="1407" y="586"/>
      <point x="1407" y="305" type="curve" smooth="yes"/>
      <point x="1407" y="-65"/>
      <point x="1332" y="-253"/>
      <point x="1157" y="-253" type="curve" smooth="yes"/>
      <point x="1075" y="-253"/>
      <point x="1041" y="-244"/>
    </contour>
    <contour>
      <point x="686" y="-170" type="move" name="btm"/>
    </contour>
    <contour>
      <point x="686" y="1700" type="move" name="top"/>
    </contour>
  </outline>
</glyph>
<glyph name="afii10053" format="1">
  <advance width="1375"/>
  <unicode hex="0404"/>
  <outline>
    <contour>
      <point x="1013" y="671" type="curve"/>
      <point x="1013" y="882" type="line"/>
      <point x="968" y="881"/>
      <point x="576" y="869"/>
      <point x="434" y="866" type="curve"/>
      <point x="452" y="1226"/>
      <point x="603" y="1399"/>
      <point x="815" y="1399" type="curve" smooth="yes"/>
      <point x="926" y="1399"/>
      <point x="966" y="1371"/>
      <point x="992" y="1338" type="curve"/>
      <point x="1053" y="1073" type="line"/>
      <point x="1272" y="1073" type="line"/>
      <point x="1296" y="1474" type="line"/>
      <point x="1200" y="1487"/>
      <point x="1042" y="1538"/>
      <point x="847" y="1538" type="curve" smooth="yes"/>
      <point x="377" y="1538"/>
      <point x="55" y="1236"/>
      <point x="55" y="754" type="curve" smooth="yes"/>
      <point x="55" y="292"/>
      <point x="305" y="-23"/>
      <point x="781" y="-23" type="curve" smooth="yes"/>
      <point x="1052" y="-23"/>
      <point x="1162" y="48"/>
      <point x="1277" y="56" type="curve"/>
      <point x="1296" y="399" type="line"/>
      <point x="1109" y="408" type="line"/>
      <point x="1019" y="185" type="line"/>
      <point x="990" y="150"/>
      <point x="936" y="119"/>
      <point x="807" y="119" type="curve" smooth="yes"/>
      <point x="576" y="119"/>
      <point x="458" y="378"/>
      <point x="436" y="685" type="curve"/>
      <point x="579" y="683"/>
      <point x="969" y="673"/>
    </contour>
    <contour>
      <point x="776" y="0" type="move" name="btm"/>
    </contour>
    <contour>
      <point x="646" y="1700" type="move" name="top"/>
    </contour>
  </outline>
</glyph>
<glyph name="afii10058" format="1">
  <advance width="2138"/>
  <unicode hex="0409"/>
  <outline>
    <contour>
      <point x="1176" y="0" type="line" smooth="yes"/>
      <point x="1261" y="0"/>
      <point x="1522" y="-16"/>
      <point x="1571" y="-16" type="curve" smooth="yes"/>
      <point x="1902" y="-16"/>
      <point x="2109" y="152"/>
      <point x="2109" y="450" type="curve" smooth="yes"/>
      <point x="2109" y="714"/>
      <point x="1935" y="867"/>
      <point x="1588" y="867" type="curve" smooth="yes"/>
      <point x="1518" y="867"/>
      <point x="1361" y="854"/>
      <point x="1333" y="848" type="curve"/>
      <point x="1331" y="844" type="line"/>
      <point x="1331" y="1352" type="line"/>
      <point x="1520" y="1381" type="line"/>
      <point x="1520" y="1522" type="line"/>
      <point x="1333" y="1522" type="line"/>
      <point x="1331" y="1517" type="line"/>
      <point x="1331" y="1522" type="line"/>
      <point x="248" y="1522" type="line"/>
      <point x="248" y="1381" type="line"/>
      <point x="473" y="1355" type="line"/>
      <point x="473" y="1210" type="line" smooth="yes"/>
      <point x="473" y="641"/>
      <point x="417" y="425"/>
      <point x="352" y="286" type="curve" smooth="yes"/>
      <point x="317" y="213"/>
      <point x="278" y="193"/>
      <point x="221" y="193" type="curve" smooth="yes"/>
      <point x="141" y="193"/>
      <point x="101" y="197"/>
      <point x="57" y="200" type="curve"/>
      <point x="80" y="-1" type="line"/>
      <point x="116" y="-8"/>
      <point x="176" y="-14"/>
      <point x="237" y="-14" type="curve" smooth="yes"/>
      <point x="352" y="-14"/>
      <point x="431" y="40"/>
      <point x="490" y="152" type="curve" smooth="yes"/>
      <point x="585" y="334"/>
      <point x="638" y="719"/>
      <point x="638" y="1201" type="curve" smooth="yes"/>
      <point x="638" y="1352" type="line"/>
      <point x="999" y="1352" type="line"/>
      <point x="1000" y="160" type="line"/>
      <point x="783" y="134" type="line"/>
      <point x="783" y="0" type="line"/>
    </contour>
    <contour>
      <point x="1333" y="704" type="line"/>
      <point x="1354" y="708"/>
      <point x="1451" y="713"/>
      <point x="1490" y="713" type="curve" smooth="yes"/>
      <point x="1667" y="713"/>
      <point x="1759" y="629"/>
      <point x="1759" y="428" type="curve" smooth="yes"/>
      <point x="1759" y="256"/>
      <point x="1685" y="125"/>
      <point x="1478" y="125" type="curve" smooth="yes"/>
      <point x="1404" y="125"/>
      <point x="1367" y="134"/>
      <point x="1333" y="145" type="curve"/>
      <point x="1331" y="143" type="line"/>
      <point x="1331" y="705" type="line"/>
    </contour>
    <contour>
      <point x="672" y="-170" type="move" name="btm"/>
    </contour>
    <contour>
      <point x="672" y="1700" type="move" name="top"/>
    </contour>
  </outline>
</glyph>
<glyph name="afii10059" format="1">
  <advance width="2263"/>
  <unicode hex="040A"/>
  <outline>
    <contour>
      <point x="949" y="0" type="line"/>
      <point x="1272" y="0" type="line" smooth="yes"/>
      <point x="1357" y="0"/>
      <point x="1636" y="-19"/>
      <point x="1697" y="-19" type="curve" smooth="yes"/>
      <point x="2007" y="-19"/>
      <point x="2222" y="137"/>
      <point x="2222" y="450" type="curve" smooth="yes"/>
      <point x="2222" y="714"/>
      <point x="2025" y="869"/>
      <point x="1702" y="869" type="curve" smooth="yes"/>
      <point x="1448" y="869" type="line"/>
      <point x="1448" y="1357" type="line"/>
      <point x="1607" y="1389" type="line"/>
      <point x="1607" y="1522" type="line"/>
      <point x="950" y="1522" type="line"/>
      <point x="950" y="1389" type="line"/>
      <point x="1113" y="1357" type="line"/>
      <point x="1112" y="857" type="line"/>
      <point x="569" y="857" type="line"/>
      <point x="569" y="1353" type="line"/>
      <point x="740" y="1381" type="line"/>
      <point x="740" y="1522" type="line"/>
      <point x="81" y="1522" type="line"/>
      <point x="81" y="1381" type="line"/>
      <point x="233" y="1353" type="line"/>
      <point x="233" y="159" type="line"/>
      <point x="77" y="134" type="line"/>
      <point x="77" y="0" type="line"/>
      <point x="740" y="0" type="line"/>
      <point x="740" y="138" type="line"/>
      <point x="569" y="165" type="line"/>
      <point x="569" y="696" type="line"/>
      <point x="1112" y="696" type="line"/>
      <point x="1112" y="166" type="line"/>
      <point x="949" y="138" type="line"/>
    </contour>
    <contour>
      <point x="1605" y="719" type="line" smooth="yes"/>
      <point x="1781" y="719"/>
      <point x="1874" y="635"/>
      <point x="1874" y="431" type="curve" smooth="yes"/>
      <point x="1874" y="257"/>
      <point x="1800" y="125"/>
      <point x="1594" y="125" type="curve" smooth="yes"/>
      <point x="1531" y="125"/>
      <point x="1483" y="138"/>
      <point x="1448" y="146" type="curve"/>
      <point x="1448" y="719" type="line"/>
    </contour>
    <contour>
      <point x="831" y="-170" type="move" name="btm"/>
    </contour>
    <contour>
      <point x="831" y="1700" type="move" name="top"/>
    </contour>
  </outline>
</glyph>
<glyph name="afii10060" format="1">
  <advance width="1888"/>
  <unicode hex="040B"/>
  <outline>
    <contour>
      <point x="926" y="791" type="curve"/>
      <point x="925" y="789" type="line"/>
      <point x="925" y="1374" type="line"/>
      <point x="1247" y="1355" type="line"/>
      <point x="1320" y="1030" type="line"/>
      <point x="1499" y="1030" type="line"/>
      <point x="1478" y="1522" type="line"/>
      <point x="77" y="1522" type="line"/>
      <point x="49" y="1030" type="line"/>
      <point x="237" y="1030" type="line"/>
      <point x="302" y="1357" type="line"/>
      <point x="585" y="1375" type="line"/>
      <point x="585" y="160" type="line"/>
      <point x="332" y="134" type="line"/>
      <point x="332" y="0" type="line"/>
      <point x="1111" y="0" type="line"/>
      <point x="1111" y="134" type="line"/>
      <point x="925" y="160" type="line"/>
      <point x="925" y="638" type="line"/>
      <point x="926" y="638" type="line"/>
      <point x="996" y="666"/>
      <point x="1063" y="698"/>
      <point x="1198" y="698" type="curve" smooth="yes"/>
      <point x="1372" y="698"/>
      <point x="1404" y="614"/>
      <point x="1404" y="346" type="curve" smooth="yes"/>
      <point x="1404" y="160" type="line"/>
      <point x="1277" y="134" type="line"/>
      <point x="1277" y="0" type="line"/>
      <point x="1884" y="0" type="line"/>
      <point x="1884" y="134" type="line"/>
      <point x="1739" y="159" type="line"/>
      <point x="1739" y="425" type="line" smooth="yes"/>
      <point x="1739" y="778"/>
      <point x="1612" y="881"/>
      <point x="1284" y="881" type="curve" smooth="yes"/>
      <point x="1162" y="881"/>
      <point x="1027" y="842"/>
    </contour>
    <contour>
      <point x="756" y="-170" type="move" name="btm"/>
    </contour>
    <contour>
      <point x="756" y="1700" type="move" name="top"/>
    </contour>
  </outline>
</glyph>
<glyph name="afii10145" format="1">
  <advance width="1676"/>
  <unicode hex="040F"/>
  <outline>
    <contour>
      <point x="1605" y="0" type="line"/>
      <point x="1605" y="134" type="line"/>
      <point x="1442" y="160" type="line"/>
      <point x="1442" y="1352" type="line"/>
      <point x="1598" y="1381" type="line"/>
      <point x="1598" y="1522" type="line"/>
      <point x="935" y="1522" type="line"/>
      <point x="935" y="1381" type="line"/>
      <point x="1107" y="1353" type="line"/>
      <point x="1107" y="146" type="line"/>
      <point x="569" y="146" type="line"/>
      <point x="569" y="1353" type="line"/>
      <point x="750" y="1381" type="line"/>
      <point x="750" y="1522" type="line"/>
      <point x="76" y="1522" type="line"/>
      <point x="76" y="1381" type="line"/>
      <point x="233" y="1353" type="line"/>
      <point x="233" y="161" type="line"/>
      <point x="70" y="134" type="line"/>
      <point x="70" y="0" type="line"/>
      <point x="683" y="0" type="line"/>
      <point x="697" y="-18"/>
      <point x="742" y="-313"/>
      <point x="742" y="-410" type="curve"/>
      <point x="943" y="-410" type="line"/>
      <point x="943" y="-313"/>
      <point x="985" y="-18"/>
      <point x="999" y="0" type="curve"/>
    </contour>
    <contour>
      <point x="863" y="-170" type="move" name="btm"/>
    </contour>
    <contour>
      <point x="841" y="1700" type="move" name="top"/>
    </contour>
  </outline>
</glyph>
<glyph name="Ge-cy" format="1">
  <advance width="1223"/>
  <unicode hex="0413"/>
  <outline>
    <contour>
      <point x="610" y="1374" type="line"/>
      <point x="948" y="1353" type="line"/>
      <point x="1022" y="929" type="line"/>
      <point x="1219" y="929" type="line"/>
      <point x="1194" y="1522" type="line"/>
      <point x="53" y="1522" type="line"/>
      <point x="53" y="1384" type="line"/>
      <point x="271" y="1351" type="line"/>
      <point x="271" y="161" type="line"/>
      <point x="49" y="134" type="line"/>
      <point x="49" y="0" type="line"/>
      <point x="927" y="0" type="line"/>
      <point x="927" y="134" type="line"/>
      <point x="610" y="161" type="line"/>
    </contour>
    <contour>
      <point x="669" y="-170" type="move" name="btm"/>
    </contour>
    <contour>
      <point x="453" y="1700" type="move" name="top"/>
    </contour>
  </outline>
</glyph>
<glyph name="Zhe-cy" format="1">
  <advance width="2174"/>
  <unicode hex="0416"/>
  <outline>
    <contour>
      <point x="2173" y="0" type="line"/>
      <point x="2173" y="134" type="line"/>
      <point x="2090" y="160" type="line"/>
      <point x="1986" y="196"/>
      <point x="1843" y="730"/>
      <point x="1584" y="814" type="curve"/>
      <point x="1968" y="1353" type="line"/>
      <point x="2140" y="1381" type="line"/>
      <point x="2140" y="1522" type="line"/>
      <point x="1585" y="1522" type="line"/>
      <point x="1585" y="1381" type="line"/>
      <point x="1721" y="1352" type="line"/>
      <point x="1391" y="825" type="line"/>
      <point x="1250" y="825" type="line"/>
      <point x="1250" y="1353" type="line"/>
      <point x="1412" y="1381" type="line"/>
      <point x="1412" y="1522" type="line"/>
      <point x="763" y="1522" type="line"/>
      <point x="763" y="1381" type="line"/>
      <point x="925" y="1353" type="line"/>
      <point x="925" y="825" type="line"/>
      <point x="785" y="825" type="line"/>
      <point x="453" y="1353" type="line"/>
      <point x="591" y="1381" type="line"/>
      <point x="591" y="1522" type="line"/>
      <point x="40" y="1522" type="line"/>
      <point x="40" y="1381" type="line"/>
      <point x="207" y="1353" type="line"/>
      <point x="591" y="814" type="line"/>
      <point x="332" y="731"/>
      <point x="189" y="196"/>
      <point x="86" y="160" type="curve"/>
      <point x="2" y="134" type="line"/>
      <point x="2" y="0" type="line"/>
      <point x="359" y="0" type="line" smooth="yes"/>
      <point x="524" y="0"/>
      <point x="655" y="699"/>
      <point x="858" y="699" type="curve" smooth="yes"/>
      <point x="925" y="699" type="line"/>
      <point x="925" y="161" type="line"/>
      <point x="754" y="134" type="line"/>
      <point x="754" y="0" type="line"/>
      <point x="1425" y="0" type="line"/>
      <point x="1425" y="132" type="line"/>
      <point x="1250" y="160" type="line"/>
      <point x="1250" y="699" type="line"/>
      <point x="1318" y="699" type="line" smooth="yes"/>
      <point x="1521" y="699"/>
      <point x="1651" y="0"/>
      <point x="1816" y="0" type="curve" smooth="yes"/>
    </contour>
    <contour>
      <point x="1086" y="1700" type="move" name="top"/>
    </contour>
  </outline>
</glyph>
<glyph name="afii10025" format="1">
  <advance width="1279"/>
  <unicode hex="0417"/>
  <outline>
    <contour>
      <point x="137" y="459" type="line"/>
      <point x="87" y="73" type="line"/>
      <point x="178" y="56"/>
      <point x="321" y="-12"/>
      <point x="553" y="-12" type="curve" smooth="yes"/>
      <point x="1049" y="-12"/>
      <point x="1204" y="178"/>
      <point x="1204" y="456" type="curve" smooth="yes"/>
      <point x="1204" y="638"/>
      <point x="1080" y="797"/>
      <point x="807" y="805" type="curve"/>
      <point x="982" y="840"/>
      <point x="1166" y="955"/>
      <point x="1166" y="1190" type="curve" smooth="yes"/>
      <point x="1166" y="1426"/>
      <point x="952" y="1538"/>
      <point x="590" y="1538" type="curve" smooth="yes"/>
      <point x="436" y="1538"/>
      <point x="206" y="1480"/>
      <point x="120" y="1475" type="curve"/>
      <point x="149" y="1139" type="line"/>
      <point x="336" y="1139" type="line"/>
      <point x="384" y="1330" type="line"/>
      <point x="401" y="1368"/>
      <point x="461" y="1402"/>
      <point x="572" y="1402" type="curve" smooth="yes"/>
      <point x="704" y="1402"/>
      <point x="808" y="1335"/>
      <point x="809" y="1169" type="curve" smooth="yes"/>
      <point x="810" y="950"/>
      <point x="672" y="869"/>
      <point x="534" y="869" type="curve" smooth="yes"/>
      <point x="420" y="869" type="line"/>
      <point x="420" y="716" type="line"/>
      <point x="555" y="716" type="line"/>
      <point x="764" y="716"/>
      <point x="815" y="573"/>
      <point x="815" y="434" type="curve" smooth="yes"/>
      <point x="815" y="257"/>
      <point x="739" y="124"/>
      <point x="584" y="124" type="curve" smooth="yes"/>
      <point x="474" y="124"/>
      <point x="407" y="151"/>
      <point x="368" y="179" type="curve"/>
      <point x="295" y="459" type="line"/>
    </contour>
    <contour>
      <point x="625" y="1700" type="move" name="top"/>
    </contour>
  </outline>
</glyph>
<glyph name="afii10026" format="1">
  <advance width="1745"/>
  <unicode hex="0418"/>
  <outline>
    <contour>
      <point x="669" y="631" type="line"/>
      <point x="567" y="447" type="line"/>
      <point x="567" y="1353" type="line"/>
      <point x="741" y="1382" type="line"/>
      <point x="741" y="1522" type="line"/>
      <point x="81" y="1522" type="line"/>
      <point x="81" y="1381" type="line"/>
      <point x="233" y="1353" type="line"/>
      <point x="233" y="160" type="line"/>
      <point x="77" y="134" type="line"/>
      <point x="77" y="0" type="line"/>
      <point x="738" y="0" type="line"/>
      <point x="738" y="134" type="line"/>
      <point x="567" y="160" type="line"/>
      <point x="567" y="217" type="line"/>
      <point x="1085" y="893" type="line"/>
      <point x="1178" y="1077" type="line"/>
      <point x="1178" y="160" type="line"/>
      <point x="1014" y="134" type="line"/>
      <point x="1014" y="0" type="line"/>
      <point x="1670" y="0" type="line"/>
      <point x="1670" y="134" type="line"/>
      <point x="1512" y="160" type="line"/>
      <point x="1512" y="1353" type="line"/>
      <point x="1664" y="1381" type="line"/>
      <point x="1664" y="1522" type="line"/>
      <point x="1016" y="1522" type="line"/>
      <point x="1016" y="1381" type="line"/>
      <point x="1178" y="1353" type="line"/>
      <point x="1178" y="1310" type="line"/>
    </contour>
    <contour>
      <point x="771" y="-170" type="move" name="btm"/>
    </contour>
    <contour>
      <point x="855" y="1700" type="move" name="top"/>
    </contour>
  </outline>
</glyph>
<glyph name="El-cy" format="1">
  <advance width="1565"/>
  <unicode hex="041B"/>
  <outline>
    <contour>
      <point x="1518" y="1381" type="line"/>
      <point x="1518" y="1522" type="line"/>
      <point x="223" y="1522" type="line"/>
      <point x="223" y="1381" type="line"/>
      <point x="473" y="1352" type="line"/>
      <point x="473" y="1245" type="line" smooth="yes"/>
      <point x="473" y="629"/>
      <point x="417" y="425"/>
      <point x="352" y="286" type="curve" smooth="yes"/>
      <point x="317" y="213"/>
      <point x="278" y="193"/>
      <point x="221" y="193" type="curve" smooth="yes"/>
      <point x="141" y="193"/>
      <point x="101" y="197"/>
      <point x="57" y="200" type="curve"/>
      <point x="80" y="-1" type="line"/>
      <point x="116" y="-8"/>
      <point x="176" y="-14"/>
      <point x="237" y="-14" type="curve" smooth="yes"/>
      <point x="352" y="-14"/>
      <point x="432" y="36"/>
      <point x="492" y="148" type="curve"/>
      <point x="586" y="330"/>
      <point x="638" y="719"/>
      <point x="638" y="1201" type="curve" smooth="yes"/>
      <point x="638" y="1352" type="line"/>
      <point x="999" y="1352" type="line"/>
      <point x="1000" y="160" type="line"/>
      <point x="783" y="134" type="line"/>
      <point x="783" y="0" type="line"/>
      <point x="1534" y="0" type="line"/>
      <point x="1534" y="134" type="line"/>
      <point x="1331" y="159" type="line"/>
      <point x="1331" y="1352" type="line"/>
    </contour>
    <contour>
      <point x="623" y="-170" type="move" name="btm"/>
    </contour>
    <contour>
      <point x="623" y="1700" type="move" name="top"/>
    </contour>
  </outline>
</glyph>
<glyph name="Pe-cy" format="1">
  <advance width="1656"/>
  <unicode hex="041F"/>
  <outline>
    <contour>
      <point x="77" y="0" type="line"/>
      <point x="735" y="0" type="line"/>
      <point x="735" y="134" type="line"/>
      <point x="569" y="160" type="line"/>
      <point x="569" y="1368" type="line"/>
      <point x="1087" y="1368" type="line"/>
      <point x="1087" y="160" type="line"/>
      <point x="939" y="134" type="line"/>
      <point x="939" y="0" type="line"/>
      <point x="1596" y="0" type="line"/>
      <point x="1596" y="134" type="line"/>
      <point x="1423" y="160" type="line"/>
      <point x="1423" y="1353" type="line"/>
      <point x="1584" y="1382" type="line"/>
      <point x="1584" y="1522" type="line"/>
      <point x="73" y="1522" type="line"/>
      <point x="73" y="1381" type="line"/>
      <point x="233" y="1353" type="line"/>
      <point x="233" y="160" type="line"/>
      <point x="77" y="134" type="line"/>
    </contour>
    <contour>
      <point x="811" y="-170" type="move" name="btm"/>
    </contour>
    <contour>
      <point x="811" y="1700" type="move" name="top"/>
    </contour>
  </outline>
</glyph>
<glyph name="afii10037" format="1">
  <advance width="1322"/>
  <unicode hex="0423"/>
  <outline>
    <contour>
      <point x="464" y="-23" type="curve" smooth="yes"/>
      <point x="710" y="-23"/>
      <point x="788" y="165"/>
      <point x="855" y="329" type="curve"/>
      <point x="1250" y="1352" type="line"/>
      <point x="1361" y="1381" type="line"/>
      <point x="1361" y="1522" type="line"/>
      <point x="897" y="1522" type="line"/>
      <point x="897" y="1381" type="line"/>
      <point x="1040" y="1354" type="line"/>
      <point x="826" y="716" type="line"/>
      <point x="774" y="555" type="line"/>
      <point x="723" y="714" type="line"/>
      <point x="474" y="1352" type="line"/>
      <point x="646" y="1381" type="line"/>
      <point x="646" y="1522" type="line"/>
      <point x="-12" y="1522" type="line"/>
      <point x="-12" y="1381" type="line"/>
      <point x="103" y="1353" type="line"/>
      <point x="570" y="313" type="line"/>
      <point x="545" y="219"/>
      <point x="509" y="201"/>
      <point x="377" y="201" type="curve" smooth="yes"/>
      <point x="228" y="201" type="line"/>
      <point x="228" y="15" type="line"/>
      <point x="275" y="-7"/>
      <point x="381" y="-23"/>
    </contour>
    <contour>
      <point x="653" y="-170" type="move" name="btm"/>
    </contour>
    <contour>
      <point x="653" y="1700" type="move" name="top"/>
    </contour>
  </outline>
</glyph>
<glyph name="afii10040" format="1">
  <advance width="1683"/>
  <unicode hex="0426"/>
  <outline>
    <contour>
      <point x="1428" y="-406" type="curve"/>
      <point x="1612" y="-406" type="line"/>
      <point x="1619" y="-381"/>
      <point x="1668" y="63"/>
      <point x="1668" y="160" type="curve"/>
      <point x="1419" y="160" type="line"/>
      <point x="1419" y="1353" type="line"/>
      <point x="1576" y="1381" type="line"/>
      <point x="1576" y="1522" type="line"/>
      <point x="935" y="1522" type="line"/>
      <point x="935" y="1381" type="line"/>
      <point x="1084" y="1353" type="line"/>
      <point x="1084" y="148" type="line"/>
      <point x="569" y="148" type="line"/>
      <point x="569" y="1352" type="line"/>
      <point x="750" y="1381" type="line"/>
      <point x="750" y="1522" type="line"/>
      <point x="76" y="1522" type="line"/>
      <point x="76" y="1381" type="line"/>
      <point x="233" y="1353" type="line"/>
      <point x="233" y="160" type="line"/>
      <point x="62" y="134" type="line"/>
      <point x="62" y="0" type="line"/>
      <point x="1371" y="0" type="line"/>
      <point x="1391" y="-45"/>
      <point x="1426" y="-343"/>
    </contour>
    <contour>
      <point x="790" y="-170" type="move" name="btm"/>
    </contour>
    <contour>
      <point x="790" y="1700" type="move" name="top"/>
    </contour>
  </outline>
</glyph>
<glyph name="afii10041" format="1">
  <advance width="1507"/>
  <unicode hex="0427"/>
  <outline>
    <contour>
      <point x="728" y="0" type="line"/>
      <point x="1436" y="0" type="line"/>
      <point x="1436" y="132" type="line"/>
      <point x="1273" y="160" type="line"/>
      <point x="1273" y="1353" type="line"/>
      <point x="1436" y="1381" type="line"/>
      <point x="1436" y="1522" type="line"/>
      <point x="778" y="1522" type="line"/>
      <point x="778" y="1381" type="line"/>
      <point x="937" y="1354" type="line"/>
      <point x="937" y="810" type="line"/>
      <point x="887" y="767"/>
      <point x="796" y="741"/>
      <point x="703" y="741" type="curve" smooth="yes"/>
      <point x="523" y="741"/>
      <point x="477" y="777"/>
      <point x="477" y="1096" type="curve" smooth="yes"/>
      <point x="477" y="1350" type="line"/>
      <point x="618" y="1380" type="line"/>
      <point x="618" y="1522" type="line"/>
      <point x="24" y="1522" type="line"/>
      <point x="24" y="1380" type="line"/>
      <point x="141" y="1350" type="line"/>
      <point x="141" y="1018" type="line" smooth="yes"/>
      <point x="141" y="654"/>
      <point x="310" y="556"/>
      <point x="599" y="556" type="curve" smooth="yes"/>
      <point x="716" y="556"/>
      <point x="851" y="587"/>
      <point x="937" y="648" type="curve"/>
      <point x="937" y="161" type="line"/>
      <point x="728" y="134" type="line"/>
    </contour>
    <contour>
      <point x="703" y="-170" type="move" name="btm"/>
    </contour>
    <contour>
      <point x="674" y="1700" type="move" name="top"/>
    </contour>
  </outline>
</glyph>
<glyph name="Sha-cy" format="1">
  <advance width="2356"/>
  <unicode hex="0428"/>
  <outline>
    <contour>
      <point x="727" y="1381" type="line"/>
      <point x="727" y="1522" type="line"/>
      <point x="76" y="1522" type="line"/>
      <point x="76" y="1381" type="line"/>
      <point x="233" y="1354" type="line"/>
      <point x="233" y="161" type="line"/>
      <point x="62" y="134" type="line"/>
      <point x="62" y="0" type="line"/>
      <point x="2293" y="0" type="line"/>
      <point x="2293" y="134" type="line"/>
      <point x="2122" y="161" type="line"/>
      <point x="2122" y="1353" type="line"/>
      <point x="2279" y="1381" type="line"/>
      <point x="2279" y="1522" type="line"/>
      <point x="1645" y="1522" type="line"/>
      <point x="1645" y="1381" type="line"/>
      <point x="1788" y="1353" type="line"/>
      <point x="1788" y="160" type="line"/>
      <point x="1348" y="160" type="line"/>
      <point x="1348" y="1353" type="line"/>
      <point x="1495" y="1381" type="line"/>
      <point x="1495" y="1522" type="line"/>
      <point x="872" y="1522" type="line"/>
      <point x="872" y="1381" type="line"/>
      <point x="1015" y="1354" type="line"/>
      <point x="1015" y="160" type="line"/>
      <point x="569" y="160" type="line"/>
      <point x="569" y="1353" type="line"/>
    </contour>
    <contour>
      <point x="765" y="-170" type="move" name="btm"/>
    </contour>
    <contour>
      <point x="765" y="1700" type="move" name="top"/>
    </contour>
  </outline>
</glyph>
<glyph name="Shcha-cy" format="1">
  <advance width="2399"/>
  <unicode hex="0429"/>
  <outline>
    <contour>
      <point x="62" y="0" type="line"/>
      <point x="2080" y="0" type="line"/>
      <point x="2100" y="-45"/>
      <point x="2136" y="-343"/>
      <point x="2137" y="-406" type="curve"/>
      <point x="2322" y="-406" type="line"/>
      <point x="2329" y="-381"/>
      <point x="2378" y="63"/>
      <point x="2378" y="160" type="curve"/>
      <point x="2131" y="160" type="line"/>
      <point x="2122" y="160" type="line"/>
      <point x="2122" y="1353" type="line"/>
      <point x="2279" y="1381" type="line"/>
      <point x="2279" y="1522" type="line"/>
      <point x="1645" y="1522" type="line"/>
      <point x="1645" y="1381" type="line"/>
      <point x="1788" y="1353" type="line"/>
      <point x="1788" y="160" type="line"/>
      <point x="1348" y="160" type="line"/>
      <point x="1348" y="1353" type="line"/>
      <point x="1495" y="1381" type="line"/>
      <point x="1495" y="1522" type="line"/>
      <point x="872" y="1522" type="line"/>
      <point x="872" y="1381" type="line"/>
      <point x="1015" y="1354" type="line"/>
      <point x="1015" y="160" type="line"/>
      <point x="569" y="160" type="line"/>
      <point x="569" y="1353" type="line"/>
      <point x="727" y="1381" type="line"/>
      <point x="727" y="1522" type="line"/>
      <point x="76" y="1522" type="line"/>
      <point x="76" y="1381" type="line"/>
      <point x="233" y="1354" type="line"/>
      <point x="233" y="161" type="line"/>
      <point x="62" y="134" type="line"/>
    </contour>
    <contour>
      <point x="790" y="-170" type="move" name="btm"/>
    </contour>
    <contour>
      <point x="790" y="1700" type="move" name="top"/>
    </contour>
  </outline>
</glyph>
<glyph name="afii10044" format="1">
  <advance width="1744"/>
  <unicode hex="042A"/>
  <outline>
    <contour>
      <point x="768" y="0" type="line" smooth="yes"/>
      <point x="853" y="0"/>
      <point x="1115" y="-16"/>
      <point x="1164" y="-16" type="curve" smooth="yes"/>
      <point x="1496" y="-16"/>
      <point x="1706" y="158"/>
      <point x="1706" y="470" type="curve" smooth="yes"/>
      <point x="1706" y="746"/>
      <point x="1535" y="906"/>
      <point x="1168" y="906" type="curve" smooth="yes"/>
      <point x="924" y="906" type="line"/>
      <point x="924" y="1352" type="line"/>
      <point x="1136" y="1386" type="line"/>
      <point x="1136" y="1522" type="line"/>
      <point x="87" y="1522" type="line"/>
      <point x="54" y="935" type="line"/>
      <point x="252" y="935" type="line"/>
      <point x="326" y="1357" type="line"/>
      <point x="585" y="1376" type="line"/>
      <point x="585" y="161" type="line"/>
      <point x="299" y="134" type="line"/>
      <point x="299" y="0" type="line"/>
    </contour>
    <contour>
      <point x="1084" y="752" type="line" smooth="yes"/>
      <point x="1260" y="752"/>
      <point x="1356" y="663"/>
      <point x="1356" y="448" type="curve" smooth="yes"/>
      <point x="1356" y="262"/>
      <point x="1278" y="125"/>
      <point x="1072" y="125" type="curve" smooth="yes"/>
      <point x="1000" y="125"/>
      <point x="960" y="133"/>
      <point x="924" y="144" type="curve"/>
      <point x="924" y="752" type="line"/>
    </contour>
    <contour>
      <point x="844" y="-170" type="move" name="btm"/>
    </contour>
    <contour>
      <point x="844" y="1700" type="move" name="top"/>
    </contour>
  </outline>
</glyph>
<glyph name="afii10046" format="1">
  <advance width="1379"/>
  <unicode hex="042C"/>
  <outline>
    <contour>
      <point x="382" y="0" type="line" smooth="yes"/>
      <point x="532" y="0"/>
      <point x="689" y="-16"/>
      <point x="801" y="-16" type="curve" smooth="yes"/>
      <point x="1110" y="-16"/>
      <point x="1349" y="162"/>
      <point x="1349" y="475" type="curve" smooth="yes"/>
      <point x="1349" y="750"/>
      <point x="1175" y="918"/>
      <point x="828" y="918" type="curve"/>
      <point x="570" y="919" type="line"/>
      <point x="570" y="1356" type="line"/>
      <point x="786" y="1389" type="line"/>
      <point x="786" y="1522" type="line"/>
      <point x="80" y="1522" type="line"/>
      <point x="80" y="1389" type="line"/>
      <point x="234" y="1358" type="line"/>
      <point x="233" y="157" type="line"/>
      <point x="76" y="134" type="line"/>
      <point x="76" y="0" type="line"/>
    </contour>
    <contour>
      <point x="729" y="769" type="line"/>
      <point x="905" y="769"/>
      <point x="997" y="671"/>
      <point x="997" y="456" type="curve" smooth="yes"/>
      <point x="997" y="270"/>
      <point x="923" y="125"/>
      <point x="717" y="125" type="curve" smooth="yes"/>
      <point x="645" y="125"/>
      <point x="605" y="133"/>
      <point x="570" y="144" type="curve"/>
      <point x="570" y="768" type="line"/>
    </contour>
    <contour>
      <point x="654" y="1700" type="move" name="top"/>
    </contour>
  </outline>
</glyph>
<glyph name="afii10048" format="1">
  <advance width="2267"/>
  <unicode hex="042E"/>
  <outline>
    <contour>
      <point x="1523" y="-19" type="curve" smooth="yes"/>
      <point x="1927" y="-19"/>
      <point x="2201" y="289"/>
      <point x="2206" y="785" type="curve"/>
      <point x="2209" y="1242"/>
      <point x="2004" y="1540"/>
      <point x="1544" y="1541" type="curve" smooth="yes"/>
      <point x="1175" y="1542"/>
      <point x="896" y="1291"/>
      <point x="853" y="862" type="curve"/>
      <point x="570" y="862" type="line"/>
      <point x="570" y="1353" type="line"/>
      <point x="731" y="1381" type="line"/>
      <point x="731" y="1522" type="line"/>
      <point x="81" y="1522" type="line"/>
      <point x="81" y="1381" type="line"/>
      <point x="233" y="1353" type="line"/>
      <point x="233" y="160" type="line"/>
      <point x="77" y="134" type="line"/>
      <point x="77" y="0" type="line"/>
      <point x="737" y="0" type="line"/>
      <point x="737" y="134" type="line"/>
      <point x="571" y="160" type="line"/>
      <point x="571" y="690" type="line"/>
      <point x="849" y="690" type="line"/>
      <point x="863" y="258"/>
      <point x="1075" y="-19"/>
    </contour>
    <contour>
      <point x="1535" y="118" type="curve" smooth="yes"/>
      <point x="1331" y="118"/>
      <point x="1218" y="334"/>
      <point x="1218" y="754" type="curve" smooth="yes"/>
      <point x="1218" y="1204"/>
      <point x="1339" y="1403"/>
      <point x="1532" y="1403" type="curve" smooth="yes"/>
      <point x="1726" y="1403"/>
      <point x="1836" y="1205"/>
      <point x="1836" y="784" type="curve" smooth="yes"/>
      <point x="1836" y="340"/>
      <point x="1733" y="118"/>
    </contour>
    <contour>
      <point x="1197" y="1700" type="move" name="top"/>
    </contour>
  </outline>
</glyph>
<glyph name="afii10049" format="1">
  <advance width="1486"/>
  <unicode hex="042F"/>
  <outline>
    <contour>
      <point x="7" y="0" type="line"/>
      <point x="382" y="0" type="line" smooth="yes"/>
      <point x="472" y="0"/>
      <point x="559" y="555"/>
      <point x="701" y="652" type="curve"/>
      <point x="770" y="651"/>
      <point x="886" y="649"/>
      <point x="916" y="650" type="curve"/>
      <point x="916" y="158" type="line"/>
      <point x="737" y="134" type="line"/>
      <point x="738" y="0" type="line"/>
      <point x="1424" y="0" type="line"/>
      <point x="1424" y="134" type="line"/>
      <point x="1252" y="159" type="line"/>
      <point x="1252" y="1353" type="line"/>
      <point x="1412" y="1381" type="line"/>
      <point x="1412" y="1522" type="line"/>
      <point x="1082" y="1522" type="line" smooth="yes"/>
      <point x="959" y="1522"/>
      <point x="885" y="1536"/>
      <point x="742" y="1536" type="curve" smooth="yes"/>
      <point x="330" y="1536"/>
      <point x="163" y="1414"/>
      <point x="163" y="1121" type="curve" smooth="yes"/>
      <point x="163" y="939"/>
      <point x="269" y="762"/>
      <point x="461" y="708" type="curve"/>
      <point x="232" y="619"/>
      <point x="183" y="185"/>
      <point x="78" y="160" type="curve"/>
      <point x="7" y="134" type="line"/>
    </contour>
    <contour>
      <point x="916" y="794" type="line"/>
      <point x="892" y="786"/>
      <point x="823" y="785"/>
      <point x="788" y="785" type="curve" smooth="yes"/>
      <point x="615" y="785"/>
      <point x="519" y="892"/>
      <point x="519" y="1119" type="curve" smooth="yes"/>
      <point x="519" y="1320"/>
      <point x="602" y="1399"/>
      <point x="771" y="1399" type="curve" smooth="yes"/>
      <point x="862" y="1399"/>
      <point x="890" y="1391"/>
      <point x="916" y="1388" type="curve"/>
    </contour>
    <contour>
      <point x="771" y="-170" type="move" name="btm"/>
    </contour>
    <contour>
      <point x="771" y="1700" type="move" name="top"/>
    </contour>
  </outline>
</glyph>
<glyph name="afii10066" format="1">
  <advance width="1207"/>
  <unicode hex="0431"/>
  <outline>
    <contour>
      <point x="607" y="-16" type="curve" smooth="yes"/>
      <point x="951" y="-16"/>
      <point x="1149" y="237"/>
      <point x="1149" y="591" type="curve" smooth="yes"/>
      <point x="1149" y="934"/>
      <point x="1044" y="1163"/>
      <point x="694" y="1163" type="curve" smooth="yes"/>
      <point x="476" y="1163"/>
      <point x="343" y="1045"/>
      <point x="307" y="1001" type="curve"/>
      <point x="323" y="1236"/>
      <point x="400" y="1317"/>
      <point x="479" y="1348" type="curve" smooth="yes"/>
      <point x="579" y="1403"/>
      <point x="767" y="1417"/>
      <point x="945" y="1423" type="curve" smooth="yes"/>
      <point x="1045" y="1429"/>
      <point x="1076" y="1481"/>
      <point x="1085" y="1588" type="curve" smooth="yes"/>
      <point x="1100" y="1778" type="line"/>
      <point x="931" y="1778" type="line"/>
      <point x="909" y="1709" type="line"/>
      <point x="894" y="1662"/>
      <point x="860" y="1650"/>
      <point x="811" y="1644" type="curve" smooth="yes"/>
      <point x="710" y="1633"/>
      <point x="525" y="1589"/>
      <point x="404" y="1516" type="curve" smooth="yes"/>
      <point x="179" y="1389"/>
      <point x="45" y="1137"/>
      <point x="45" y="771" type="curve"/>
      <point x="45" y="253"/>
      <point x="238" y="-16"/>
    </contour>
    <contour>
      <point x="608" y="118" type="curve" smooth="yes"/>
      <point x="433" y="118"/>
      <point x="380" y="302"/>
      <point x="380" y="891" type="curve"/>
      <point x="422" y="936"/>
      <point x="493" y="989"/>
      <point x="598" y="989" type="curve"/>
      <point x="751" y="989"/>
      <point x="810" y="909"/>
      <point x="810" y="576" type="curve" smooth="yes"/>
      <point x="810" y="281"/>
      <point x="776" y="118"/>
    </contour>
    <contour>
      <point x="616" y="-170" type="move" name="btm"/>
    </contour>
    <contour>
      <point x="629" y="1700" type="move" name="top"/>
    </contour>
  </outline>
</glyph>
<glyph name="afii10067" format="1">
  <advance width="1373"/>
  <unicode hex="0432"/>
  <outline>
    <contour>
      <point x="90" y="0" type="line"/>
      <point x="334" y="0" type="line" smooth="yes"/>
      <point x="400" y="0"/>
      <point x="597" y="-12"/>
      <point x="717" y="-12" type="curve" smooth="yes"/>
      <point x="1179" y="-12"/>
      <point x="1317" y="135"/>
      <point x="1317" y="356" type="curve" smooth="yes"/>
      <point x="1317" y="473"/>
      <point x="1211" y="605"/>
      <point x="1002" y="623" type="curve"/>
      <point x="1151" y="670"/>
      <point x="1218" y="770"/>
      <point x="1218" y="894" type="curve" smooth="yes"/>
      <point x="1218" y="1034"/>
      <point x="1138" y="1153"/>
      <point x="728" y="1153" type="curve" smooth="yes"/>
      <point x="604" y="1153"/>
      <point x="423" y="1138"/>
      <point x="349" y="1138" type="curve" smooth="yes"/>
      <point x="88" y="1138" type="line"/>
      <point x="88" y="1007" type="line"/>
      <point x="223" y="981" type="line"/>
      <point x="223" y="159" type="line"/>
      <point x="90" y="134" type="line"/>
    </contour>
    <contour>
      <point x="542" y="143" type="curve"/>
      <point x="542" y="533" type="line"/>
      <point x="701" y="533" type="line" smooth="yes"/>
      <point x="878" y="533"/>
      <point x="949" y="466"/>
      <point x="949" y="329" type="curve" smooth="yes"/>
      <point x="949" y="209"/>
      <point x="888" y="130"/>
      <point x="694" y="130" type="curve" smooth="yes"/>
      <point x="652" y="130"/>
      <point x="564" y="133"/>
    </contour>
    <contour>
      <point x="542" y="668" type="line"/>
      <point x="542" y="1016" type="line"/>
      <point x="689" y="1016" type="line" smooth="yes"/>
      <point x="849" y="1016"/>
      <point x="891" y="959"/>
      <point x="891" y="871" type="curve" smooth="yes"/>
      <point x="891" y="772"/>
      <point x="850" y="668"/>
      <point x="676" y="668" type="curve" smooth="yes"/>
    </contour>
    <contour>
      <point x="720" y="-170" type="move" name="btm"/>
    </contour>
    <contour>
      <point x="720" y="1700" type="move" name="top"/>
    </contour>
  </outline>
</glyph>
<glyph name="afii10068" format="1">
  <advance width="1069"/>
  <unicode hex="0433"/>
  <outline>
    <contour>
      <point x="74" y="0" type="line"/>
      <point x="808" y="0" type="line"/>
      <point x="808" y="134" type="line"/>
      <point x="549" y="154" type="line"/>
      <point x="549" y="1006" type="line"/>
      <point x="785" y="983" type="line"/>
      <point x="849" y="680" type="line"/>
      <point x="1035" y="680" type="line"/>
      <point x="1025" y="1137" type="line"/>
      <point x="78" y="1137" type="line"/>
      <point x="78" y="1007" type="line"/>
      <point x="220" y="982" type="line"/>
      <point x="220" y="154" type="line"/>
      <point x="74" y="134" type="line"/>
    </contour>
    <contour>
      <point x="319" y="-170" type="move" name="btm"/>
    </contour>
    <contour>
      <point x="476" y="1700" type="move" name="top"/>
    </contour>
  </outline>
</glyph>
<glyph name="ii-cy" format="1">
  <advance width="1578"/>
  <unicode hex="0438"/>
  <outline>
    <contour>
      <point x="91" y="0" type="line"/>
      <point x="681" y="0" type="line"/>
      <point x="682" y="135" type="line"/>
      <point x="549" y="146" type="line"/>
      <point x="549" y="203" type="line"/>
      <point x="919" y="586" type="line"/>
      <point x="1030" y="740" type="line"/>
      <point x="1030" y="155" type="line"/>
      <point x="885" y="133" type="line"/>
      <point x="885" y="0" type="line"/>
      <point x="1494" y="0" type="line"/>
      <point x="1494" y="133" type="line"/>
      <point x="1356" y="154" type="line"/>
      <point x="1356" y="982" type="line"/>
      <point x="1485" y="1007" type="line"/>
      <point x="1485" y="1138" type="line"/>
      <point x="885" y="1138" type="line"/>
      <point x="885" y="1007" type="line"/>
      <point x="1030" y="981" type="line"/>
      <point x="1030" y="922" type="line"/>
      <point x="665" y="544" type="line"/>
      <point x="549" y="392" type="line"/>
      <point x="549" y="982" type="line"/>
      <point x="694" y="1007" type="line"/>
      <point x="694" y="1138" type="line"/>
      <point x="93" y="1138" type="line"/>
      <point x="93" y="1008" type="line"/>
      <point x="223" y="982" type="line"/>
      <point x="223" y="153" type="line"/>
      <point x="91" y="134" type="line"/>
    </contour>
    <contour>
      <point x="812" y="-170" type="move" name="btm"/>
    </contour>
    <contour>
      <point x="813" y="1700" type="move" name="top"/>
    </contour>
  </outline>
</glyph>
<glyph name="ka-cy" format="1">
  <advance width="1385"/>
  <unicode hex="043A"/>
  <outline>
    <contour>
      <point x="1072" y="0" type="curve"/>
      <point x="1406" y="0" type="line"/>
      <point x="1406" y="137" type="line"/>
      <point x="1314" y="160" type="line"/>
      <point x="1219" y="191"/>
      <point x="1130" y="537"/>
      <point x="926" y="636" type="curve"/>
      <point x="1184" y="982" type="line"/>
      <point x="1345" y="1007" type="line"/>
      <point x="1345" y="1138" type="line"/>
      <point x="799" y="1138" type="line"/>
      <point x="799" y="1007" type="line"/>
      <point x="939" y="983" type="line"/>
      <point x="741" y="663" type="line"/>
      <point x="547" y="663" type="line"/>
      <point x="547" y="981" type="line"/>
      <point x="676" y="1007" type="line"/>
      <point x="676" y="1138" type="line"/>
      <point x="92" y="1138" type="line"/>
      <point x="92" y="1007" type="line"/>
      <point x="222" y="982" type="line"/>
      <point x="222" y="153" type="line"/>
      <point x="90" y="134" type="line"/>
      <point x="90" y="0" type="line"/>
      <point x="705" y="0" type="line"/>
      <point x="705" y="134" type="line"/>
      <point x="547" y="153" type="line"/>
      <point x="547" y="530" type="line"/>
      <point x="659" y="529" type="line"/>
      <point x="843" y="529"/>
      <point x="890" y="0"/>
    </contour>
    <contour>
      <point x="841" y="-170" type="move" name="btm"/>
    </contour>
    <contour>
      <point x="644" y="1700" type="move" name="top"/>
    </contour>
  </outline>
</glyph>
<glyph name="afii10081" format="1">
  <advance width="1502"/>
  <unicode hex="043F"/>
  <outline>
    <contour>
      <point x="91" y="0" type="line"/>
      <point x="682" y="0" type="line"/>
      <point x="682" y="134" type="line"/>
      <point x="550" y="159" type="line"/>
      <point x="550" y="1000" type="line"/>
      <point x="953" y="1000" type="line"/>
      <point x="953" y="159" type="line"/>
      <point x="815" y="134" type="line"/>
      <point x="815" y="0" type="line"/>
      <point x="1412" y="0" type="line"/>
      <point x="1412" y="134" type="line"/>
      <point x="1279" y="159" type="line"/>
      <point x="1279" y="981" type="line"/>
      <point x="1416" y="1007" type="line"/>
      <point x="1416" y="1138" type="line"/>
      <point x="87" y="1138" type="line"/>
      <point x="87" y="1007" type="line"/>
      <point x="223" y="982" type="line"/>
      <point x="223" y="159" type="line"/>
      <point x="91" y="134" type="line"/>
    </contour>
    <contour>
      <point x="928" y="-170" type="move" name="btm"/>
    </contour>
    <contour>
      <point x="928" y="1700" type="move" name="top"/>
    </contour>
  </outline>
</glyph>
<glyph name="ef-cy" format="1">
  <advance width="1870"/>
  <unicode hex="0444"/>
  <outline>
    <contour>
      <point x="1240" y="-25" type="curve" smooth="yes"/>
      <point x="1597" y="-25"/>
      <point x="1801" y="235"/>
      <point x="1801" y="601" type="curve" smooth="yes"/>
      <point x="1801" y="1001"/>
      <point x="1595" y="1166"/>
      <point x="1352" y="1166" type="curve" smooth="yes"/>
      <point x="1232" y="1166"/>
      <point x="1147" y="1123"/>
      <point x="1087" y="1062" type="curve"/>
      <point x="1092" y="1292" type="line"/>
      <point x="1092" y="1638" type="line"/>
      <point x="1027" y="1680" type="line"/>
      <point x="1023" y="1680" type="line"/>
      <point x="630" y="1631" type="line"/>
      <point x="630" y="1509" type="line"/>
      <point x="777" y="1485" type="line"/>
      <point x="777" y="1292" type="line"/>
      <point x="784" y="1135" type="line"/>
      <point x="747" y="1152"/>
      <point x="680" y="1166"/>
      <point x="629" y="1166" type="curve" smooth="yes"/>
      <point x="272" y="1166"/>
      <point x="69" y="906"/>
      <point x="69" y="540" type="curve" smooth="yes"/>
      <point x="69" y="140"/>
      <point x="275" y="-25"/>
      <point x="517" y="-25" type="curve" smooth="yes"/>
      <point x="637" y="-25"/>
      <point x="723" y="18"/>
      <point x="783" y="80" type="curve"/>
      <point x="777" y="-113" type="line"/>
      <point x="777" y="-338" type="line"/>
      <point x="619" y="-367" type="line"/>
      <point x="619" y="-497" type="line"/>
      <point x="1261" y="-497" type="line"/>
      <point x="1261" y="-367" type="line"/>
      <point x="1098" y="-338" type="line"/>
      <point x="1098" y="-113" type="line"/>
      <point x="1093" y="5" type="line"/>
      <point x="1129" y="-13"/>
      <point x="1186" y="-25"/>
    </contour>
    <contour>
      <point x="1227" y="995" type="curve" smooth="yes"/>
      <point x="1359" y="995"/>
      <point x="1460" y="854"/>
      <point x="1460" y="577" type="curve" smooth="yes"/>
      <point x="1460" y="235"/>
      <point x="1337" y="123"/>
      <point x="1211" y="123" type="curve" smooth="yes"/>
      <point x="1149" y="123"/>
      <point x="1105" y="154"/>
      <point x="1092" y="173" type="curve"/>
      <point x="1092" y="949" type="line"/>
      <point x="1122" y="976"/>
      <point x="1171" y="995"/>
    </contour>
    <contour>
      <point x="642" y="150" type="curve" smooth="yes"/>
      <point x="510" y="150"/>
      <point x="409" y="283"/>
      <point x="410" y="560" type="curve"/>
      <point x="410" y="902"/>
      <point x="531" y="1022"/>
      <point x="659" y="1022" type="curve" smooth="yes"/>
      <point x="721" y="1022"/>
      <point x="764" y="991"/>
      <point x="777" y="972" type="curve"/>
      <point x="777" y="198" type="line"/>
      <point x="748" y="169"/>
      <point x="699" y="150"/>
    </contour>
    <contour>
      <point x="879" y="1700" type="move" name="top"/>
    </contour>
  </outline>
</glyph>
<glyph name="afii10088" format="1">
  <advance width="1487"/>
  <unicode hex="0446"/>
  <outline>
    <contour>
      <point x="1261" y="-406" type="curve"/>
      <point x="1433" y="-406" type="line"/>
      <point x="1443" y="-376"/>
      <point x="1493" y="107"/>
      <point x="1493" y="148" type="curve"/>
      <point x="1279" y="148" type="line"/>
      <point x="1278" y="147" type="line"/>
      <point x="1278" y="982" type="line"/>
      <point x="1399" y="1007" type="line"/>
      <point x="1399" y="1138" type="line"/>
      <point x="815" y="1138" type="line"/>
      <point x="815" y="1007" type="line"/>
      <point x="949" y="982" type="line"/>
      <point x="949" y="147" type="line"/>
      <point x="550" y="147" type="line"/>
      <point x="550" y="982" type="line"/>
      <point x="689" y="1007" type="line"/>
      <point x="689" y="1138" type="line"/>
      <point x="91" y="1138" type="line"/>
      <point x="91" y="1007" type="line"/>
      <point x="223" y="982" type="line"/>
      <point x="223" y="159" type="line"/>
      <point x="92" y="133" type="line"/>
      <point x="92" y="0" type="line"/>
      <point x="1194" y="0" type="line"/>
      <point x="1214" y="-42"/>
      <point x="1253" y="-347"/>
    </contour>
    <contour>
      <point x="850" y="-170" type="move" name="btm"/>
    </contour>
    <contour>
      <point x="816" y="1700" type="move" name="top"/>
    </contour>
  </outline>
</glyph>
<glyph name="afii10089" format="1">
  <advance width="1370"/>
  <unicode hex="0447"/>
  <outline>
    <contour>
      <point x="530" y="383" type="curve" smooth="yes"/>
      <point x="673" y="383"/>
      <point x="742" y="421"/>
      <point x="827" y="458" type="curve"/>
      <point x="827" y="160" type="line"/>
      <point x="651" y="134" type="line"/>
      <point x="651" y="0" type="line"/>
      <point x="1281" y="0" type="line"/>
      <point x="1281" y="134" type="line"/>
      <point x="1148" y="159" type="line"/>
      <point x="1148" y="982" type="line"/>
      <point x="1279" y="1007" type="line"/>
      <point x="1279" y="1138" type="line"/>
      <point x="707" y="1138" type="line"/>
      <point x="707" y="1007" type="line"/>
      <point x="827" y="981" type="line"/>
      <point x="827" y="593" type="line"/>
      <point x="792" y="568"/>
      <point x="723" y="542"/>
      <point x="633" y="542" type="curve" smooth="yes"/>
      <point x="477" y="542"/>
      <point x="443" y="595"/>
      <point x="443" y="868" type="curve" smooth="yes"/>
      <point x="443" y="982" type="line"/>
      <point x="549" y="1007" type="line"/>
      <point x="549" y="1138" type="line"/>
      <point x="6" y="1138" type="line"/>
      <point x="6" y="1007" type="line"/>
      <point x="111" y="982" type="line"/>
      <point x="111" y="815" type="line" smooth="yes"/>
      <point x="111" y="481"/>
      <point x="276" y="383"/>
    </contour>
    <contour>
      <point x="554" y="-170" type="move" name="btm"/>
    </contour>
    <contour>
      <point x="554" y="1700" type="move" name="top"/>
    </contour>
  </outline>
</glyph>
<glyph name="shcha-cy" format="1">
  <advance width="2118"/>
  <unicode hex="0449"/>
  <outline>
    <contour>
      <point x="84" y="0" type="line"/>
      <point x="1809" y="0" type="line"/>
      <point x="1829" y="-42"/>
      <point x="1868" y="-351"/>
      <point x="1875" y="-410" type="curve"/>
      <point x="2048" y="-410" type="line"/>
      <point x="2057" y="-380"/>
      <point x="2107" y="107"/>
      <point x="2107" y="148" type="curve"/>
      <point x="1899" y="148" type="line"/>
      <point x="1899" y="982" type="line"/>
      <point x="2033" y="1007" type="line"/>
      <point x="2033" y="1138" type="line"/>
      <point x="1444" y="1138" type="line"/>
      <point x="1444" y="1007" type="line"/>
      <point x="1580" y="982" type="line"/>
      <point x="1580" y="143" type="line"/>
      <point x="1220" y="143" type="line"/>
      <point x="1220" y="982" type="line"/>
      <point x="1348" y="1007" type="line"/>
      <point x="1348" y="1138" type="line"/>
      <point x="770" y="1138" type="line"/>
      <point x="770" y="1007" type="line"/>
      <point x="903" y="982" type="line"/>
      <point x="903" y="143" type="line"/>
      <point x="542" y="143" type="line"/>
      <point x="542" y="982" type="line"/>
      <point x="681" y="1007" type="line"/>
      <point x="681" y="1138" type="line"/>
      <point x="88" y="1138" type="line"/>
      <point x="88" y="1007" type="line"/>
      <point x="223" y="980" type="line"/>
      <point x="223" y="154" type="line"/>
      <point x="84" y="127" type="line"/>
    </contour>
    <contour>
      <point x="850" y="-170" type="move" name="btm"/>
    </contour>
    <contour>
      <point x="850" y="1700" type="move" name="top"/>
    </contour>
  </outline>
</glyph>
<glyph name="afii10092" format="1">
  <advance width="1544"/>
  <unicode hex="044A"/>
  <outline>
    <contour>
      <point x="244" y="0" type="line"/>
      <point x="640" y="0" type="line" smooth="yes"/>
      <point x="717" y="0"/>
      <point x="955" y="-19"/>
      <point x="1012" y="-19" type="curve" smooth="yes"/>
      <point x="1334" y="-19"/>
      <point x="1520" y="89"/>
      <point x="1520" y="358" type="curve" smooth="yes"/>
      <point x="1520" y="574"/>
      <point x="1377" y="701"/>
      <point x="1058" y="701" type="curve"/>
      <point x="817" y="700" type="line"/>
      <point x="817" y="980" type="line"/>
      <point x="961" y="1007" type="line"/>
      <point x="961" y="1138" type="line"/>
      <point x="52" y="1138" type="line"/>
      <point x="52" y="658" type="line"/>
      <point x="237" y="658" type="line"/>
      <point x="290" y="996" type="line"/>
      <point x="497" y="1006" type="line"/>
      <point x="497" y="156" type="line"/>
      <point x="244" y="134" type="line"/>
    </contour>
    <contour>
      <point x="963" y="555" type="line" smooth="yes"/>
      <point x="1119" y="555"/>
      <point x="1183" y="465"/>
      <point x="1183" y="334" type="curve" smooth="yes"/>
      <point x="1183" y="198"/>
      <point x="1111" y="120"/>
      <point x="939" y="120" type="curve" smooth="yes"/>
      <point x="895" y="120"/>
      <point x="847" y="128"/>
      <point x="817" y="137" type="curve"/>
      <point x="817" y="555" type="line"/>
    </contour>
    <contour>
      <point x="664" y="-170" type="move" name="btm"/>
    </contour>
    <contour>
      <point x="664" y="1700" type="move" name="top"/>
    </contour>
  </outline>
</glyph>
<glyph name="afii10093" format="1">
  <advance width="1929"/>
  <unicode hex="044B"/>
  <outline>
    <contour>
      <point x="74" y="0" type="line"/>
      <point x="344" y="0" type="line" smooth="yes"/>
      <point x="421" y="0"/>
      <point x="659" y="-19"/>
      <point x="716" y="-19" type="curve" smooth="yes"/>
      <point x="1035" y="-19"/>
      <point x="1218" y="98"/>
      <point x="1218" y="358" type="curve" smooth="yes"/>
      <point x="1218" y="574"/>
      <point x="1076" y="701"/>
      <point x="758" y="701" type="curve" smooth="yes"/>
      <point x="543" y="701" type="line"/>
      <point x="543" y="980" type="line"/>
      <point x="705" y="1006" type="line"/>
      <point x="705" y="1138" type="line"/>
      <point x="76" y="1138" type="line"/>
      <point x="76" y="1006" type="line"/>
      <point x="223" y="980" type="line"/>
      <point x="223" y="153" type="line"/>
      <point x="74" y="127" type="line"/>
    </contour>
    <contour>
      <point x="1265" y="0" type="line"/>
      <point x="1845" y="0" type="line"/>
      <point x="1845" y="134" type="line"/>
      <point x="1706" y="157" type="line"/>
      <point x="1706" y="982" type="line"/>
      <point x="1828" y="1004" type="line"/>
      <point x="1828" y="1138" type="line"/>
      <point x="1259" y="1138" type="line"/>
      <point x="1259" y="1004" type="line"/>
      <point x="1391" y="980" type="line"/>
      <point x="1391" y="159" type="line"/>
      <point x="1265" y="134" type="line"/>
    </contour>
    <contour>
      <point x="662" y="555" type="line" smooth="yes"/>
      <point x="819" y="555"/>
      <point x="882" y="465"/>
      <point x="882" y="334" type="curve" smooth="yes"/>
      <point x="882" y="198"/>
      <point x="812" y="120"/>
      <point x="642" y="120" type="curve" smooth="yes"/>
      <point x="594" y="120"/>
      <point x="566" y="123"/>
      <point x="543" y="127" type="curve"/>
      <point x="543" y="555" type="line"/>
    </contour>
    <contour>
      <point x="853" y="-170" type="move" name="btm"/>
    </contour>
    <contour>
      <point x="853" y="1700" type="move" name="top"/>
    </contour>
  </outline>
</glyph>
<glyph name="afii10094" format="1">
  <advance width="1264"/>
  <unicode hex="044C"/>
  <outline>
    <contour>
      <point x="77" y="0" type="line"/>
      <point x="365" y="0" type="line" smooth="yes"/>
      <point x="443" y="0"/>
      <point x="680" y="-19"/>
      <point x="738" y="-19" type="curve" smooth="yes"/>
      <point x="1057" y="-19"/>
      <point x="1240" y="98"/>
      <point x="1240" y="358" type="curve" smooth="yes"/>
      <point x="1240" y="574"/>
      <point x="1097" y="701"/>
      <point x="779" y="701" type="curve" smooth="yes"/>
      <point x="543" y="701" type="line"/>
      <point x="543" y="982" type="line"/>
      <point x="712" y="1005" type="line"/>
      <point x="712" y="1138" type="line"/>
      <point x="81" y="1138" type="line"/>
      <point x="81" y="1005" type="line"/>
      <point x="223" y="982" type="line"/>
      <point x="223" y="154" type="line"/>
      <point x="77" y="127" type="line"/>
    </contour>
    <contour>
      <point x="683" y="555" type="line" smooth="yes"/>
      <point x="840" y="555"/>
      <point x="903" y="465"/>
      <point x="903" y="334" type="curve" smooth="yes"/>
      <point x="903" y="198"/>
      <point x="833" y="120"/>
      <point x="664" y="120" type="curve" smooth="yes"/>
      <point x="600" y="120"/>
      <point x="570" y="125"/>
      <point x="543" y="132" type="curve"/>
      <point x="543" y="555" type="line"/>
    </contour>
    <contour>
      <point x="659" y="-170" type="move" name="btm"/>
    </contour>
    <contour>
      <point x="659" y="1700" type="move" name="top"/>
    </contour>
  </outline>
</glyph>
<glyph name="ereversed-cy" format="1">
  <advance width="1087"/>
  <unicode hex="044D"/>
  <outline>
    <contour>
      <point x="270" y="496" type="line"/>
      <point x="687" y="508" type="line"/>
      <point x="671" y="217"/>
      <point x="568" y="126"/>
      <point x="425" y="126" type="curve" smooth="yes"/>
      <point x="368" y="126"/>
      <point x="318" y="138"/>
      <point x="276" y="155" type="curve"/>
      <point x="231" y="309" type="line"/>
      <point x="76" y="309" type="line"/>
      <point x="84" y="93" type="line"/>
      <point x="162" y="29"/>
      <point x="310" y="-23"/>
      <point x="491" y="-23" type="curve" smooth="yes"/>
      <point x="826" y="-23"/>
      <point x="1033" y="205"/>
      <point x="1035" y="571" type="curve" smooth="yes"/>
      <point x="1037" y="961"/>
      <point x="780" y="1170"/>
      <point x="458" y="1170" type="curve" smooth="yes"/>
      <point x="328" y="1170"/>
      <point x="145" y="1137"/>
      <point x="85" y="1112" type="curve"/>
      <point x="90" y="843" type="line"/>
      <point x="271" y="843" type="line"/>
      <point x="311" y="970" type="line"/>
      <point x="338" y="1005"/>
      <point x="377" y="1032"/>
      <point x="453" y="1032" type="curve" smooth="yes"/>
      <point x="594" y="1032"/>
      <point x="675" y="897"/>
      <point x="687" y="661" type="curve"/>
      <point x="552" y="664"/>
      <point x="309" y="672"/>
      <point x="270" y="673" type="curve"/>
    </contour>
    <contour>
      <point x="573" y="-170" type="move" name="btm"/>
    </contour>
    <contour>
      <point x="544" y="1700" type="move" name="top"/>
    </contour>
  </outline>
</glyph>
<glyph name="afii10096" format="1">
  <advance width="1948"/>
  <unicode hex="044E"/>
  <outline>
    <contour>
      <point x="91" y="0" type="line"/>
      <point x="709" y="0" type="line"/>
      <point x="709" y="134" type="line"/>
      <point x="552" y="159" type="line"/>
      <point x="552" y="514" type="line"/>
      <point x="775" y="514" type="line"/>
      <point x="793" y="177"/>
      <point x="987" y="-23"/>
      <point x="1314" y="-23" type="curve" smooth="yes"/>
      <point x="1616" y="-23"/>
      <point x="1884" y="164"/>
      <point x="1884" y="582" type="curve" smooth="yes"/>
      <point x="1884" y="950"/>
      <point x="1687" y="1168"/>
      <point x="1344" y="1168" type="curve" smooth="yes"/>
      <point x="1068" y="1168"/>
      <point x="820" y="1005"/>
      <point x="780" y="665" type="curve"/>
      <point x="552" y="665" type="line"/>
      <point x="552" y="982" type="line"/>
      <point x="700" y="1007" type="line"/>
      <point x="700" y="1138" type="line"/>
      <point x="93" y="1138" type="line"/>
      <point x="93" y="1007" type="line"/>
      <point x="223" y="982" type="line"/>
      <point x="223" y="159" type="line"/>
      <point x="91" y="134" type="line"/>
    </contour>
    <contour>
      <point x="1332" y="116" type="curve" smooth="yes"/>
      <point x="1183" y="116"/>
      <point x="1125" y="283"/>
      <point x="1125" y="599" type="curve" smooth="yes"/>
      <point x="1125" y="903"/>
      <point x="1190" y="1029"/>
      <point x="1327" y="1029" type="curve" smooth="yes"/>
      <point x="1478" y="1029"/>
      <point x="1533" y="868"/>
      <point x="1533" y="553" type="curve" smooth="yes"/>
      <point x="1533" y="247"/>
      <point x="1470" y="116"/>
    </contour>
    <contour>
      <point x="979" y="1700" type="move" name="top"/>
    </contour>
  </outline>
</glyph>
<glyph name="ia-cy" format="1">
  <advance width="1377"/>
  <unicode hex="044F"/>
  <outline>
    <contour>
      <point x="33" y="0" type="line"/>
      <point x="396" y="0" type="line" smooth="yes"/>
      <point x="475" y="0"/>
      <point x="516" y="349"/>
      <point x="636" y="449" type="curve"/>
      <point x="835" y="449" type="line"/>
      <point x="835" y="161" type="line"/>
      <point x="678" y="136" type="line"/>
      <point x="678" y="0" type="line"/>
      <point x="1299" y="0" type="line"/>
      <point x="1299" y="136" type="line"/>
      <point x="1155" y="160" type="line"/>
      <point x="1155" y="982" type="line"/>
      <point x="1294" y="1004" type="line"/>
      <point x="1294" y="1138" type="line"/>
      <point x="1044" y="1138" type="line" smooth="yes"/>
      <point x="950" y="1138"/>
      <point x="789" y="1152"/>
      <point x="660" y="1152" type="curve" smooth="yes"/>
      <point x="298" y="1152"/>
      <point x="114" y="1024"/>
      <point x="114" y="804" type="curve" smooth="yes"/>
      <point x="114" y="636"/>
      <point x="195" y="523"/>
      <point x="358" y="475" type="curve"/>
      <point x="274" y="387"/>
      <point x="237" y="187"/>
      <point x="124" y="162" type="curve"/>
      <point x="33" y="134" type="line"/>
    </contour>
    <contour>
      <point x="699" y="581" type="curve" smooth="yes"/>
      <point x="522" y="581"/>
      <point x="462" y="698"/>
      <point x="462" y="834" type="curve" smooth="yes"/>
      <point x="462" y="991"/>
      <point x="578" y="1021"/>
      <point x="682" y="1021" type="curve" smooth="yes"/>
      <point x="774" y="1021"/>
      <point x="815" y="1018"/>
      <point x="835" y="1014" type="curve"/>
      <point x="835" y="584" type="line"/>
      <point x="807" y="581"/>
      <point x="746" y="581"/>
    </contour>
    <contour>
      <point x="667" y="-170" type="move" name="btm"/>
    </contour>
    <contour>
      <point x="667" y="1700" type="move" name="top"/>
    </contour>
  </outline>
</glyph>
<glyph name="afii10101" format="1">
  <advance width="1082"/>
  <unicode hex="0454"/>
  <outline>
    <contour>
      <point x="845" y="498" type="line"/>
      <point x="845" y="675" type="line"/>
      <point x="398" y="663" type="line"/>
      <point x="408" y="913"/>
      <point x="491" y="1032"/>
      <point x="634" y="1032" type="curve" smooth="yes"/>
      <point x="710" y="1032"/>
      <point x="748" y="1005"/>
      <point x="775" y="970" type="curve"/>
      <point x="816" y="843" type="line"/>
      <point x="996" y="843" type="line"/>
      <point x="1002" y="1112" type="line"/>
      <point x="941" y="1137"/>
      <point x="773" y="1170"/>
      <point x="643" y="1170" type="curve" smooth="yes"/>
      <point x="321" y="1170"/>
      <point x="49" y="940"/>
      <point x="51" y="578" type="curve" smooth="yes"/>
      <point x="53" y="212"/>
      <point x="221" y="-23"/>
      <point x="595" y="-23" type="curve" smooth="yes"/>
      <point x="776" y="-23"/>
      <point x="925" y="29"/>
      <point x="1003" y="93" type="curve"/>
      <point x="1011" y="309" type="line"/>
      <point x="856" y="309" type="line"/>
      <point x="810" y="154" type="line"/>
      <point x="768" y="138"/>
      <point x="718" y="126"/>
      <point x="662" y="126" type="curve" smooth="yes"/>
      <point x="519" y="126"/>
      <point x="418" y="234"/>
      <point x="400" y="511" type="curve"/>
    </contour>
    <contour>
      <point x="508" y="-170" type="move" name="btm"/>
    </contour>
    <contour>
      <point x="518" y="1700" type="move" name="top"/>
    </contour>
  </outline>
</glyph>
<glyph name="lje-cy" format="1">
  <advance width="1805"/>
  <unicode hex="0459"/>
  <outline>
    <contour>
      <point x="926" y="0" type="line" smooth="yes"/>
      <point x="1004" y="0"/>
      <point x="1258" y="-19"/>
      <point x="1316" y="-19" type="curve" smooth="yes"/>
      <point x="1634" y="-19"/>
      <point x="1781" y="97"/>
      <point x="1781" y="356" type="curve" smooth="yes"/>
      <point x="1781" y="581"/>
      <point x="1645" y="698"/>
      <point x="1324" y="698" type="curve" smooth="yes"/>
      <point x="1220" y="698"/>
      <point x="1121" y="680"/>
      <point x="1083" y="670" type="curve"/>
      <point x="1083" y="975" type="line"/>
      <point x="1261" y="1004" type="line"/>
      <point x="1261" y="1138" type="line"/>
      <point x="135" y="1138" type="line"/>
      <point x="135" y="1007" type="line"/>
      <point x="322" y="982" type="line"/>
      <point x="322" y="556"/>
      <point x="247" y="194"/>
      <point x="137" y="194" type="curve" smooth="yes"/>
      <point x="79" y="194"/>
      <point x="38" y="198"/>
      <point x="8" y="204" type="curve"/>
      <point x="26" y="-1" type="line"/>
      <point x="54" y="-8"/>
      <point x="94" y="-14"/>
      <point x="135" y="-14" type="curve" smooth="yes"/>
      <point x="267" y="-14"/>
      <point x="319" y="47"/>
      <point x="354" y="128" type="curve"/>
      <point x="414" y="240"/>
      <point x="477" y="521"/>
      <point x="477" y="882" type="curve" smooth="yes"/>
      <point x="477" y="986" type="line"/>
      <point x="756" y="986" type="line"/>
      <point x="756" y="153" type="line"/>
      <point x="606" y="134" type="line"/>
      <point x="606" y="0" type="line"/>
    </contour>
    <contour>
      <point x="1223" y="547" type="curve" smooth="yes"/>
      <point x="1372" y="547"/>
      <point x="1452" y="496"/>
      <point x="1452" y="337" type="curve" smooth="yes"/>
      <point x="1452" y="201"/>
      <point x="1389" y="123"/>
      <point x="1219" y="123" type="curve" smooth="yes"/>
      <point x="1151" y="123"/>
      <point x="1112" y="130"/>
      <point x="1083" y="137" type="curve"/>
      <point x="1083" y="525" type="line"/>
      <point x="1114" y="535"/>
      <point x="1161" y="547"/>
    </contour>
    <contour>
      <point x="705" y="-170" type="move" name="btm"/>
    </contour>
    <contour>
      <point x="705" y="1700" type="move" name="top"/>
    </contour>
  </outline>
</glyph>
<glyph name="afii10107" format="1">
  <advance width="2045"/>
  <unicode hex="045A"/>
  <outline>
    <contour>
      <point x="1149" y="0" type="line" smooth="yes"/>
      <point x="1227" y="0"/>
      <point x="1481" y="-19"/>
      <point x="1539" y="-19" type="curve" smooth="yes"/>
      <point x="1857" y="-19"/>
      <point x="2022" y="97"/>
      <point x="2022" y="356" type="curve" smooth="yes"/>
      <point x="2022" y="581"/>
      <point x="1887" y="698"/>
      <point x="1565" y="698" type="curve" smooth="yes"/>
      <point x="1461" y="698"/>
      <point x="1363" y="680"/>
      <point x="1325" y="670" type="curve"/>
      <point x="1325" y="981" type="line"/>
      <point x="1457" y="1007" type="line"/>
      <point x="1457" y="1138" type="line"/>
      <point x="863" y="1138" type="line"/>
      <point x="863" y="1007" type="line"/>
      <point x="1005" y="982" type="line"/>
      <point x="1005" y="664" type="line"/>
      <point x="543" y="664" type="line"/>
      <point x="543" y="981" type="line"/>
      <point x="685" y="1007" type="line"/>
      <point x="685" y="1138" type="line"/>
      <point x="88" y="1138" type="line"/>
      <point x="88" y="1007" type="line"/>
      <point x="223" y="981" type="line"/>
      <point x="223" y="154" type="line"/>
      <point x="90" y="134" type="line"/>
      <point x="90" y="0" type="line"/>
      <point x="688" y="0" type="line"/>
      <point x="688" y="134" type="line"/>
      <point x="543" y="153" type="line"/>
      <point x="543" y="517" type="line"/>
      <point x="1005" y="517" type="line"/>
      <point x="1005" y="154" type="line"/>
      <point x="860" y="134" type="line"/>
      <point x="860" y="0" type="line"/>
    </contour>
    <contour>
      <point x="1465" y="547" type="curve" smooth="yes"/>
      <point x="1613" y="547"/>
      <point x="1694" y="496"/>
      <point x="1694" y="337" type="curve" smooth="yes"/>
      <point x="1694" y="201"/>
      <point x="1631" y="123"/>
      <point x="1461" y="123" type="curve" smooth="yes"/>
      <point x="1392" y="123"/>
      <point x="1354" y="130"/>
      <point x="1326" y="137" type="curve"/>
      <point x="1325" y="136" type="line"/>
      <point x="1325" y="525" type="line"/>
      <point x="1355" y="535"/>
      <point x="1403" y="547"/>
    </contour>
    <contour>
      <point x="773" y="-170" type="move" name="btm"/>
    </contour>
    <contour>
      <point x="773" y="1700" type="move" name="top"/>
    </contour>
  </outline>
</glyph>
<glyph name="afii10108" format="1">
  <advance width="1391"/>
  <unicode hex="045B"/>
  <outline>
    <contour>
      <point x="48" y="1207" type="line"/>
      <point x="192" y="1207" type="line"/>
      <point x="192" y="153" type="line"/>
      <point x="84" y="134" type="line"/>
      <point x="84" y="0" type="line"/>
      <point x="641" y="0" type="line"/>
      <point x="641" y="134" type="line"/>
      <point x="522" y="154" type="line"/>
      <point x="522" y="800" type="line"/>
      <point x="576" y="845"/>
      <point x="657" y="880"/>
      <point x="739" y="880" type="curve" smooth="yes"/>
      <point x="872" y="880"/>
      <point x="898" y="802"/>
      <point x="898" y="619" type="curve" smooth="yes"/>
      <point x="898" y="153" type="line"/>
      <point x="788" y="133" type="line"/>
      <point x="788" y="0" type="line"/>
      <point x="1352" y="0" type="line"/>
      <point x="1352" y="134" type="line"/>
      <point x="1222" y="154" type="line"/>
      <point x="1222" y="619" type="line" smooth="yes"/>
      <point x="1222" y="929"/>
      <point x="1153" y="1072"/>
      <point x="893" y="1072" type="curve" smooth="yes"/>
      <point x="713" y="1072"/>
      <point x="571" y="984"/>
      <point x="500" y="920" type="curve"/>
      <point x="516" y="1105" type="line"/>
      <point x="515" y="1207" type="line"/>
      <point x="759" y="1207" type="line"/>
      <point x="759" y="1340" type="line"/>
      <point x="515" y="1340" type="line"/>
      <point x="514" y="1636" type="line"/>
      <point x="455" y="1680" type="line"/>
      <point x="449" y="1680" type="line"/>
      <point x="46" y="1631" type="line"/>
      <point x="46" y="1508" type="line"/>
      <point x="192" y="1482" type="line"/>
      <point x="192" y="1340" type="line"/>
      <point x="48" y="1340" type="line"/>
    </contour>
  </outline>
</glyph>
<glyph name="dzhe-cy" format="1">
  <advance width="1489"/>
  <unicode hex="045F"/>
  <outline>
    <contour>
      <point x="92" y="0" type="line"/>
      <point x="600" y="0" type="line"/>
      <point x="608" y="-18"/>
      <point x="660" y="-298"/>
      <point x="660" y="-393" type="curve"/>
      <point x="854" y="-393" type="line"/>
      <point x="854" y="-298"/>
      <point x="887" y="-18"/>
      <point x="897" y="0" type="curve"/>
      <point x="1403" y="0" type="line"/>
      <point x="1403" y="133" type="line"/>
      <point x="1266" y="159" type="line"/>
      <point x="1266" y="982" type="line"/>
      <point x="1396" y="1007" type="line"/>
      <point x="1396" y="1138" type="line"/>
      <point x="808" y="1138" type="line"/>
      <point x="808" y="1007" type="line"/>
      <point x="946" y="982" type="line"/>
      <point x="946" y="141" type="line"/>
      <point x="543" y="141" type="line"/>
      <point x="543" y="982" type="line"/>
      <point x="682" y="1007" type="line"/>
      <point x="682" y="1138" type="line"/>
      <point x="91" y="1138" type="line"/>
      <point x="91" y="1007" type="line"/>
      <point x="223" y="982" type="line"/>
      <point x="223" y="159" type="line"/>
      <point x="92" y="133" type="line"/>
    </contour>
  </outline>
</glyph>
<glyph name="afii10146" format="1">
  <advance width="1629"/>
  <unicode hex="0462"/>
  <outline>
    <contour>
      <point x="304" y="0" type="line"/>
      <point x="680" y="0" type="line" smooth="yes"/>
      <point x="761" y="0"/>
      <point x="994" y="-15"/>
      <point x="1036" y="-15" type="curve" smooth="yes"/>
      <point x="1377" y="-15"/>
      <point x="1594" y="151"/>
      <point x="1594" y="447" type="curve" smooth="yes"/>
      <point x="1594" y="683"/>
      <point x="1444" y="862"/>
      <point x="1085" y="862" type="curve" smooth="yes"/>
      <point x="962" y="862"/>
      <point x="873" y="847"/>
      <point x="828" y="837" type="curve"/>
      <point x="828" y="1194" type="line"/>
      <point x="829" y="1194" type="line"/>
      <point x="1128" y="1166" type="line"/>
      <point x="1184" y="1025" type="line"/>
      <point x="1372" y="1025" type="line"/>
      <point x="1341" y="1337" type="line"/>
      <point x="828" y="1337" type="line"/>
      <point x="828" y="1522" type="line"/>
      <point x="1004" y="1554" type="line"/>
      <point x="1005" y="1683" type="line"/>
      <point x="331" y="1683" type="line"/>
      <point x="331" y="1554" type="line"/>
      <point x="492" y="1523" type="line"/>
      <point x="492" y="1337" type="line"/>
      <point x="16" y="1337" type="line"/>
      <point x="-12" y="1024" type="line"/>
      <point x="156" y="1024" type="line"/>
      <point x="216" y="1166" type="line"/>
      <point x="492" y="1194" type="line"/>
      <point x="492" y="157" type="line"/>
      <point x="304" y="134" type="line"/>
    </contour>
    <contour>
      <point x="989" y="716" type="curve" smooth="yes"/>
      <point x="1169" y="716"/>
      <point x="1254" y="586"/>
      <point x="1254" y="424" type="curve" smooth="yes"/>
      <point x="1254" y="246"/>
      <point x="1160" y="122"/>
      <point x="955" y="122" type="curve" smooth="yes"/>
      <point x="890" y="122"/>
      <point x="859" y="126"/>
      <point x="828" y="136" type="curve"/>
      <point x="828" y="703" type="line"/>
      <point x="864" y="711"/>
      <point x="921" y="716"/>
    </contour>
    <contour>
      <point x="1027" y="1700" type="move" name="top"/>
    </contour>
  </outline>
</glyph>
<glyph name="fita-cy" format="1">
  <advance width="1243"/>
  <unicode hex="0473"/>
  <outline>
    <contour>
      <point x="63" y="565" type="curve" smooth="yes"/>
      <point x="63" y="200"/>
      <point x="264" y="-23"/>
      <point x="607" y="-23" type="curve" smooth="yes"/>
      <point x="909" y="-23"/>
      <point x="1180" y="165"/>
      <point x="1180" y="580" type="curve" smooth="yes"/>
      <point x="1180" y="945"/>
      <point x="979" y="1168"/>
      <point x="636" y="1168" type="curve" smooth="yes"/>
      <point x="335" y="1168"/>
      <point x="63" y="969"/>
    </contour>
    <contour>
      <point x="788" y="592" type="curve" smooth="yes"/>
      <point x="697" y="592"/>
      <point x="649" y="713"/>
      <point x="523" y="713" type="curve" smooth="yes"/>
      <point x="479" y="713"/>
      <point x="444" y="701"/>
      <point x="416" y="682" type="curve"/>
      <point x="429" y="917"/>
      <point x="497" y="1025"/>
      <point x="620" y="1025" type="curve" smooth="yes"/>
      <point x="763" y="1025"/>
      <point x="821" y="874"/>
      <point x="826" y="598" type="curve"/>
      <point x="816" y="594"/>
      <point x="803" y="592"/>
    </contour>
    <contour>
      <point x="625" y="120" type="curve" smooth="yes"/>
      <point x="484" y="120"/>
      <point x="422" y="266"/>
      <point x="415" y="534" type="curve"/>
      <point x="429" y="542"/>
      <point x="447" y="548"/>
      <point x="471" y="548" type="curve" smooth="yes"/>
      <point x="569" y="548"/>
      <point x="626" y="419"/>
      <point x="752" y="419" type="curve" smooth="yes"/>
      <point x="778" y="419"/>
      <point x="801" y="424"/>
      <point x="822" y="432" type="curve"/>
      <point x="806" y="218"/>
      <point x="741" y="120"/>
    </contour>
  </outline>
</glyph>
<glyph name="uni048A" format="1">
  <advance width="1742"/>
  <unicode hex="048A"/>
  <outline>
    <contour>
      <point x="669" y="631" type="line"/>
      <point x="567" y="447" type="line"/>
      <point x="567" y="1353" type="line"/>
      <point x="741" y="1382" type="line"/>
      <point x="741" y="1522" type="line"/>
      <point x="81" y="1522" type="line"/>
      <point x="81" y="1381" type="line"/>
      <point x="233" y="1353" type="line"/>
      <point x="233" y="160" type="line"/>
      <point x="77" y="134" type="line"/>
      <point x="77" y="0" type="line"/>
      <point x="738" y="0" type="line"/>
      <point x="738" y="134" type="line"/>
      <point x="567" y="160" type="line"/>
      <point x="567" y="217" type="line"/>
      <point x="1085" y="893" type="line"/>
      <point x="1178" y="1077" type="line"/>
      <point x="1178" y="160" type="line"/>
      <point x="1014" y="134" type="line"/>
      <point x="1014" y="0" type="line"/>
      <point x="1459" y="0" type="line"/>
      <point x="1444" y="-48"/>
      <point x="1375" y="-313"/>
      <point x="1333" y="-410" type="curve"/>
      <point x="1519" y="-410" type="line"/>
      <point x="1551" y="-368"/>
      <point x="1682" y="-75"/>
      <point x="1722" y="0" type="curve"/>
      <point x="1722" y="166" type="line"/>
      <point x="1512" y="166" type="line"/>
      <point x="1512" y="1353" type="line"/>
      <point x="1664" y="1381" type="line"/>
      <point x="1664" y="1522" type="line"/>
      <point x="1016" y="1522" type="line"/>
      <point x="1016" y="1381" type="line"/>
      <point x="1178" y="1353" type="line"/>
      <point x="1178" y="1310" type="line"/>
    </contour>
    <contour>
      <point x="862" y="1641" type="curve" smooth="yes"/>
      <point x="1127" y="1641"/>
      <point x="1289" y="1746"/>
      <point x="1289" y="1954" type="curve" smooth="yes"/>
      <point x="1289" y="1965"/>
      <point x="1288" y="2003"/>
      <point x="1287" y="2014" type="curve"/>
      <point x="1060" y="2014" type="line" smooth="yes"/>
      <point x="1029" y="2014"/>
      <point x="1024" y="1947"/>
      <point x="1024" y="1908" type="curve" smooth="yes"/>
      <point x="1024" y="1815"/>
      <point x="975" y="1764"/>
      <point x="863" y="1764" type="curve" smooth="yes"/>
      <point x="751" y="1764"/>
      <point x="702" y="1815"/>
      <point x="702" y="1908" type="curve" smooth="yes"/>
      <point x="702" y="1947"/>
      <point x="697" y="2014"/>
      <point x="666" y="2014" type="curve" smooth="yes"/>
      <point x="439" y="2014" type="line"/>
      <point x="438" y="2003"/>
      <point x="437" y="1965"/>
      <point x="437" y="1954" type="curve" smooth="yes"/>
      <point x="437" y="1748"/>
      <point x="608" y="1641"/>
    </contour>
  </outline>
</glyph>
<glyph name="uni048E" format="1">
  <advance width="1361"/>
  <unicode hex="048E"/>
  <outline>
    <contour>
      <point x="77" y="0" type="line"/>
      <point x="836" y="0" type="line"/>
      <point x="836" y="134" type="line"/>
      <point x="571" y="160" type="line"/>
      <point x="571" y="538" type="line"/>
      <point x="588" y="534"/>
      <point x="651" y="531"/>
      <point x="713" y="531" type="curve" smooth="yes"/>
      <point x="812" y="531"/>
      <point x="900" y="544"/>
      <point x="976" y="570" type="curve"/>
      <point x="1141" y="383" type="line"/>
      <point x="1236" y="460" type="line"/>
      <point x="1092" y="624" type="line"/>
      <point x="1241" y="716"/>
      <point x="1323" y="873"/>
      <point x="1323" y="1082" type="curve" smooth="yes"/>
      <point x="1323" y="1370"/>
      <point x="1190" y="1533"/>
      <point x="734" y="1534" type="curve" smooth="yes"/>
      <point x="574" y="1534"/>
      <point x="491" y="1522"/>
      <point x="390" y="1522" type="curve" smooth="yes"/>
      <point x="84" y="1522" type="line"/>
      <point x="84" y="1381" type="line"/>
      <point x="233" y="1353" type="line"/>
      <point x="233" y="159" type="line"/>
      <point x="77" y="134" type="line"/>
    </contour>
    <contour>
      <point x="570" y="679" type="curve"/>
      <point x="570" y="1386" type="line"/>
      <point x="603" y="1389"/>
      <point x="623" y="1398"/>
      <point x="701" y="1398" type="curve" smooth="yes"/>
      <point x="881" y="1398"/>
      <point x="974" y="1302"/>
      <point x="974" y="1074" type="curve" smooth="yes"/>
      <point x="974" y="957"/>
      <point x="957" y="872"/>
      <point x="928" y="810" type="curve"/>
      <point x="790" y="968" type="line"/>
      <point x="694" y="892" type="line"/>
      <point x="852" y="712" type="line"/>
      <point x="810" y="681"/>
      <point x="760" y="669"/>
      <point x="707" y="669" type="curve" smooth="yes"/>
      <point x="632" y="669"/>
      <point x="598" y="673"/>
    </contour>
    <contour>
      <point x="683" y="-170" type="move" name="btm"/>
    </contour>
    <contour>
      <point x="683" y="1700" type="move" name="top"/>
    </contour>
  </outline>
</glyph>
<glyph name="ertick-cy" format="1">
  <advance width="1313"/>
  <unicode hex="048F"/>
  <outline>
    <contour>
      <point x="1245" y="606" type="curve" smooth="yes"/>
      <point x="1245" y="1007"/>
      <point x="1043" y="1168"/>
      <point x="801" y="1168" type="curve" smooth="yes"/>
      <point x="653" y="1168"/>
      <point x="540" y="1088"/>
      <point x="482" y="1015" type="curve"/>
      <point x="482" y="1122" type="line"/>
      <point x="428" y="1166" type="line"/>
      <point x="423" y="1166" type="line"/>
      <point x="68" y="1120" type="line"/>
      <point x="68" y="962" type="line"/>
      <point x="190" y="922" type="line"/>
      <point x="190" y="-343" type="line"/>
      <point x="61" y="-368" type="line"/>
      <point x="61" y="-496" type="line"/>
      <point x="688" y="-496" type="line"/>
      <point x="688" y="-368" type="line"/>
      <point x="510" y="-342" type="line"/>
      <point x="510" y="-170" type="line"/>
      <point x="504" y="-4" type="line"/>
      <point x="534" y="-13"/>
      <point x="591" y="-23"/>
      <point x="639" y="-23" type="curve" smooth="yes"/>
      <point x="768" y="-23"/>
      <point x="877" y="8"/>
      <point x="966" y="62" type="curve"/>
      <point x="1127" y="-90" type="line"/>
      <point x="1228" y="17" type="line"/>
      <point x="1080" y="156" type="line"/>
      <point x="1188" y="273"/>
      <point x="1245" y="434"/>
    </contour>
    <contour>
      <point x="652" y="361" type="line"/>
      <point x="817" y="203" type="line"/>
      <point x="772" y="138"/>
      <point x="711" y="112"/>
      <point x="646" y="112" type="curve" smooth="yes"/>
      <point x="581" y="112"/>
      <point x="527" y="135"/>
      <point x="510" y="159" type="curve"/>
      <point x="510" y="908" type="line"/>
      <point x="542" y="943"/>
      <point x="605" y="980"/>
      <point x="678" y="980" type="curve" smooth="yes"/>
      <point x="808" y="980"/>
      <point x="904" y="860"/>
      <point x="901" y="570" type="curve" smooth="yes"/>
      <point x="900" y="481"/>
      <point x="892" y="408"/>
      <point x="878" y="348" type="curve"/>
      <point x="753" y="466" type="line"/>
    </contour>
    <contour>
      <point x="625" y="-170" type="move" name="btm"/>
    </contour>
    <contour>
      <point x="676" y="1700" type="move" name="top"/>
    </contour>
  </outline>
</glyph>
<glyph name="uni0492" format="1">
  <advance width="1219"/>
  <unicode hex="0492"/>
  <outline>
    <contour>
      <point x="86" y="629" type="line"/>
      <point x="271" y="629" type="line"/>
      <point x="271" y="161" type="line"/>
      <point x="49" y="134" type="line"/>
      <point x="49" y="0" type="line"/>
      <point x="927" y="0" type="line"/>
      <point x="927" y="134" type="line"/>
      <point x="610" y="161" type="line"/>
      <point x="610" y="629" type="line"/>
      <point x="895" y="629" type="line"/>
      <point x="895" y="777" type="line"/>
      <point x="610" y="777" type="line"/>
      <point x="610" y="1374" type="line"/>
      <point x="948" y="1353" type="line"/>
      <point x="1022" y="929" type="line"/>
      <point x="1219" y="929" type="line"/>
      <point x="1194" y="1522" type="line"/>
      <point x="53" y="1522" type="line"/>
      <point x="53" y="1384" type="line"/>
      <point x="271" y="1351" type="line"/>
      <point x="271" y="777" type="line"/>
      <point x="86" y="777" type="line"/>
    </contour>
  </outline>
</glyph>
<glyph name="uni0493" format="1">
  <advance width="1068"/>
  <unicode hex="0493"/>
  <outline>
    <contour>
      <point x="58" y="392" type="line"/>
      <point x="227" y="392" type="line"/>
      <point x="227" y="154" type="line"/>
      <point x="81" y="134" type="line"/>
      <point x="81" y="0" type="line"/>
      <point x="815" y="0" type="line"/>
      <point x="815" y="134" type="line"/>
      <point x="556" y="154" type="line"/>
      <point x="556" y="392" type="line"/>
      <point x="790" y="392" type="line"/>
      <point x="790" y="540" type="line"/>
      <point x="556" y="540" type="line"/>
      <point x="556" y="1006" type="line"/>
      <point x="792" y="983" type="line"/>
      <point x="856" y="680" type="line"/>
      <point x="1042" y="680" type="line"/>
      <point x="1032" y="1137" type="line"/>
      <point x="85" y="1137" type="line"/>
      <point x="85" y="1007" type="line"/>
      <point x="227" y="982" type="line"/>
      <point x="227" y="540" type="line"/>
      <point x="58" y="540" type="line"/>
    </contour>
    <contour>
      <point x="326" y="-170" type="move" name="btm"/>
    </contour>
    <contour>
      <point x="483" y="1700" type="move" name="top"/>
    </contour>
  </outline>
</glyph>
<glyph name="zhedescender-cy" format="1">
  <advance width="2022"/>
  <unicode hex="0497"/>
  <outline>
    <contour>
      <point x="1974" y="1007" type="line"/>
      <point x="1974" y="1138" type="line"/>
      <point x="1428" y="1138" type="line"/>
      <point x="1428" y="1007" type="line"/>
      <point x="1567" y="983" type="line"/>
      <point x="1369" y="663" type="line"/>
      <point x="1167" y="663" type="line"/>
      <point x="1167" y="981" type="line"/>
      <point x="1303" y="1007" type="line"/>
      <point x="1302" y="1138" type="line"/>
      <point x="722" y="1138" type="line"/>
      <point x="722" y="1007" type="line"/>
      <point x="847" y="982" type="line"/>
      <point x="847" y="663" type="line"/>
      <point x="645" y="663" type="line"/>
      <point x="446" y="983" type="line"/>
      <point x="586" y="1007" type="line"/>
      <point x="586" y="1138" type="line"/>
      <point x="41" y="1138" type="line"/>
      <point x="41" y="1007" type="line"/>
      <point x="201" y="982" type="line"/>
      <point x="460" y="635" type="line"/>
      <point x="258" y="535"/>
      <point x="170" y="192"/>
      <point x="75" y="160" type="curve"/>
      <point x="-17" y="137" type="line"/>
      <point x="-17" y="0" type="line"/>
      <point x="317" y="0" type="line" smooth="yes"/>
      <point x="499" y="0"/>
      <point x="546" y="529"/>
      <point x="730" y="530" type="curve" smooth="yes"/>
      <point x="847" y="530" type="line"/>
      <point x="847" y="159" type="line"/>
      <point x="702" y="134" type="line"/>
      <point x="702" y="0" type="line"/>
      <point x="1334" y="0" type="line"/>
      <point x="1334" y="134" type="line"/>
      <point x="1167" y="160" type="line"/>
      <point x="1167" y="530" type="line"/>
      <point x="1283" y="529" type="line"/>
      <point x="1469" y="529"/>
      <point x="1515" y="0"/>
      <point x="1697" y="0" type="curve" smooth="yes"/>
      <point x="1790" y="0" type="line"/>
      <point x="1839" y="-83"/>
      <point x="1842" y="-306"/>
      <point x="1842" y="-410" type="curve"/>
      <point x="2027" y="-410" type="line"/>
      <point x="2038" y="-371"/>
      <point x="2081" y="73"/>
      <point x="2081" y="161" type="curve"/>
      <point x="1936" y="161" type="line"/>
      <point x="1843" y="197"/>
      <point x="1755" y="535"/>
      <point x="1554" y="635" type="curve"/>
      <point x="1812" y="982" type="line"/>
    </contour>
  </outline>
</glyph>
<glyph name="kadescender-cy" format="1">
  <advance width="1399"/>
  <unicode hex="049B"/>
  <outline>
    <contour>
      <point x="1346" y="1007" type="line"/>
      <point x="1346" y="1138" type="line"/>
      <point x="800" y="1138" type="line"/>
      <point x="800" y="1007" type="line"/>
      <point x="940" y="983" type="line"/>
      <point x="742" y="663" type="line"/>
      <point x="548" y="663" type="line"/>
      <point x="548" y="981" type="line"/>
      <point x="677" y="1007" type="line"/>
      <point x="677" y="1138" type="line"/>
      <point x="93" y="1138" type="line"/>
      <point x="93" y="1007" type="line"/>
      <point x="223" y="982" type="line"/>
      <point x="223" y="153" type="line"/>
      <point x="91" y="134" type="line"/>
      <point x="91" y="0" type="line"/>
      <point x="706" y="0" type="line"/>
      <point x="706" y="134" type="line"/>
      <point x="548" y="153" type="line"/>
      <point x="548" y="530" type="line"/>
      <point x="660" y="529" type="line"/>
      <point x="844" y="529"/>
      <point x="891" y="0"/>
      <point x="1073" y="0" type="curve" smooth="yes"/>
      <point x="1128" y="0" type="line"/>
      <point x="1148" y="-42"/>
      <point x="1185" y="-342"/>
      <point x="1186" y="-406" type="curve"/>
      <point x="1371" y="-406" type="line"/>
      <point x="1378" y="-381"/>
      <point x="1427" y="62"/>
      <point x="1427" y="160" type="curve"/>
      <point x="1315" y="160" type="line"/>
      <point x="1220" y="191"/>
      <point x="1131" y="537"/>
      <point x="927" y="636" type="curve"/>
      <point x="1185" y="982" type="line"/>
    </contour>
    <contour>
      <point x="842" y="-170" type="move" name="btm"/>
    </contour>
    <contour>
      <point x="645" y="1700" type="move" name="top"/>
    </contour>
  </outline>
</glyph>
<glyph name="uni049C" format="1">
  <advance width="1623"/>
  <unicode hex="049C"/>
  <outline>
    <contour>
      <point x="843" y="371" type="line"/>
      <point x="843" y="708" type="line"/>
      <point x="1017" y="668"/>
      <point x="1115" y="0"/>
      <point x="1318" y="0" type="curve"/>
      <point x="1645" y="-4" type="line"/>
      <point x="1645" y="134" type="line"/>
      <point x="1563" y="160" type="line"/>
      <point x="1465" y="195"/>
      <point x="1327" y="737"/>
      <point x="1095" y="828" type="curve"/>
      <point x="1409" y="1355" type="line"/>
      <point x="1572" y="1381" type="line"/>
      <point x="1572" y="1522" type="line"/>
      <point x="1004" y="1522" type="line"/>
      <point x="1004" y="1381" type="line"/>
      <point x="1164" y="1350" type="line"/>
      <point x="904" y="842" type="line"/>
      <point x="843" y="842" type="line"/>
      <point x="843" y="1135" type="line"/>
      <point x="709" y="1135" type="line"/>
      <point x="709" y="842" type="line"/>
      <point x="567" y="842" type="line"/>
      <point x="567" y="1352" type="line"/>
      <point x="715" y="1381" type="line"/>
      <point x="715" y="1522" type="line"/>
      <point x="80" y="1522" type="line"/>
      <point x="80" y="1381" type="line"/>
      <point x="233" y="1353" type="line"/>
      <point x="233" y="161" type="line"/>
      <point x="80" y="134" type="line"/>
      <point x="80" y="0" type="line"/>
      <point x="743" y="0" type="line"/>
      <point x="743" y="132" type="line"/>
      <point x="567" y="160" type="line"/>
      <point x="567" y="710" type="line"/>
      <point x="709" y="710" type="line"/>
      <point x="709" y="371" type="line"/>
    </contour>
    <contour>
      <point x="720" y="-170" type="move" name="btm"/>
    </contour>
    <contour>
      <point x="720" y="1700" type="move" name="top"/>
    </contour>
  </outline>
</glyph>
<glyph name="uni049D" format="1">
  <advance width="1504"/>
  <unicode hex="049D"/>
  <outline>
    <contour>
      <point x="550" y="534" type="line"/>
      <point x="658" y="534" type="line"/>
      <point x="658" y="272" type="line"/>
      <point x="807" y="272" type="line"/>
      <point x="807" y="516" type="line"/>
      <point x="973" y="424"/>
      <point x="1025" y="0"/>
      <point x="1188" y="0" type="curve" smooth="yes"/>
      <point x="1522" y="0" type="line"/>
      <point x="1522" y="128" type="line"/>
      <point x="1411" y="155" type="line"/>
      <point x="1305" y="177"/>
      <point x="1232" y="522"/>
      <point x="1039" y="629" type="curve"/>
      <point x="1308" y="982" type="line"/>
      <point x="1470" y="1007" type="line"/>
      <point x="1470" y="1138" type="line"/>
      <point x="916" y="1138" type="line"/>
      <point x="916" y="1007" type="line"/>
      <point x="1062" y="983" type="line"/>
      <point x="857" y="660" type="line"/>
      <point x="807" y="660" type="line"/>
      <point x="807" y="888" type="line"/>
      <point x="658" y="888" type="line"/>
      <point x="658" y="660" type="line"/>
      <point x="550" y="660" type="line"/>
      <point x="550" y="982" type="line"/>
      <point x="688" y="1007" type="line"/>
      <point x="688" y="1138" type="line"/>
      <point x="93" y="1138" type="line"/>
      <point x="93" y="1007" type="line"/>
      <point x="223" y="982" type="line"/>
      <point x="223" y="153" type="line"/>
      <point x="91" y="134" type="line"/>
      <point x="91" y="0" type="line"/>
      <point x="707" y="0" type="line"/>
      <point x="707" y="134" type="line"/>
      <point x="550" y="153" type="line"/>
    </contour>
    <contour>
      <point x="862" y="-170" type="move" name="btm"/>
    </contour>
    <contour>
      <point x="665" y="1700" type="move" name="top"/>
    </contour>
  </outline>
</glyph>
<glyph name="uni04A0" format="1">
  <advance width="1830"/>
  <unicode hex="04A0"/>
  <outline>
    <contour>
      <point x="1861" y="0" type="line"/>
      <point x="1861" y="134" type="line"/>
      <point x="1771" y="160" type="line"/>
      <point x="1673" y="195"/>
      <point x="1506" y="720"/>
      <point x="1274" y="823" type="curve"/>
      <point x="1645" y="1353" type="line"/>
      <point x="1811" y="1381" type="line"/>
      <point x="1811" y="1522" type="line"/>
      <point x="1248" y="1522" type="line"/>
      <point x="1248" y="1381" type="line"/>
      <point x="1402" y="1352" type="line"/>
      <point x="1084" y="841" type="line"/>
      <point x="918" y="841" type="line"/>
      <point x="918" y="1352" type="line"/>
      <point x="1068" y="1381" type="line"/>
      <point x="1068" y="1522" type="line"/>
      <point x="82" y="1522" type="line"/>
      <point x="56" y="945" type="line"/>
      <point x="256" y="945" type="line"/>
      <point x="329" y="1356" type="line"/>
      <point x="584" y="1373" type="line"/>
      <point x="584" y="161" type="line"/>
      <point x="421" y="134" type="line"/>
      <point x="421" y="0" type="line"/>
      <point x="1092" y="0" type="line"/>
      <point x="1092" y="132" type="line"/>
      <point x="918" y="160" type="line"/>
      <point x="918" y="711" type="line"/>
      <point x="983" y="711" type="line" smooth="yes"/>
      <point x="1185" y="711"/>
      <point x="1342" y="0"/>
      <point x="1516" y="0" type="curve" smooth="yes"/>
    </contour>
    <contour>
      <point x="1072" y="-170" type="move" name="btm"/>
    </contour>
    <contour>
      <point x="1072" y="1700" type="move" name="top"/>
    </contour>
  </outline>
</glyph>
<glyph name="Endescender-cy" format="1">
  <advance width="1720"/>
  <unicode hex="04A2"/>
  <outline>
    <contour>
      <point x="81" y="0" type="line"/>
      <point x="737" y="0" type="line"/>
      <point x="737" y="134" type="line"/>
      <point x="570" y="160" type="line"/>
      <point x="570" y="692" type="line"/>
      <point x="1145" y="692" type="line"/>
      <point x="1145" y="160" type="line"/>
      <point x="992" y="134" type="line"/>
      <point x="992" y="0" type="line"/>
      <point x="1399" y="0" type="line"/>
      <point x="1419" y="-45"/>
      <point x="1455" y="-343"/>
      <point x="1456" y="-406" type="curve"/>
      <point x="1641" y="-406" type="line"/>
      <point x="1648" y="-381"/>
      <point x="1697" y="63"/>
      <point x="1697" y="160" type="curve"/>
      <point x="1483" y="160" type="line"/>
      <point x="1483" y="1353" type="line"/>
      <point x="1635" y="1381" type="line"/>
      <point x="1635" y="1522" type="line"/>
      <point x="990" y="1522" type="line"/>
      <point x="990" y="1381" type="line"/>
      <point x="1145" y="1352" type="line"/>
      <point x="1145" y="861" type="line"/>
      <point x="570" y="861" type="line"/>
      <point x="570" y="1353" type="line"/>
      <point x="737" y="1381" type="line"/>
      <point x="737" y="1522" type="line"/>
      <point x="85" y="1522" type="line"/>
      <point x="85" y="1381" type="line"/>
      <point x="233" y="1353" type="line"/>
      <point x="233" y="159" type="line"/>
      <point x="81" y="134" type="line"/>
    </contour>
    <contour>
      <point x="801" y="-170" type="move" name="btm"/>
    </contour>
    <contour>
      <point x="801" y="1700" type="move" name="top"/>
    </contour>
  </outline>
</glyph>
<glyph name="uni04A3" format="1">
  <advance width="1548"/>
  <unicode hex="04A3"/>
  <outline>
    <contour>
      <point x="90" y="0" type="line"/>
      <point x="690" y="0" type="line"/>
      <point x="690" y="134" type="line"/>
      <point x="550" y="154" type="line"/>
      <point x="550" y="517" type="line"/>
      <point x="998" y="517" type="line"/>
      <point x="998" y="154" type="line"/>
      <point x="858" y="134" type="line"/>
      <point x="858" y="0" type="line"/>
      <point x="1216" y="0" type="line"/>
      <point x="1242" y="-50"/>
      <point x="1276" y="-341"/>
      <point x="1282" y="-406" type="curve"/>
      <point x="1454" y="-406" type="line"/>
      <point x="1462" y="-378"/>
      <point x="1513" y="76"/>
      <point x="1513" y="160" type="curve"/>
      <point x="1325" y="160" type="line"/>
      <point x="1325" y="981" type="line"/>
      <point x="1457" y="1007" type="line"/>
      <point x="1457" y="1138" type="line"/>
      <point x="860" y="1138" type="line"/>
      <point x="860" y="1007" type="line"/>
      <point x="998" y="982" type="line"/>
      <point x="998" y="664" type="line"/>
      <point x="550" y="664" type="line"/>
      <point x="550" y="982" type="line"/>
      <point x="687" y="1007" type="line"/>
      <point x="687" y="1138" type="line"/>
      <point x="88" y="1138" type="line"/>
      <point x="88" y="1007" type="line"/>
      <point x="223" y="981" type="line"/>
      <point x="223" y="154" type="line"/>
      <point x="90" y="134" type="line"/>
    </contour>
    <contour>
      <point x="898" y="-170" type="move" name="btm"/>
    </contour>
    <contour>
      <point x="898" y="1700" type="move" name="top"/>
    </contour>
  </outline>
</glyph>
<glyph name="uni04A5" format="1">
  <advance width="1807"/>
  <unicode hex="04A5"/>
  <outline>
    <contour>
      <point x="1325" y="999" type="line"/>
      <point x="1523" y="989" type="line"/>
      <point x="1590" y="665" type="line"/>
      <point x="1781" y="665" type="line"/>
      <point x="1768" y="1138" type="line"/>
      <point x="860" y="1138" type="line"/>
      <point x="860" y="1007" type="line"/>
      <point x="998" y="983" type="line"/>
      <point x="998" y="664" type="line"/>
      <point x="550" y="664" type="line"/>
      <point x="550" y="981" type="line"/>
      <point x="687" y="1007" type="line"/>
      <point x="687" y="1138" type="line"/>
      <point x="88" y="1138" type="line"/>
      <point x="88" y="1007" type="line"/>
      <point x="223" y="981" type="line"/>
      <point x="223" y="154" type="line"/>
      <point x="90" y="134" type="line"/>
      <point x="90" y="0" type="line"/>
      <point x="690" y="0" type="line"/>
      <point x="690" y="134" type="line"/>
      <point x="550" y="154" type="line"/>
      <point x="550" y="517" type="line"/>
      <point x="998" y="517" type="line"/>
      <point x="998" y="154" type="line"/>
      <point x="858" y="134" type="line"/>
      <point x="858" y="0" type="line"/>
      <point x="1458" y="0" type="line"/>
      <point x="1458" y="134" type="line"/>
      <point x="1325" y="154" type="line"/>
    </contour>
    <contour>
      <point x="817" y="-170" type="move" name="btm"/>
    </contour>
    <contour>
      <point x="817" y="1700" type="move" name="top"/>
    </contour>
  </outline>
</glyph>
<glyph name="Pemiddlehook-cy" format="1">
  <advance width="2307"/>
  <unicode hex="04A6"/>
  <outline>
    <contour>
      <point x="77" y="0" type="line"/>
      <point x="735" y="0" type="line"/>
      <point x="735" y="134" type="line"/>
      <point x="569" y="160" type="line"/>
      <point x="569" y="1368" type="line"/>
      <point x="1087" y="1368" type="line"/>
      <point x="1087" y="160" type="line"/>
      <point x="939" y="134" type="line"/>
      <point x="939" y="0" type="line"/>
      <point x="1596" y="0" type="line"/>
      <point x="1596" y="134" type="line"/>
      <point x="1423" y="160" type="line"/>
      <point x="1423" y="651" type="line"/>
      <point x="1484" y="681"/>
      <point x="1553" y="707"/>
      <point x="1665" y="707" type="curve" smooth="yes"/>
      <point x="1841" y="707"/>
      <point x="1906" y="586"/>
      <point x="1906" y="305" type="curve" smooth="yes"/>
      <point x="1906" y="-65"/>
      <point x="1833" y="-253"/>
      <point x="1660" y="-253" type="curve" smooth="yes"/>
      <point x="1577" y="-253"/>
      <point x="1542" y="-244"/>
      <point x="1521" y="-238" type="curve"/>
      <point x="1534" y="-389" type="line"/>
      <point x="1563" y="-400"/>
      <point x="1628" y="-418"/>
      <point x="1710" y="-418" type="curve" smooth="yes"/>
      <point x="2042" y="-418"/>
      <point x="2242" y="-117"/>
      <point x="2242" y="346" type="curve" smooth="yes"/>
      <point x="2242" y="721"/>
      <point x="2087" y="881"/>
      <point x="1744" y="881" type="curve" smooth="yes"/>
      <point x="1649" y="881"/>
      <point x="1489" y="838"/>
      <point x="1423" y="805" type="curve"/>
      <point x="1423" y="1353" type="line"/>
      <point x="1584" y="1382" type="line"/>
      <point x="1584" y="1522" type="line"/>
      <point x="73" y="1522" type="line"/>
      <point x="73" y="1381" type="line"/>
      <point x="233" y="1353" type="line"/>
      <point x="233" y="160" type="line"/>
      <point x="77" y="134" type="line"/>
    </contour>
    <contour>
      <point x="811" y="-170" type="move" name="btm"/>
    </contour>
    <contour>
      <point x="811" y="1700" type="move" name="top"/>
    </contour>
  </outline>
</glyph>
<glyph name="uni04A8" format="1">
  <advance width="1596"/>
  <unicode hex="04A8"/>
  <outline>
    <contour>
      <point x="1333" y="-333" type="curve" smooth="yes"/>
      <point x="1390" y="-333"/>
      <point x="1424" y="-325"/>
      <point x="1461" y="-319" type="curve"/>
      <point x="1461" y="-188" type="line"/>
      <point x="1447" y="-190"/>
      <point x="1428" y="-194"/>
      <point x="1398" y="-194" type="curve" smooth="yes"/>
      <point x="1257" y="-194"/>
      <point x="1161" y="-102"/>
      <point x="1097" y="13" type="curve"/>
      <point x="1390" y="97"/>
      <point x="1579" y="319"/>
      <point x="1579" y="579" type="curve" smooth="yes"/>
      <point x="1579" y="842"/>
      <point x="1398" y="956"/>
      <point x="1171" y="956" type="curve" smooth="yes"/>
      <point x="883" y="956"/>
      <point x="711" y="697"/>
      <point x="711" y="368" type="curve" smooth="yes"/>
      <point x="711" y="288"/>
      <point x="721" y="209"/>
      <point x="742" y="136" type="curve"/>
      <point x="531" y="226"/>
      <point x="439" y="506"/>
      <point x="439" y="791" type="curve" smooth="yes"/>
      <point x="439" y="1207"/>
      <point x="590" y="1403"/>
      <point x="824" y="1403" type="curve" smooth="yes"/>
      <point x="959" y="1403"/>
      <point x="1003" y="1368"/>
      <point x="1030" y="1342" type="curve"/>
      <point x="1089" y="1105" type="line"/>
      <point x="1318" y="1105" type="line"/>
      <point x="1341" y="1477" type="line"/>
      <point x="1263" y="1487"/>
      <point x="1094" y="1541"/>
      <point x="839" y="1541" type="curve" smooth="yes"/>
      <point x="384" y="1541"/>
      <point x="54" y="1257"/>
      <point x="54" y="755" type="curve" smooth="yes"/>
      <point x="54" y="330"/>
      <point x="305" y="-11"/>
      <point x="806" y="-22" type="curve"/>
      <point x="907" y="-206"/>
      <point x="1086" y="-333"/>
    </contour>
    <contour>
      <point x="989" y="420" type="curve" smooth="yes"/>
      <point x="989" y="663"/>
      <point x="1055" y="803"/>
      <point x="1150" y="803" type="curve" smooth="yes"/>
      <point x="1257" y="803"/>
      <point x="1289" y="707"/>
      <point x="1289" y="552" type="curve" smooth="yes"/>
      <point x="1289" y="338"/>
      <point x="1183" y="194"/>
      <point x="1043" y="135" type="curve"/>
      <point x="1004" y="247"/>
      <point x="989" y="358"/>
    </contour>
    <contour>
      <point x="774" y="-170" type="move" name="btm"/>
    </contour>
    <contour>
      <point x="820" y="1700" type="move" name="top"/>
    </contour>
  </outline>
</glyph>
<glyph name="uni04A9" format="1">
  <advance width="1448"/>
  <unicode hex="04A9"/>
  <outline>
    <contour>
      <point x="723" y="-23" type="curve" smooth="yes"/>
      <point x="824" y="-23"/>
      <point x="914" y="-11"/>
      <point x="993" y="12" type="curve"/>
      <point x="1068" y="-9"/>
      <point x="1153" y="-21"/>
      <point x="1244" y="-21" type="curve" smooth="yes"/>
      <point x="1294" y="-21"/>
      <point x="1404" y="-14"/>
      <point x="1430" y="-9" type="curve"/>
      <point x="1441" y="126" type="line"/>
      <point x="1413" y="123"/>
      <point x="1300" y="121"/>
      <point x="1257" y="121" type="curve" smooth="yes"/>
      <point x="1212" y="121" type="line"/>
      <point x="1334" y="219"/>
      <point x="1397" y="358"/>
      <point x="1397" y="517" type="curve" smooth="yes"/>
      <point x="1397" y="754"/>
      <point x="1233" y="905"/>
      <point x="1012" y="905" type="curve" smooth="yes"/>
      <point x="769" y="905"/>
      <point x="602" y="758"/>
      <point x="602" y="495" type="curve" smooth="yes"/>
      <point x="602" y="339"/>
      <point x="665" y="211"/>
      <point x="776" y="122" type="curve"/>
      <point x="704" y="122" type="line" smooth="yes"/>
      <point x="519" y="122"/>
      <point x="396" y="351"/>
      <point x="396" y="596" type="curve" smooth="yes"/>
      <point x="396" y="857"/>
      <point x="511" y="1026"/>
      <point x="715" y="1026" type="curve" smooth="yes"/>
      <point x="807" y="1026"/>
      <point x="839" y="1017"/>
      <point x="867" y="1001" type="curve"/>
      <point x="919" y="1116" type="line"/>
      <point x="892" y="1136"/>
      <point x="809" y="1168"/>
      <point x="689" y="1168" type="curve" smooth="yes"/>
      <point x="304" y="1168"/>
      <point x="73" y="925"/>
      <point x="73" y="577" type="curve" smooth="yes"/>
      <point x="73" y="231"/>
      <point x="295" y="-22"/>
    </contour>
    <contour>
      <point x="873" y="506" type="curve" smooth="yes"/>
      <point x="873" y="660"/>
      <point x="903" y="786"/>
      <point x="999" y="786" type="curve" smooth="yes"/>
      <point x="1073" y="786"/>
      <point x="1117" y="677"/>
      <point x="1117" y="547" type="curve" smooth="yes"/>
      <point x="1117" y="317"/>
      <point x="1099" y="222"/>
      <point x="1009" y="171" type="curve"/>
      <point x="886" y="240"/>
      <point x="873" y="372"/>
    </contour>
    <contour>
      <point x="791" y="-170" type="move" name="btm"/>
    </contour>
    <contour>
      <point x="837" y="1700" type="move" name="top"/>
    </contour>
  </outline>
</glyph>
<glyph name="tedescender-cy" format="1">
  <advance width="1320"/>
  <unicode hex="04AD"/>
  <outline>
    <contour>
      <point x="251" y="0" type="line"/>
      <point x="850" y="0" type="line"/>
      <point x="851" y="-1" type="line" smooth="yes"/>
      <point x="871" y="-42"/>
      <point x="907" y="-343"/>
      <point x="909" y="-406" type="curve"/>
      <point x="1094" y="-406" type="line"/>
      <point x="1101" y="-381"/>
      <point x="1149" y="62"/>
      <point x="1149" y="160" type="curve"/>
      <point x="829" y="160" type="line"/>
      <point x="829" y="1006" type="line"/>
      <point x="1015" y="983" type="line"/>
      <point x="1080" y="663" type="line"/>
      <point x="1275" y="663" type="line"/>
      <point x="1256" y="1137" type="line"/>
      <point x="63" y="1137" type="line"/>
      <point x="45" y="663" type="line"/>
      <point x="242" y="663" type="line"/>
      <point x="303" y="983" type="line"/>
      <point x="502" y="1006" type="line"/>
      <point x="502" y="160" type="line"/>
      <point x="251" y="134" type="line"/>
    </contour>
  </outline>
</glyph>
<glyph name="uni04AF" format="1">
  <advance width="1310"/>
  <unicode hex="04AF"/>
  <outline>
    <contour>
      <point x="343" y="-367" type="line"/>
      <point x="343" y="-496" type="line"/>
      <point x="1030" y="-496" type="line"/>
      <point x="1030" y="-367" type="line"/>
      <point x="842" y="-339" type="line"/>
      <point x="842" y="114" type="line"/>
      <point x="1200" y="982" type="line"/>
      <point x="1323" y="1007" type="line"/>
      <point x="1323" y="1138" type="line"/>
      <point x="834" y="1138" type="line"/>
      <point x="834" y="1007" type="line"/>
      <point x="997" y="981" type="line"/>
      <point x="756" y="353" type="line"/>
      <point x="730" y="264" type="line"/>
      <point x="703" y="352" type="line"/>
      <point x="466" y="982" type="line"/>
      <point x="629" y="1007" type="line"/>
      <point x="629" y="1138" type="line"/>
      <point x="-7" y="1138" type="line"/>
      <point x="-7" y="1007" type="line"/>
      <point x="106" y="982" type="line"/>
      <point x="514" y="92" type="line"/>
      <point x="514" y="-339" type="line"/>
    </contour>
  </outline>
</glyph>
<glyph name="Ustraitstroke-cy" format="1">
  <advance width="1322"/>
  <unicode hex="04B0"/>
  <outline>
    <contour>
      <point x="87" y="486" type="line"/>
      <point x="498" y="486" type="line"/>
      <point x="498" y="159" type="line"/>
      <point x="289" y="134" type="line"/>
      <point x="289" y="0" type="line"/>
      <point x="1072" y="0" type="line"/>
      <point x="1072" y="134" type="line"/>
      <point x="855" y="160" type="line"/>
      <point x="855" y="486" type="line"/>
      <point x="1261" y="486" type="line"/>
      <point x="1261" y="635" type="line"/>
      <point x="868" y="635" type="line"/>
      <point x="1249" y="1355" type="line"/>
      <point x="1376" y="1381" type="line"/>
      <point x="1376" y="1522" type="line"/>
      <point x="859" y="1522" type="line"/>
      <point x="859" y="1381" type="line"/>
      <point x="1012" y="1353" type="line"/>
      <point x="793" y="869" type="line"/>
      <point x="742" y="742" type="line"/>
      <point x="696" y="871" type="line"/>
      <point x="457" y="1352" type="line"/>
      <point x="592" y="1381" type="line"/>
      <point x="592" y="1522" type="line"/>
      <point x="-46" y="1522" type="line"/>
      <point x="-46" y="1381" type="line"/>
      <point x="74" y="1352" type="line"/>
      <point x="483" y="635" type="line"/>
      <point x="87" y="635" type="line"/>
    </contour>
  </outline>
</glyph>
<glyph name="ustraitstroke-cy" format="1">
  <advance width="1310"/>
  <unicode hex="04B1"/>
  <outline>
    <contour>
      <point x="179" y="0" type="line"/>
      <point x="514" y="0" type="line"/>
      <point x="514" y="-339" type="line"/>
      <point x="343" y="-367" type="line"/>
      <point x="343" y="-496" type="line"/>
      <point x="1030" y="-496" type="line"/>
      <point x="1030" y="-367" type="line"/>
      <point x="842" y="-339" type="line"/>
      <point x="842" y="0" type="line"/>
      <point x="1183" y="0" type="line"/>
      <point x="1183" y="141" type="line"/>
      <point x="853" y="141" type="line"/>
      <point x="1200" y="982" type="line"/>
      <point x="1323" y="1007" type="line"/>
      <point x="1323" y="1138" type="line"/>
      <point x="834" y="1138" type="line"/>
      <point x="834" y="1007" type="line"/>
      <point x="997" y="981" type="line"/>
      <point x="756" y="353" type="line"/>
      <point x="730" y="264" type="line"/>
      <point x="703" y="352" type="line"/>
      <point x="466" y="982" type="line"/>
      <point x="629" y="1007" type="line"/>
      <point x="629" y="1138" type="line"/>
      <point x="-7" y="1138" type="line"/>
      <point x="-7" y="1007" type="line"/>
      <point x="106" y="982" type="line"/>
      <point x="492" y="141" type="line"/>
      <point x="179" y="141" type="line"/>
    </contour>
  </outline>
</glyph>
<glyph name="uni04B2" format="1">
  <advance width="1503"/>
  <unicode hex="04B2"/>
  <outline>
    <contour>
      <point x="10" y="0" type="line"/>
      <point x="577" y="0" type="line"/>
      <point x="577" y="134" type="line"/>
      <point x="393" y="159" type="line"/>
      <point x="661" y="629" type="line"/>
      <point x="948" y="160" type="line"/>
      <point x="794" y="134" type="line"/>
      <point x="794" y="0" type="line"/>
      <point x="1234" y="0" type="line"/>
      <point x="1253" y="-45"/>
      <point x="1290" y="-343"/>
      <point x="1291" y="-406" type="curve"/>
      <point x="1475" y="-406" type="line"/>
      <point x="1482" y="-381"/>
      <point x="1531" y="63"/>
      <point x="1531" y="160" type="curve"/>
      <point x="1344" y="160" type="line"/>
      <point x="904" y="814" type="line"/>
      <point x="1296" y="1353" type="line"/>
      <point x="1458" y="1381" type="line"/>
      <point x="1458" y="1522" type="line"/>
      <point x="922" y="1522" type="line"/>
      <point x="922" y="1381" type="line"/>
      <point x="1089" y="1353" type="line"/>
      <point x="820" y="919" type="line"/>
      <point x="562" y="1351" type="line"/>
      <point x="717" y="1381" type="line"/>
      <point x="717" y="1522" type="line"/>
      <point x="26" y="1522" type="line"/>
      <point x="26" y="1381" type="line"/>
      <point x="164" y="1352" type="line"/>
      <point x="573" y="739" type="line"/>
      <point x="180" y="159" type="line"/>
      <point x="10" y="134" type="line"/>
    </contour>
    <contour>
      <point x="745" y="-170" type="move" name="btm"/>
    </contour>
    <contour>
      <point x="745" y="1700" type="move" name="top"/>
    </contour>
  </outline>
</glyph>
<glyph name="uni04B3" format="1">
  <advance width="1243"/>
  <unicode hex="04B3"/>
  <outline>
    <contour>
      <point x="4" y="0" type="line"/>
      <point x="505" y="0" type="line"/>
      <point x="505" y="132" type="line"/>
      <point x="357" y="154" type="line"/>
      <point x="505" y="373" type="line"/>
      <point x="551" y="461" type="line"/>
      <point x="612" y="372" type="line"/>
      <point x="755" y="153" type="line"/>
      <point x="644" y="132" type="line"/>
      <point x="644" y="0" type="line"/>
      <point x="1018" y="0" type="line"/>
      <point x="1043" y="-50"/>
      <point x="1077" y="-339"/>
      <point x="1083" y="-406" type="curve"/>
      <point x="1256" y="-406" type="line"/>
      <point x="1267" y="-373"/>
      <point x="1315" y="107"/>
      <point x="1315" y="155" type="curve"/>
      <point x="1148" y="155" type="line"/>
      <point x="805" y="599" type="line"/>
      <point x="1115" y="982" type="line"/>
      <point x="1233" y="1007" type="line"/>
      <point x="1233" y="1138" type="line"/>
      <point x="776" y="1138" type="line"/>
      <point x="776" y="1007" type="line"/>
      <point x="908" y="982" type="line"/>
      <point x="761" y="779" type="line"/>
      <point x="711" y="693" type="line"/>
      <point x="659" y="780" type="line"/>
      <point x="515" y="982" type="line"/>
      <point x="641" y="1007" type="line"/>
      <point x="641" y="1138" type="line"/>
      <point x="17" y="1138" type="line"/>
      <point x="17" y="1007" type="line"/>
      <point x="122" y="982" type="line"/>
      <point x="452" y="558" type="line"/>
      <point x="132" y="153" type="line"/>
      <point x="4" y="132" type="line"/>
    </contour>
    <contour>
      <point x="646" y="-170" type="move" name="btm"/>
    </contour>
    <contour>
      <point x="646" y="1700" type="move" name="top"/>
    </contour>
  </outline>
</glyph>
<glyph name="Tetse-cy" format="1">
  <advance width="2197"/>
  <unicode hex="04B4"/>
  <outline>
    <contour>
      <point x="319" y="0" type="line"/>
      <point x="1869" y="0" type="line"/>
      <point x="1888" y="-45"/>
      <point x="1932" y="-334"/>
      <point x="1932" y="-406" type="curve"/>
      <point x="2117" y="-406" type="line"/>
      <point x="2124" y="-381"/>
      <point x="2173" y="63"/>
      <point x="2173" y="160" type="curve"/>
      <point x="1929" y="160" type="line"/>
      <point x="1929" y="1353" type="line"/>
      <point x="2083" y="1381" type="line"/>
      <point x="2083" y="1522" type="line"/>
      <point x="1446" y="1522" type="line"/>
      <point x="1446" y="1381" type="line"/>
      <point x="1595" y="1353" type="line"/>
      <point x="1595" y="148" type="line"/>
      <point x="857" y="148" type="line"/>
      <point x="857" y="1369" type="line"/>
      <point x="1064" y="1352" type="line"/>
      <point x="1139" y="947" type="line"/>
      <point x="1314" y="947" type="line"/>
      <point x="1283" y="1522" type="line"/>
      <point x="78" y="1522" type="line"/>
      <point x="55" y="946" type="line"/>
      <point x="230" y="946" type="line"/>
      <point x="299" y="1352" type="line"/>
      <point x="522" y="1369" type="line"/>
      <point x="522" y="159" type="line"/>
      <point x="319" y="134" type="line"/>
    </contour>
    <contour>
      <point x="945" y="-170" type="move" name="btm"/>
    </contour>
    <contour>
      <point x="945" y="1700" type="move" name="top"/>
    </contour>
  </outline>
</glyph>
<glyph name="uni04B5" format="1">
  <advance width="2027"/>
  <unicode hex="04B5"/>
  <outline>
    <contour>
      <point x="273" y="0" type="line"/>
      <point x="1748" y="0" type="line"/>
      <point x="1748" y="-1" type="line"/>
      <point x="1768" y="-48"/>
      <point x="1803" y="-345"/>
      <point x="1803" y="-406" type="curve"/>
      <point x="1988" y="-406" type="line"/>
      <point x="1995" y="-378"/>
      <point x="2042" y="45"/>
      <point x="2045" y="158" type="curve"/>
      <point x="1791" y="158" type="line"/>
      <point x="1791" y="982" type="line"/>
      <point x="1938" y="1007" type="line"/>
      <point x="1938" y="1138" type="line"/>
      <point x="1324" y="1138" type="line"/>
      <point x="1324" y="1007" type="line"/>
      <point x="1462" y="981" type="line"/>
      <point x="1462" y="146" type="line"/>
      <point x="807" y="146" type="line"/>
      <point x="807" y="1007" type="line"/>
      <point x="969" y="985" type="line"/>
      <point x="1032" y="656" type="line"/>
      <point x="1216" y="656" type="line"/>
      <point x="1202" y="1138" type="line"/>
      <point x="60" y="1138" type="line"/>
      <point x="45" y="656" type="line"/>
      <point x="226" y="656" type="line"/>
      <point x="289" y="985" type="line"/>
      <point x="471" y="1007" type="line"/>
      <point x="471" y="159" type="line"/>
      <point x="273" y="134" type="line"/>
    </contour>
  </outline>
</glyph>
<glyph name="uni04B6" format="1">
  <advance width="1528"/>
  <unicode hex="04B6"/>
  <outline>
    <contour>
      <point x="728" y="0" type="line"/>
      <point x="1197" y="0" type="line"/>
      <point x="1217" y="-45"/>
      <point x="1253" y="-343"/>
      <point x="1255" y="-406" type="curve"/>
      <point x="1440" y="-406" type="line"/>
      <point x="1446" y="-381"/>
      <point x="1495" y="63"/>
      <point x="1495" y="160" type="curve"/>
      <point x="1273" y="160" type="line"/>
      <point x="1273" y="1353" type="line"/>
      <point x="1436" y="1381" type="line"/>
      <point x="1436" y="1522" type="line"/>
      <point x="778" y="1522" type="line"/>
      <point x="778" y="1381" type="line"/>
      <point x="937" y="1354" type="line"/>
      <point x="937" y="810" type="line"/>
      <point x="887" y="767"/>
      <point x="796" y="741"/>
      <point x="703" y="741" type="curve" smooth="yes"/>
      <point x="523" y="741"/>
      <point x="477" y="777"/>
      <point x="477" y="1096" type="curve" smooth="yes"/>
      <point x="477" y="1350" type="line"/>
      <point x="618" y="1380" type="line"/>
      <point x="618" y="1522" type="line"/>
      <point x="24" y="1522" type="line"/>
      <point x="24" y="1380" type="line"/>
      <point x="141" y="1350" type="line"/>
      <point x="141" y="1018" type="line" smooth="yes"/>
      <point x="141" y="654"/>
      <point x="310" y="556"/>
      <point x="599" y="556" type="curve" smooth="yes"/>
      <point x="716" y="556"/>
      <point x="851" y="587"/>
      <point x="937" y="648" type="curve"/>
      <point x="937" y="161" type="line"/>
      <point x="728" y="134" type="line"/>
    </contour>
    <contour>
      <point x="703" y="-170" type="move" name="btm"/>
    </contour>
    <contour>
      <point x="703" y="1700" type="move" name="top"/>
    </contour>
  </outline>
</glyph>
